<svg width="252" height="126" viewBox="0 0 252 126" fill="none" xmlns="http://www.w3.org/2000/svg">
<g filter="url(#filter0_d_1259_739)">
<rect x="25" y="21" width="202" height="76" rx="10" fill="white"/>
</g>
<path d="M99.876 53.1567V54H95.7349V53.1567H99.876ZM95.9443 46.1797V54H94.9077V46.1797H95.9443ZM99.3281 49.542V50.3853H95.7349V49.542H99.3281ZM99.8223 46.1797V47.0283H95.7349V46.1797H99.8223ZM104.876 53.0063V50.0146C104.876 49.7855 104.829 49.5868 104.736 49.4185C104.647 49.2466 104.511 49.1141 104.328 49.021C104.146 48.9279 103.92 48.8813 103.651 48.8813C103.401 48.8813 103.181 48.9243 102.991 49.0103C102.805 49.0962 102.658 49.209 102.55 49.3486C102.447 49.4883 102.395 49.6387 102.395 49.7998H101.401C101.401 49.5921 101.455 49.3862 101.562 49.1821C101.669 48.978 101.823 48.7936 102.024 48.6289C102.228 48.4606 102.472 48.3281 102.754 48.2314C103.041 48.1312 103.36 48.0811 103.711 48.0811C104.133 48.0811 104.505 48.1527 104.828 48.2959C105.154 48.4391 105.408 48.6558 105.59 48.9458C105.777 49.2323 105.87 49.5921 105.87 50.0254V52.7324C105.87 52.9258 105.886 53.1317 105.918 53.3501C105.954 53.5685 106.006 53.7565 106.074 53.9141V54H105.037C104.987 53.8854 104.948 53.7332 104.919 53.5435C104.89 53.3501 104.876 53.1711 104.876 53.0063ZM105.048 50.4766L105.059 51.1748H104.054C103.771 51.1748 103.519 51.1981 103.297 51.2446C103.075 51.2876 102.889 51.3538 102.738 51.4434C102.588 51.5329 102.473 51.6457 102.395 51.7817C102.316 51.9142 102.276 52.07 102.276 52.249C102.276 52.4316 102.318 52.5981 102.4 52.7485C102.482 52.8989 102.606 53.0189 102.771 53.1084C102.939 53.1943 103.145 53.2373 103.388 53.2373C103.693 53.2373 103.961 53.1729 104.194 53.0439C104.427 52.915 104.611 52.7575 104.747 52.5713C104.887 52.3851 104.962 52.2043 104.973 52.0288L105.397 52.5068C105.372 52.6572 105.304 52.8237 105.193 53.0063C105.082 53.189 104.933 53.3644 104.747 53.5327C104.565 53.6974 104.346 53.8353 104.092 53.9463C103.841 54.0537 103.558 54.1074 103.243 54.1074C102.849 54.1074 102.504 54.0304 102.207 53.8765C101.913 53.7225 101.684 53.5166 101.519 53.2588C101.358 52.9974 101.277 52.7056 101.277 52.3833C101.277 52.0718 101.338 51.7979 101.46 51.5615C101.582 51.3216 101.757 51.1229 101.986 50.9653C102.216 50.8042 102.491 50.6825 102.814 50.6001C103.136 50.5177 103.496 50.4766 103.893 50.4766H105.048ZM108.866 49.1016V54H107.873V48.1885H108.839L108.866 49.1016ZM110.682 48.1562L110.676 49.0801C110.594 49.0622 110.515 49.0514 110.44 49.0479C110.368 49.0407 110.286 49.0371 110.193 49.0371C109.964 49.0371 109.762 49.0729 109.586 49.1445C109.411 49.2161 109.262 49.3164 109.14 49.4453C109.019 49.5742 108.922 49.7282 108.85 49.9072C108.782 50.0827 108.737 50.276 108.716 50.4873L108.437 50.6484C108.437 50.2975 108.471 49.9681 108.539 49.6602C108.61 49.3522 108.72 49.0801 108.866 48.8438C109.013 48.6038 109.199 48.4176 109.425 48.2852C109.654 48.1491 109.926 48.0811 110.241 48.0811C110.313 48.0811 110.395 48.09 110.488 48.1079C110.581 48.1222 110.646 48.1383 110.682 48.1562ZM113.034 49.4292V54H112.04V48.1885H112.98L113.034 49.4292ZM112.798 50.874L112.384 50.8579C112.388 50.4604 112.447 50.0934 112.561 49.7568C112.676 49.4167 112.837 49.1213 113.045 48.8706C113.252 48.62 113.499 48.4266 113.786 48.2905C114.076 48.1509 114.396 48.0811 114.747 48.0811C115.034 48.0811 115.292 48.1204 115.521 48.1992C115.75 48.2744 115.945 48.3962 116.106 48.5645C116.271 48.7327 116.396 48.9512 116.482 49.2197C116.568 49.4847 116.611 49.8088 116.611 50.1919V54H115.612V50.1812C115.612 49.8768 115.567 49.6333 115.478 49.4507C115.388 49.2645 115.257 49.1302 115.086 49.0479C114.914 48.9619 114.702 48.9189 114.452 48.9189C114.205 48.9189 113.979 48.9709 113.775 49.0747C113.575 49.1785 113.401 49.3218 113.254 49.5044C113.111 49.687 112.998 49.8965 112.916 50.1328C112.837 50.3656 112.798 50.6126 112.798 50.874ZM119.64 48.1885V54H118.641V48.1885H119.64ZM118.566 46.647C118.566 46.4858 118.614 46.3498 118.711 46.2388C118.811 46.1278 118.958 46.0723 119.151 46.0723C119.341 46.0723 119.486 46.1278 119.586 46.2388C119.69 46.3498 119.742 46.4858 119.742 46.647C119.742 46.8009 119.69 46.9334 119.586 47.0444C119.486 47.1519 119.341 47.2056 119.151 47.2056C118.958 47.2056 118.811 47.1519 118.711 47.0444C118.614 46.9334 118.566 46.8009 118.566 46.647ZM122.669 49.4292V54H121.675V48.1885H122.615L122.669 49.4292ZM122.432 50.874L122.019 50.8579C122.022 50.4604 122.082 50.0934 122.196 49.7568C122.311 49.4167 122.472 49.1213 122.679 48.8706C122.887 48.62 123.134 48.4266 123.421 48.2905C123.711 48.1509 124.031 48.0811 124.382 48.0811C124.669 48.0811 124.926 48.1204 125.156 48.1992C125.385 48.2744 125.58 48.3962 125.741 48.5645C125.906 48.7327 126.031 48.9512 126.117 49.2197C126.203 49.4847 126.246 49.8088 126.246 50.1919V54H125.247V50.1812C125.247 49.8768 125.202 49.6333 125.113 49.4507C125.023 49.2645 124.892 49.1302 124.721 49.0479C124.549 48.9619 124.337 48.9189 124.087 48.9189C123.84 48.9189 123.614 48.9709 123.41 49.0747C123.209 49.1785 123.036 49.3218 122.889 49.5044C122.746 49.687 122.633 49.8965 122.551 50.1328C122.472 50.3656 122.432 50.6126 122.432 50.874ZM131.96 48.1885H132.863V53.8765C132.863 54.3885 132.759 54.8254 132.551 55.187C132.343 55.5487 132.053 55.8226 131.681 56.0088C131.312 56.1986 130.886 56.2935 130.403 56.2935C130.202 56.2935 129.966 56.2612 129.694 56.1968C129.425 56.1359 129.16 56.0303 128.899 55.8799C128.641 55.7331 128.424 55.5343 128.249 55.2837L128.77 54.6929C129.013 54.9865 129.268 55.1906 129.533 55.3052C129.801 55.4198 130.066 55.4771 130.327 55.4771C130.643 55.4771 130.915 55.418 131.144 55.2998C131.373 55.1816 131.55 55.0062 131.676 54.7734C131.805 54.5443 131.869 54.2614 131.869 53.9248V49.4668L131.96 48.1885ZM127.959 51.1587V51.0459C127.959 50.6019 128.011 50.1991 128.115 49.8374C128.222 49.4722 128.374 49.1589 128.571 48.8975C128.772 48.6361 129.013 48.4355 129.296 48.2959C129.579 48.1527 129.898 48.0811 130.252 48.0811C130.618 48.0811 130.936 48.1455 131.208 48.2744C131.484 48.3997 131.717 48.5841 131.907 48.8276C132.1 49.0675 132.252 49.3576 132.363 49.6978C132.474 50.0379 132.551 50.4229 132.594 50.8525V51.3467C132.555 51.7728 132.478 52.1559 132.363 52.4961C132.252 52.8363 132.1 53.1263 131.907 53.3662C131.717 53.6061 131.484 53.7905 131.208 53.9194C130.933 54.0448 130.61 54.1074 130.242 54.1074C129.894 54.1074 129.579 54.034 129.296 53.8872C129.017 53.7404 128.777 53.5345 128.577 53.2695C128.376 53.0046 128.222 52.693 128.115 52.335C128.011 51.9733 127.959 51.5812 127.959 51.1587ZM128.952 51.0459V51.1587C128.952 51.4487 128.981 51.7209 129.038 51.9751C129.099 52.2293 129.191 52.4531 129.312 52.6465C129.438 52.8398 129.597 52.992 129.79 53.103C129.984 53.2104 130.215 53.2642 130.483 53.2642C130.813 53.2642 131.085 53.1943 131.3 53.0547C131.515 52.915 131.685 52.7306 131.81 52.5015C131.939 52.2723 132.039 52.0234 132.111 51.7549V50.4604C132.071 50.2635 132.01 50.0737 131.928 49.8911C131.849 49.7049 131.745 49.5402 131.617 49.397C131.491 49.2502 131.335 49.1338 131.149 49.0479C130.963 48.9619 130.745 48.9189 130.494 48.9189C130.222 48.9189 129.987 48.9762 129.79 49.0908C129.597 49.2018 129.438 49.3558 129.312 49.5527C129.191 49.7461 129.099 49.9717 129.038 50.2295C128.981 50.4837 128.952 50.7559 128.952 51.0459ZM138.196 52.4585C138.196 52.3153 138.163 52.1828 138.099 52.061C138.038 51.9357 137.911 51.8229 137.718 51.7227C137.528 51.6188 137.241 51.5293 136.858 51.4541C136.536 51.3861 136.244 51.3055 135.983 51.2124C135.725 51.1193 135.505 51.0065 135.322 50.874C135.143 50.7415 135.005 50.5858 134.909 50.4067C134.812 50.2277 134.764 50.0182 134.764 49.7783C134.764 49.5492 134.814 49.3325 134.914 49.1284C135.018 48.9243 135.163 48.7435 135.349 48.5859C135.539 48.4284 135.766 48.3049 136.031 48.2153C136.296 48.1258 136.592 48.0811 136.917 48.0811C137.383 48.0811 137.78 48.1634 138.11 48.3281C138.439 48.4928 138.692 48.7131 138.867 48.9888C139.043 49.2609 139.13 49.5635 139.13 49.8965H138.137C138.137 49.7354 138.088 49.5796 137.992 49.4292C137.899 49.2752 137.761 49.1481 137.578 49.0479C137.399 48.9476 137.179 48.8975 136.917 48.8975C136.642 48.8975 136.418 48.9404 136.246 49.0264C136.078 49.1087 135.954 49.2144 135.875 49.3433C135.8 49.4722 135.763 49.6082 135.763 49.7515C135.763 49.8589 135.781 49.9556 135.816 50.0415C135.856 50.1239 135.924 50.2008 136.02 50.2725C136.117 50.3405 136.253 50.4049 136.429 50.4658C136.604 50.5267 136.828 50.5876 137.1 50.6484C137.576 50.7559 137.968 50.8848 138.276 51.0352C138.584 51.1855 138.813 51.37 138.964 51.5884C139.114 51.8068 139.189 52.0718 139.189 52.3833C139.189 52.6375 139.136 52.8703 139.028 53.0815C138.924 53.2928 138.772 53.4754 138.572 53.6294C138.375 53.7798 138.138 53.8979 137.863 53.9839C137.591 54.0662 137.284 54.1074 136.944 54.1074C136.432 54.1074 135.999 54.0161 135.644 53.8335C135.29 53.6509 135.021 53.4146 134.839 53.1245C134.656 52.8345 134.565 52.5283 134.565 52.2061H135.564C135.578 52.4782 135.657 52.6948 135.8 52.856C135.943 53.0135 136.119 53.1263 136.327 53.1943C136.534 53.2588 136.74 53.291 136.944 53.291C137.216 53.291 137.444 53.2552 137.626 53.1836C137.813 53.112 137.954 53.0135 138.051 52.8882C138.147 52.7629 138.196 52.6196 138.196 52.4585Z" fill="#A3AED0"/>
<path d="M98.3735 63.2788V65.1768H97.396V63.2788H98.3735ZM98.2529 73.6445V75.3457H97.2817V73.6445H98.2529ZM99.2114 71.5942C99.2114 71.3488 99.1606 71.1351 99.0591 70.9531C98.9618 70.7669 98.8009 70.5998 98.5767 70.4517C98.3524 70.2993 98.0519 70.1576 97.6753 70.0264C97.1336 69.8359 96.6597 69.6222 96.2534 69.3853C95.8514 69.144 95.5382 68.8478 95.314 68.4966C95.0939 68.1411 94.9839 67.6989 94.9839 67.1699C94.9839 66.6494 95.1024 66.1987 95.3394 65.8179C95.5806 65.437 95.9149 65.1429 96.3423 64.9355C96.7697 64.7282 97.269 64.6245 97.8403 64.6245C98.2804 64.6245 98.6761 64.6901 99.0273 64.8213C99.3828 64.9525 99.6854 65.145 99.9351 65.3989C100.185 65.6528 100.375 65.966 100.506 66.3384C100.642 66.7065 100.709 67.1297 100.709 67.6079H99.186C99.186 67.3371 99.1543 67.0959 99.0908 66.8843C99.0316 66.6685 98.9427 66.4865 98.8242 66.3384C98.7057 66.186 98.5618 66.0697 98.3926 65.9893C98.2275 65.9089 98.0392 65.8687 97.8276 65.8687C97.5272 65.8687 97.2796 65.9258 97.085 66.04C96.8903 66.1501 96.7464 66.3024 96.6533 66.4971C96.5645 66.6917 96.52 66.9139 96.52 67.1636C96.52 67.4048 96.5666 67.6164 96.6597 67.7983C96.7528 67.9803 96.9115 68.1453 97.1357 68.2935C97.3643 68.4373 97.6774 68.5833 98.0752 68.7314C98.6211 68.9261 99.0929 69.144 99.4907 69.3853C99.8927 69.6222 100.202 69.9163 100.417 70.2676C100.638 70.6146 100.748 71.0526 100.748 71.5815C100.748 72.1274 100.621 72.5908 100.367 72.9717C100.117 73.3525 99.7658 73.6424 99.313 73.8413C98.8644 74.036 98.3418 74.1333 97.7451 74.1333C97.3685 74.1333 96.994 74.0846 96.6216 73.9873C96.2534 73.8857 95.9191 73.7207 95.6187 73.4922C95.3182 73.2637 95.0791 72.9611 94.9014 72.5845C94.7236 72.2036 94.6348 71.7381 94.6348 71.188H96.1709C96.1709 71.5181 96.2153 71.7931 96.3042 72.0132C96.3931 72.2332 96.5137 72.4067 96.666 72.5337C96.8184 72.6606 96.9876 72.7516 97.1738 72.8066C97.3643 72.8617 97.5547 72.8892 97.7451 72.8892C98.0625 72.8892 98.3291 72.8363 98.5449 72.7305C98.765 72.6204 98.93 72.4681 99.04 72.2734C99.1543 72.0745 99.2114 71.8481 99.2114 71.5942ZM108.745 64.7578V65.5957L105.051 74H103.438L107.126 65.9766H102.34V64.7578H108.745ZM116.654 64.7578V65.5957L112.959 74H111.347L115.035 65.9766H110.249V64.7578H116.654ZM124.467 71.48C124.467 72.0555 124.334 72.54 124.067 72.9336C123.801 73.3271 123.437 73.6255 122.976 73.8286C122.518 74.0275 122.002 74.127 121.427 74.127C120.851 74.127 120.333 74.0275 119.872 73.8286C119.41 73.6255 119.046 73.3271 118.78 72.9336C118.513 72.54 118.38 72.0555 118.38 71.48C118.38 71.0991 118.454 70.7542 118.602 70.4453C118.75 70.1322 118.96 69.8634 119.23 69.6392C119.505 69.4106 119.827 69.235 120.195 69.1123C120.568 68.9896 120.974 68.9282 121.414 68.9282C121.998 68.9282 122.521 69.0361 122.982 69.252C123.443 69.4678 123.805 69.7661 124.067 70.147C124.334 70.5278 124.467 70.9722 124.467 71.48ZM122.931 71.4038C122.931 71.0949 122.868 70.8241 122.741 70.5913C122.614 70.3586 122.436 70.1787 122.207 70.0518C121.979 69.9248 121.714 69.8613 121.414 69.8613C121.109 69.8613 120.845 69.9248 120.621 70.0518C120.396 70.1787 120.221 70.3586 120.094 70.5913C119.971 70.8241 119.91 71.0949 119.91 71.4038C119.91 71.717 119.971 71.9878 120.094 72.2163C120.216 72.4406 120.392 72.612 120.621 72.7305C120.849 72.849 121.118 72.9082 121.427 72.9082C121.736 72.9082 122.002 72.849 122.227 72.7305C122.451 72.612 122.624 72.4406 122.747 72.2163C122.87 71.9878 122.931 71.717 122.931 71.4038ZM124.258 67.189C124.258 67.6502 124.135 68.0607 123.89 68.4204C123.648 68.7801 123.314 69.0636 122.887 69.271C122.459 69.4741 121.973 69.5757 121.427 69.5757C120.877 69.5757 120.386 69.4741 119.954 69.271C119.527 69.0636 119.19 68.7801 118.945 68.4204C118.704 68.0607 118.583 67.6502 118.583 67.189C118.583 66.6388 118.704 66.1755 118.945 65.7988C119.19 65.418 119.527 65.1281 119.954 64.9292C120.381 64.7303 120.87 64.6309 121.42 64.6309C121.97 64.6309 122.459 64.7303 122.887 64.9292C123.314 65.1281 123.648 65.418 123.89 65.7988C124.135 66.1755 124.258 66.6388 124.258 67.189ZM122.728 67.2397C122.728 66.9647 122.673 66.7235 122.563 66.5161C122.457 66.3045 122.307 66.1395 122.112 66.021C121.918 65.9025 121.687 65.8433 121.42 65.8433C121.154 65.8433 120.923 65.9004 120.728 66.0146C120.534 66.1289 120.384 66.2897 120.278 66.4971C120.172 66.7044 120.119 66.952 120.119 67.2397C120.119 67.5233 120.172 67.7708 120.278 67.9824C120.384 68.1898 120.534 68.3527 120.728 68.4712C120.927 68.5897 121.16 68.6489 121.427 68.6489C121.693 68.6489 121.924 68.5897 122.119 68.4712C122.313 68.3527 122.463 68.1898 122.569 67.9824C122.675 67.7708 122.728 67.5233 122.728 67.2397ZM132.528 72.7812V74H126.333V72.9526L129.342 69.6709C129.672 69.2985 129.932 68.9769 130.122 68.7061C130.313 68.4352 130.446 68.1919 130.522 67.9761C130.603 67.756 130.643 67.5423 130.643 67.335C130.643 67.043 130.588 66.7869 130.478 66.5669C130.372 66.3426 130.216 66.167 130.008 66.04C129.801 65.9089 129.549 65.8433 129.253 65.8433C128.91 65.8433 128.622 65.9173 128.39 66.0654C128.157 66.2135 127.981 66.4188 127.863 66.6812C127.744 66.9393 127.685 67.2355 127.685 67.5698H126.155C126.155 67.0324 126.278 66.5415 126.523 66.0972C126.769 65.6486 127.124 65.2931 127.59 65.0308C128.055 64.7642 128.616 64.6309 129.272 64.6309C129.89 64.6309 130.414 64.7345 130.846 64.9419C131.278 65.1493 131.606 65.4434 131.83 65.8242C132.059 66.2051 132.173 66.6558 132.173 67.1763C132.173 67.464 132.126 67.7497 132.033 68.0332C131.94 68.3167 131.807 68.6003 131.633 68.8838C131.464 69.1631 131.263 69.4445 131.03 69.728C130.797 70.0073 130.541 70.2909 130.262 70.5786L128.263 72.7812H132.528ZM134.394 73.2383C134.394 73.0013 134.474 72.8024 134.635 72.6416C134.796 72.4766 135.014 72.394 135.289 72.394C135.568 72.394 135.786 72.4766 135.943 72.6416C136.104 72.8024 136.184 73.0013 136.184 73.2383C136.184 73.4753 136.104 73.6742 135.943 73.835C135.786 73.9958 135.568 74.0762 135.289 74.0762C135.014 74.0762 134.796 73.9958 134.635 73.835C134.474 73.6742 134.394 73.4753 134.394 73.2383ZM144.746 70.7056V71.9243H138.081L138.031 71.0039L142.017 64.7578H143.242L141.915 67.0303L139.624 70.7056H144.746ZM143.591 64.7578V74H142.061V64.7578H143.591ZM152.312 68.6045V70.1152C152.312 70.8389 152.24 71.4567 152.097 71.9688C151.957 72.4766 151.754 72.8892 151.487 73.2065C151.221 73.5239 150.901 73.7567 150.529 73.9048C150.161 74.0529 149.748 74.127 149.291 74.127C148.927 74.127 148.588 74.0804 148.275 73.9873C147.966 73.8942 147.687 73.7482 147.437 73.5493C147.188 73.3504 146.974 73.0944 146.796 72.7812C146.623 72.4639 146.487 72.0851 146.39 71.645C146.297 71.2049 146.25 70.695 146.25 70.1152V68.6045C146.25 67.8766 146.322 67.263 146.466 66.7637C146.61 66.2601 146.815 65.8517 147.082 65.5386C147.348 65.2212 147.666 64.9906 148.034 64.8467C148.406 64.7028 148.821 64.6309 149.278 64.6309C149.646 64.6309 149.985 64.6774 150.294 64.7705C150.607 64.8594 150.886 65.0011 151.132 65.1958C151.381 65.3905 151.593 65.6444 151.766 65.9575C151.944 66.2664 152.08 66.641 152.173 67.0811C152.266 67.5169 152.312 68.0247 152.312 68.6045ZM150.783 70.3311V68.376C150.783 68.0078 150.761 67.6841 150.719 67.4048C150.677 67.1213 150.613 66.8822 150.529 66.6875C150.448 66.4886 150.347 66.3278 150.224 66.2051C150.101 66.0781 149.962 65.9871 149.805 65.9321C149.648 65.8729 149.473 65.8433 149.278 65.8433C149.041 65.8433 148.83 65.8898 148.643 65.9829C148.457 66.0718 148.301 66.2157 148.174 66.4146C148.047 66.6134 147.949 66.8758 147.882 67.2017C147.818 67.5233 147.786 67.9147 147.786 68.376V70.3311C147.786 70.7035 147.808 71.0314 147.85 71.3149C147.892 71.5985 147.956 71.8418 148.04 72.0449C148.125 72.2438 148.227 72.4089 148.345 72.54C148.468 72.667 148.607 72.7601 148.764 72.8193C148.925 72.8786 149.1 72.9082 149.291 72.9082C149.532 72.9082 149.746 72.8617 149.932 72.7686C150.118 72.6755 150.275 72.5273 150.402 72.3242C150.529 72.1169 150.624 71.8481 150.687 71.5181C150.751 71.188 150.783 70.7923 150.783 70.3311Z" fill="#1D2130"/>
<circle cx="58" cy="59" r="21" fill="#F4F7FE"/>
<line x1="53" y1="65" x2="53" y2="56" stroke="#6B7CFF" stroke-width="2"/>
<line x1="57" y1="65" x2="57" y2="53" stroke="#6B7CFF" stroke-width="2"/>
<line x1="61" y1="65" x2="61" y2="59" stroke="#6B7CFF" stroke-width="2"/>
<defs>
<filter id="filter0_d_1259_739" x="0" y="0" width="252" height="126" filterUnits="userSpaceOnUse" color-interpolation-filters="sRGB">
<feFlood flood-opacity="0" result="BackgroundImageFix"/>
<feColorMatrix in="SourceAlpha" type="matrix" values="0 0 0 0 0 0 0 0 0 0 0 0 0 0 0 0 0 0 127 0" result="hardAlpha"/>
<feOffset dy="4"/>
<feGaussianBlur stdDeviation="12.5"/>
<feComposite in2="hardAlpha" operator="out"/>
<feColorMatrix type="matrix" values="0 0 0 0 0.419608 0 0 0 0 0.486275 0 0 0 0 1 0 0 0 0.21 0"/>
<feBlend mode="normal" in2="BackgroundImageFix" result="effect1_dropShadow_1259_739"/>
<feBlend mode="normal" in="SourceGraphic" in2="effect1_dropShadow_1259_739" result="shape"/>
</filter>
</defs>
</svg>
