<svg width="115" height="97" viewBox="0 0 115 97" fill="none" xmlns="http://www.w3.org/2000/svg">
<rect width="115" height="97" rx="8" fill="white"/>
<path d="M30.5057 19.0491V26.8694H29.4691V19.0491H30.5057ZM33.2289 22.2126V26.8694H32.2299V21.0579H33.1752L33.2289 22.2126ZM33.0248 23.7434L32.5629 23.7273C32.5664 23.3298 32.6184 22.9628 32.7186 22.6262C32.8189 22.2861 32.9675 21.9906 33.1644 21.74C33.3614 21.4893 33.6066 21.296 33.9003 21.1599C34.1939 21.0203 34.5341 20.9504 34.9208 20.9504C35.1929 20.9504 35.4436 20.9898 35.6727 21.0686C35.9019 21.1438 36.1006 21.2638 36.2689 21.4285C36.4372 21.5932 36.5679 21.8044 36.661 22.0623C36.7541 22.3201 36.8007 22.6316 36.8007 22.9968V26.8694H35.807V23.0452C35.807 22.7408 35.7551 22.4973 35.6512 22.3147C35.551 22.1321 35.4078 21.9996 35.2216 21.9172C35.0354 21.8313 34.8169 21.7883 34.5663 21.7883C34.2727 21.7883 34.0274 21.8403 33.8304 21.9441C33.6335 22.0479 33.476 22.1912 33.3578 22.3738C33.2396 22.5564 33.1537 22.7659 33.1 23.0022C33.0498 23.2349 33.0248 23.482 33.0248 23.7434ZM36.7899 23.1956L36.1239 23.3997C36.1275 23.081 36.1794 22.7748 36.2797 22.4812C36.3835 22.1876 36.5321 21.9262 36.7255 21.697C36.9224 21.4679 37.1641 21.287 37.4506 21.1545C37.737 21.0185 38.0647 20.9504 38.4335 20.9504C38.745 20.9504 39.0207 20.9916 39.2606 21.074C39.5041 21.1563 39.7082 21.2834 39.8729 21.4553C40.0412 21.6236 40.1683 21.8403 40.2543 22.1052C40.3402 22.3702 40.3832 22.6853 40.3832 23.0505V26.8694H39.3842V23.0398C39.3842 22.7139 39.3322 22.4615 39.2284 22.2825C39.1281 22.0999 38.9849 21.9727 38.7987 21.9011C38.6161 21.8259 38.3977 21.7883 38.1434 21.7883C37.925 21.7883 37.7316 21.8259 37.5634 21.9011C37.3951 21.9763 37.2536 22.0802 37.139 22.2126C37.0245 22.3416 36.9367 22.4902 36.8759 22.6584C36.8186 22.8267 36.7899 23.0058 36.7899 23.1956ZM42.8807 22.175V29.1038H41.8817V21.0579H42.7948L42.8807 22.175ZM46.7963 23.9153V24.0281C46.7963 24.4506 46.7461 24.8427 46.6459 25.2043C46.5456 25.5624 46.3988 25.8739 46.2054 26.1389C46.0157 26.4039 45.7811 26.6098 45.5018 26.7566C45.2225 26.9034 44.9021 26.9768 44.5404 26.9768C44.1716 26.9768 43.8457 26.9159 43.5629 26.7942C43.28 26.6724 43.0401 26.4952 42.8431 26.2625C42.6462 26.0297 42.4886 25.7504 42.3705 25.4246C42.2559 25.0987 42.1771 24.7317 42.1342 24.3235V23.7219C42.1771 23.2922 42.2577 22.9073 42.3759 22.5671C42.494 22.227 42.6498 21.9369 42.8431 21.697C43.0401 21.4535 43.2782 21.2691 43.5575 21.1438C43.8368 21.0149 44.1591 20.9504 44.5243 20.9504C44.8895 20.9504 45.2136 21.0221 45.4965 21.1653C45.7793 21.3049 46.0175 21.5055 46.2108 21.7668C46.4042 22.0282 46.5492 22.3416 46.6459 22.7068C46.7461 23.0684 46.7963 23.4713 46.7963 23.9153ZM45.7972 24.0281V23.9153C45.7972 23.6252 45.7668 23.3531 45.7059 23.0989C45.6451 22.8411 45.5502 22.6155 45.4213 22.4221C45.2959 22.2252 45.1348 22.0712 44.9379 21.9602C44.7409 21.8456 44.5064 21.7883 44.2343 21.7883C43.9836 21.7883 43.7652 21.8313 43.579 21.9172C43.3964 22.0032 43.2406 22.1195 43.1117 22.2664C42.9828 22.4096 42.8772 22.5743 42.7948 22.7605C42.716 22.9431 42.6569 23.1329 42.6176 23.3298V24.7209C42.6892 24.9716 42.7894 25.2079 42.9183 25.4299C43.0472 25.6484 43.2191 25.8256 43.434 25.9617C43.6488 26.0942 43.9191 26.1604 44.245 26.1604C44.5135 26.1604 44.7445 26.1049 44.9379 25.9939C45.1348 25.8793 45.2959 25.7236 45.4213 25.5266C45.5502 25.3297 45.6451 25.1041 45.7059 24.8499C45.7668 24.592 45.7972 24.3181 45.7972 24.0281ZM49.0575 21.9709V26.8694H48.0638V21.0579H49.0306L49.0575 21.9709ZM50.8729 21.0256L50.8676 21.9495C50.7852 21.9316 50.7064 21.9208 50.6312 21.9172C50.5596 21.9101 50.4773 21.9065 50.3842 21.9065C50.155 21.9065 49.9527 21.9423 49.7772 22.0139C49.6018 22.0855 49.4532 22.1858 49.3314 22.3147C49.2097 22.4436 49.113 22.5976 49.0414 22.7766C48.9733 22.9521 48.9286 23.1454 48.9071 23.3567L48.6278 23.5178C48.6278 23.1669 48.6618 22.8375 48.7299 22.5295C48.8015 22.2216 48.9107 21.9495 49.0575 21.7131C49.2043 21.4732 49.3905 21.287 49.6161 21.1545C49.8453 21.0185 50.1174 20.9504 50.4325 20.9504C50.5041 20.9504 50.5865 20.9594 50.6796 20.9773C50.7727 20.9916 50.8371 21.0077 50.8729 21.0256ZM54.0956 26.9768C53.691 26.9768 53.3239 26.9088 52.9945 26.7727C52.6687 26.6331 52.3876 26.4379 52.1512 26.1873C51.9185 25.9366 51.7395 25.6394 51.6141 25.2957C51.4888 24.9519 51.4261 24.5759 51.4261 24.1677V23.9421C51.4261 23.4695 51.496 23.0487 51.6356 22.6799C51.7753 22.3075 51.965 21.9924 52.205 21.7346C52.4449 21.4768 52.717 21.2817 53.0214 21.1492C53.3257 21.0167 53.6408 20.9504 53.9667 20.9504C54.382 20.9504 54.7401 21.0221 55.0409 21.1653C55.3453 21.3085 55.5941 21.509 55.7875 21.7668C55.9808 22.0211 56.1241 22.3219 56.2172 22.6692C56.3103 23.0129 56.3568 23.3889 56.3568 23.7971V24.2429H52.017V23.4319H55.3632V23.3567C55.3488 23.0989 55.2951 22.8482 55.202 22.6047C55.1125 22.3612 54.9693 22.1607 54.7723 22.0032C54.5754 21.8456 54.3068 21.7668 53.9667 21.7668C53.7411 21.7668 53.5334 21.8152 53.3436 21.9119C53.1538 22.005 52.9909 22.1446 52.8549 22.3308C52.7188 22.517 52.6132 22.7444 52.538 23.0129C52.4628 23.2815 52.4252 23.5912 52.4252 23.9421V24.1677C52.4252 24.4434 52.4628 24.703 52.538 24.9465C52.6167 25.1864 52.7295 25.3977 52.8763 25.5803C53.0267 25.7629 53.2076 25.9062 53.4188 26.01C53.6337 26.1139 53.8772 26.1658 54.1493 26.1658C54.5002 26.1658 54.7974 26.0942 55.0409 25.9509C55.2844 25.8077 55.4974 25.6161 55.6801 25.3762L56.2816 25.8542C56.1563 26.044 55.9969 26.2249 55.8036 26.3967C55.6102 26.5686 55.3721 26.7083 55.0892 26.8157C54.8099 26.9231 54.4787 26.9768 54.0956 26.9768ZM60.9008 25.3279C60.9008 25.1847 60.8685 25.0522 60.8041 24.9304C60.7432 24.8051 60.6161 24.6923 60.4227 24.592C60.233 24.4882 59.9465 24.3987 59.5634 24.3235C59.2411 24.2555 58.9493 24.1749 58.6879 24.0818C58.4301 23.9887 58.2098 23.8759 58.0272 23.7434C57.8482 23.6109 57.7103 23.4552 57.6136 23.2761C57.517 23.0971 57.4686 22.8876 57.4686 22.6477C57.4686 22.4185 57.5188 22.2019 57.619 21.9978C57.7229 21.7937 57.8679 21.6129 58.0541 21.4553C58.2439 21.2978 58.4712 21.1742 58.7362 21.0847C59.0012 20.9952 59.2966 20.9504 59.6224 20.9504C60.0879 20.9504 60.4854 21.0328 60.8148 21.1975C61.1442 21.3622 61.3967 21.5824 61.5721 21.8582C61.7476 22.1303 61.8353 22.4329 61.8353 22.7659H60.8417C60.8417 22.6047 60.7933 22.449 60.6967 22.2986C60.6036 22.1446 60.4657 22.0175 60.2831 21.9172C60.104 21.817 59.8838 21.7668 59.6224 21.7668C59.3467 21.7668 59.1229 21.8098 58.951 21.8958C58.7828 21.9781 58.6592 22.0837 58.5804 22.2126C58.5052 22.3416 58.4677 22.4776 58.4677 22.6208C58.4677 22.7283 58.4856 22.825 58.5214 22.9109C58.5608 22.9932 58.6288 23.0702 58.7255 23.1418C58.8221 23.2099 58.9582 23.2743 59.1337 23.3352C59.3091 23.3961 59.5329 23.4569 59.8051 23.5178C60.2813 23.6252 60.6734 23.7542 60.9813 23.9045C61.2893 24.0549 61.5184 24.2393 61.6688 24.4578C61.8192 24.6762 61.8944 24.9412 61.8944 25.2527C61.8944 25.5069 61.8407 25.7397 61.7333 25.9509C61.6294 26.1622 61.4773 26.3448 61.2767 26.4988C61.0798 26.6492 60.8435 26.7673 60.5677 26.8533C60.2956 26.9356 59.9895 26.9768 59.6493 26.9768C59.1372 26.9768 58.704 26.8855 58.3495 26.7029C57.995 26.5203 57.7264 26.2839 57.5438 25.9939C57.3612 25.7039 57.2699 25.3977 57.2699 25.0754H58.2689C58.2832 25.3476 58.362 25.5642 58.5052 25.7253C58.6485 25.8829 58.8239 25.9957 59.0316 26.0637C59.2393 26.1282 59.4452 26.1604 59.6493 26.1604C59.9214 26.1604 60.1488 26.1246 60.3314 26.053C60.5176 25.9814 60.6591 25.8829 60.7557 25.7576C60.8524 25.6322 60.9008 25.489 60.9008 25.3279ZM66.5834 25.3279C66.5834 25.1847 66.5511 25.0522 66.4867 24.9304C66.4258 24.8051 66.2987 24.6923 66.1053 24.592C65.9156 24.4882 65.6291 24.3987 65.246 24.3235C64.9237 24.2555 64.6319 24.1749 64.3705 24.0818C64.1127 23.9887 63.8925 23.8759 63.7098 23.7434C63.5308 23.6109 63.3929 23.4552 63.2963 23.2761C63.1996 23.0971 63.1512 22.8876 63.1512 22.6477C63.1512 22.4185 63.2014 22.2019 63.3016 21.9978C63.4055 21.7937 63.5505 21.6129 63.7367 21.4553C63.9265 21.2978 64.1538 21.1742 64.4188 21.0847C64.6838 20.9952 64.9792 20.9504 65.3051 20.9504C65.7705 20.9504 66.168 21.0328 66.4974 21.1975C66.8269 21.3622 67.0793 21.5824 67.2548 21.8582C67.4302 22.1303 67.5179 22.4329 67.5179 22.7659H66.5243C66.5243 22.6047 66.476 22.449 66.3793 22.2986C66.2862 22.1446 66.1483 22.0175 65.9657 21.9172C65.7867 21.817 65.5664 21.7668 65.3051 21.7668C65.0293 21.7668 64.8055 21.8098 64.6337 21.8958C64.4654 21.9781 64.3418 22.0837 64.2631 22.2126C64.1879 22.3416 64.1503 22.4776 64.1503 22.6208C64.1503 22.7283 64.1682 22.825 64.204 22.9109C64.2434 22.9932 64.3114 23.0702 64.4081 23.1418C64.5048 23.2099 64.6408 23.2743 64.8163 23.3352C64.9917 23.3961 65.2155 23.4569 65.4877 23.5178C65.9639 23.6252 66.356 23.7542 66.6639 23.9045C66.9719 24.0549 67.201 24.2393 67.3514 24.4578C67.5018 24.6762 67.577 24.9412 67.577 25.2527C67.577 25.5069 67.5233 25.7397 67.4159 25.9509C67.3121 26.1622 67.1599 26.3448 66.9594 26.4988C66.7624 26.6492 66.5261 26.7673 66.2504 26.8533C65.9782 26.9356 65.6721 26.9768 65.3319 26.9768C64.8199 26.9768 64.3866 26.8855 64.0321 26.7029C63.6776 26.5203 63.4091 26.2839 63.2264 25.9939C63.0438 25.7039 62.9525 25.3977 62.9525 25.0754H63.9515C63.9659 25.3476 64.0446 25.5642 64.1879 25.7253C64.3311 25.8829 64.5066 25.9957 64.7142 26.0637C64.9219 26.1282 65.1278 26.1604 65.3319 26.1604C65.604 26.1604 65.8314 26.1246 66.014 26.053C66.2002 25.9814 66.3417 25.8829 66.4384 25.7576C66.535 25.6322 66.5834 25.489 66.5834 25.3279ZM69.9618 21.0579V26.8694H68.9628V21.0579H69.9618ZM68.8876 19.5164C68.8876 19.3552 68.9359 19.2192 69.0326 19.1082C69.1329 18.9972 69.2797 18.9417 69.473 18.9417C69.6628 18.9417 69.8078 18.9972 69.9081 19.1082C70.0119 19.2192 70.0638 19.3552 70.0638 19.5164C70.0638 19.6703 70.0119 19.8028 69.9081 19.9138C69.8078 20.0212 69.6628 20.075 69.473 20.075C69.2797 20.075 69.1329 20.0212 69.0326 19.9138C68.9359 19.8028 68.8876 19.6703 68.8876 19.5164ZM71.2938 24.0281V23.9045C71.2938 23.4856 71.3547 23.0971 71.4764 22.739C71.5982 22.3774 71.7736 22.064 72.0028 21.7991C72.232 21.5305 72.5095 21.3228 72.8353 21.176C73.1612 21.0256 73.5264 20.9504 73.931 20.9504C74.3392 20.9504 74.7063 21.0256 75.0321 21.176C75.3615 21.3228 75.6408 21.5305 75.87 21.7991C76.1027 22.064 76.28 22.3774 76.4017 22.739C76.5235 23.0971 76.5844 23.4856 76.5844 23.9045V24.0281C76.5844 24.447 76.5235 24.8355 76.4017 25.1936C76.28 25.5517 76.1027 25.865 75.87 26.1335C75.6408 26.3985 75.3633 26.6062 75.0375 26.7566C74.7152 26.9034 74.35 26.9768 73.9418 26.9768C73.5336 26.9768 73.1665 26.9034 72.8407 26.7566C72.5149 26.6062 72.2356 26.3985 72.0028 26.1335C71.7736 25.865 71.5982 25.5517 71.4764 25.1936C71.3547 24.8355 71.2938 24.447 71.2938 24.0281ZM72.2875 23.9045V24.0281C72.2875 24.3181 72.3215 24.592 72.3895 24.8499C72.4576 25.1041 72.5596 25.3297 72.6957 25.5266C72.8353 25.7236 73.009 25.8793 73.2167 25.9939C73.4244 26.1049 73.6661 26.1604 73.9418 26.1604C74.2139 26.1604 74.452 26.1049 74.6561 25.9939C74.8638 25.8793 75.0357 25.7236 75.1718 25.5266C75.3078 25.3297 75.4099 25.1041 75.4779 24.8499C75.5495 24.592 75.5853 24.3181 75.5853 24.0281V23.9045C75.5853 23.6181 75.5495 23.3477 75.4779 23.0935C75.4099 22.8357 75.306 22.6083 75.1664 22.4114C75.0303 22.2109 74.8584 22.0533 74.6508 21.9387C74.4467 21.8241 74.2067 21.7668 73.931 21.7668C73.6589 21.7668 73.419 21.8241 73.2113 21.9387C73.0072 22.0533 72.8353 22.2109 72.6957 22.4114C72.5596 22.6083 72.4576 22.8357 72.3895 23.0935C72.3215 23.3477 72.2875 23.6181 72.2875 23.9045ZM78.8241 22.2986V26.8694H77.8304V21.0579H78.7704L78.8241 22.2986ZM78.5878 23.7434L78.1742 23.7273C78.1778 23.3298 78.2369 22.9628 78.3514 22.6262C78.466 22.2861 78.6272 21.9906 78.8348 21.74C79.0425 21.4893 79.2896 21.296 79.576 21.1599C79.8661 21.0203 80.1866 20.9504 80.5375 20.9504C80.8239 20.9504 81.0817 20.9898 81.3109 21.0686C81.5401 21.1438 81.7352 21.2655 81.8964 21.4338C82.0611 21.6021 82.1864 21.8206 82.2723 22.0891C82.3583 22.3541 82.4012 22.6781 82.4012 23.0613V26.8694H81.4022V23.0505C81.4022 22.7462 81.3575 22.5027 81.2679 22.3201C81.1784 22.1339 81.0477 21.9996 80.8759 21.9172C80.704 21.8313 80.4927 21.7883 80.2421 21.7883C79.995 21.7883 79.7694 21.8403 79.5653 21.9441C79.3648 22.0479 79.1911 22.1912 79.0443 22.3738C78.9011 22.5564 78.7883 22.7659 78.7059 23.0022C78.6272 23.2349 78.5878 23.482 78.5878 23.7434Z" fill="#97A0C3"/>
<path d="M59.8517 63.9827H61.6798C62.3907 63.9827 62.979 63.8599 63.4445 63.6145C63.9184 63.3691 64.2697 63.0305 64.4982 62.5989C64.7267 62.1672 64.8409 61.6721 64.8409 61.1135C64.8409 60.5295 64.7351 60.0302 64.5236 59.6155C64.3204 59.1923 64.0073 58.8665 63.5841 58.6379C63.1694 58.4094 62.6404 58.2952 61.9972 58.2952C61.4555 58.2952 60.9646 58.4052 60.5245 58.6252C60.0929 58.8368 59.7501 59.1415 59.4962 59.5393C59.2423 59.9286 59.1154 60.3941 59.1154 60.9358H56.0431C56.0431 59.954 56.3012 59.0823 56.8175 58.3206C57.3338 57.5588 58.0363 56.9622 58.9249 56.5305C59.8221 56.0904 60.8292 55.8704 61.9464 55.8704C63.1398 55.8704 64.1808 56.0693 65.0695 56.467C65.9666 56.8564 66.6648 57.4403 67.1642 58.219C67.6635 58.9976 67.9132 59.9625 67.9132 61.1135C67.9132 61.6383 67.7905 62.1715 67.545 62.7131C67.2996 63.2548 66.9357 63.7499 66.4532 64.1985C65.9708 64.6386 65.3699 64.9983 64.6505 65.2776C63.9311 65.5484 63.0975 65.6838 62.1495 65.6838H59.8517V63.9827ZM59.8517 66.3694V64.6936H62.1495C63.2329 64.6936 64.1554 64.8206 64.9171 65.0745C65.6873 65.3284 66.3136 65.6796 66.796 66.1282C67.2784 66.5683 67.6297 67.0719 67.8497 67.6389C68.0782 68.206 68.1925 68.8069 68.1925 69.4417C68.1925 70.3049 68.0359 71.0751 67.7228 71.7522C67.4181 72.4208 66.9822 72.9879 66.4152 73.4534C65.8481 73.9189 65.1837 74.2701 64.422 74.5071C63.6687 74.7441 62.8478 74.8625 61.9591 74.8625C61.1635 74.8625 60.4018 74.7525 59.674 74.5325C58.9461 74.3124 58.2944 73.9866 57.7189 73.5549C57.1434 73.1148 56.6863 72.5689 56.3478 71.9172C56.0177 71.2571 55.8527 70.4954 55.8527 69.6321H58.9122C58.9122 70.1822 59.0392 70.6689 59.2931 71.092C59.5555 71.5068 59.9194 71.8326 60.3849 72.0696C60.8588 72.3066 61.4005 72.425 62.0099 72.425C62.6531 72.425 63.2075 72.3108 63.673 72.0823C64.1385 71.8538 64.4939 71.5152 64.7394 71.0667C64.9933 70.6181 65.1202 70.0764 65.1202 69.4417C65.1202 68.7222 64.9806 68.1383 64.7013 67.6897C64.422 67.2411 64.0242 66.9111 63.5079 66.6995C62.9917 66.4794 62.3823 66.3694 61.6798 66.3694H59.8517ZM83.4269 72.1711V74.6086H71.0363V72.5139L77.0538 65.9504C77.714 65.2056 78.2345 64.5624 78.6154 64.0208C78.9962 63.4791 79.2628 62.9924 79.4152 62.5608C79.576 62.1207 79.6564 61.6933 79.6564 61.2786C79.6564 60.6946 79.5463 60.1825 79.3263 59.7424C79.1147 59.2939 78.8016 58.9426 78.3868 58.6887C77.9721 58.4264 77.4685 58.2952 76.8761 58.2952C76.1906 58.2952 75.615 58.4433 75.1495 58.7395C74.684 59.0357 74.3328 59.4462 74.0958 59.9709C73.8588 60.4872 73.7404 61.0797 73.7404 61.7483H70.6808C70.6808 60.6734 70.9262 59.6917 71.4171 58.803C71.908 57.9058 72.6189 57.1949 73.5499 56.6702C74.4809 56.137 75.6023 55.8704 76.9142 55.8704C78.1499 55.8704 79.1993 56.0777 80.0626 56.4924C80.9259 56.9071 81.5818 57.4954 82.0304 58.2571C82.4874 59.0188 82.7159 59.9202 82.7159 60.9612C82.7159 61.5367 82.6228 62.108 82.4366 62.675C82.2504 63.2421 81.9838 63.8092 81.6368 64.3762C81.2983 64.9348 80.8963 65.4976 80.4308 66.0647C79.9653 66.6233 79.4532 67.1903 78.8947 67.7659L74.8956 72.1711H83.4269ZM89.4825 56.1243V74.6086H86.296V56.1243H89.4825ZM100.591 56.1243L93.1007 65.0237L88.8351 69.5432L88.2765 66.3821L91.3234 62.6243L96.7062 56.1243H100.591ZM97.1632 74.6086L91.0822 65.8489L93.2784 63.678L100.946 74.6086H97.1632Z" fill="black"/>
<path d="M12.6605 66.424C12.6605 62.879 13.7125 59.4136 15.6833 56.466C17.6541 53.5184 20.4553 51.2211 23.7326 49.8645C27.0099 48.5078 30.6162 48.1529 34.0954 48.8445C37.5746 49.5361 40.7705 51.2432 43.2788 53.7499C45.7872 56.2566 47.4954 59.4503 48.1875 62.9272C48.8795 66.4041 48.5243 70.008 47.1668 73.2832C45.8093 76.5583 43.5104 79.3577 40.5609 81.3272C37.6114 83.2967 34.1437 84.3479 30.5963 84.3479L30.5963 66.424L12.6605 66.424Z" fill="#6B7CFF"/>
<path d="M48.5321 66.4239C48.5321 69.9689 47.4802 73.4343 45.5094 76.3819C43.5385 79.3295 40.7374 81.6268 37.46 82.9835C34.1827 84.3401 30.5764 84.695 27.0972 84.0034C23.618 83.3118 20.4221 81.6047 17.9138 79.098C15.4054 76.5913 13.6972 73.3976 13.0051 69.9207C12.3131 66.4438 12.6683 62.8399 14.0258 59.5647C15.3833 56.2896 17.6822 53.4902 20.6317 51.5207C23.5812 49.5512 27.0489 48.5 30.5963 48.5L30.5963 66.4239L48.5321 66.4239Z" fill="#E0E4FC"/>
</svg>
