<svg width="200" height="76" viewBox="0 0 200 76" fill="none" xmlns="http://www.w3.org/2000/svg">
<rect width="200" height="76" rx="8" fill="white"/>
<circle cx="34" cy="38" r="21" fill="#6B7CFF"/>
<path d="M34.4545 33.8182C34.4545 31.7086 32.7459 30 30.6364 30C28.5268 30 26.8182 31.7086 26.8182 33.8182C26.8182 35.9277 28.5268 37.6364 30.6364 37.6364C32.7459 37.6364 34.4545 35.9277 34.4545 33.8182ZM36.3636 35.7273V37.6364H39.2273V40.5H41.1364V37.6364H44V35.7273H41.1364V32.8636H39.2273V35.7273H36.3636ZM23 43.3636V45.2727H38.2727V43.3636C38.2727 40.8245 33.185 39.5455 30.6364 39.5455C28.0877 39.5455 23 40.8245 23 43.3636Z" fill="#E0E4FC"/>
<path d="M75.9233 25.1797V33H74.8813L70.9443 26.9683V33H69.9077V25.1797H70.9443L74.8975 31.2275V25.1797H75.9233ZM80.4615 33.1074C80.0569 33.1074 79.6898 33.0394 79.3604 32.9033C79.0346 32.7637 78.7535 32.5685 78.5171 32.3179C78.2844 32.0672 78.1054 31.77 77.98 31.4263C77.8547 31.0825 77.7921 30.7065 77.7921 30.2983V30.0728C77.7921 29.6001 77.8619 29.1794 78.0015 28.8105C78.1412 28.4382 78.331 28.123 78.5709 27.8652C78.8108 27.6074 79.0829 27.4123 79.3873 27.2798C79.6916 27.1473 80.0067 27.0811 80.3326 27.0811C80.7479 27.0811 81.106 27.1527 81.4068 27.2959C81.7112 27.4391 81.96 27.6396 82.1534 27.8975C82.3467 28.1517 82.49 28.4525 82.5831 28.7998C82.6762 29.1436 82.7227 29.5195 82.7227 29.9277V30.3735H78.3829V29.5625H81.7291V29.4873C81.7147 29.2295 81.661 28.9788 81.5679 28.7354C81.4784 28.4919 81.3352 28.2913 81.1382 28.1338C80.9413 27.9762 80.6727 27.8975 80.3326 27.8975C80.107 27.8975 79.8993 27.9458 79.7095 28.0425C79.5198 28.1356 79.3568 28.2752 79.2208 28.4614C79.0847 28.6476 78.9791 28.875 78.9039 29.1436C78.8287 29.4121 78.7911 29.7218 78.7911 30.0728V30.2983C78.7911 30.5741 78.8287 30.8337 78.9039 31.0771C78.9826 31.3171 79.0954 31.5283 79.2422 31.7109C79.3926 31.8936 79.5735 32.0368 79.7847 32.1406C79.9996 32.2445 80.2431 32.2964 80.5152 32.2964C80.8661 32.2964 81.1633 32.2248 81.4068 32.0815C81.6503 31.9383 81.8633 31.7467 82.046 31.5068L82.6475 31.9849C82.5222 32.1746 82.3629 32.3555 82.1695 32.5273C81.9761 32.6992 81.738 32.8389 81.4551 32.9463C81.1758 33.0537 80.8446 33.1074 80.4615 33.1074ZM85.7946 31.9688L87.2877 27.1885H87.943L87.8141 28.1392L86.2941 33H85.6549L85.7946 31.9688ZM84.7902 27.1885L86.0631 32.0225L86.1544 33H85.483L83.7965 27.1885H84.7902ZM89.3717 31.9849L90.5856 27.1885H91.5738L89.8873 33H89.2213L89.3717 31.9849ZM88.088 27.1885L89.5489 31.8882L89.7154 33H89.0817L87.5187 28.1284L87.3898 27.1885H88.088ZM101.074 30.5132H102.106C102.052 31.0073 101.911 31.4495 101.681 31.8398C101.452 32.2301 101.128 32.5399 100.709 32.769C100.29 32.9946 99.7675 33.1074 99.1409 33.1074C98.6825 33.1074 98.2654 33.0215 97.8894 32.8496C97.517 32.6777 97.1965 32.4342 96.928 32.1191C96.6594 31.8005 96.4517 31.4191 96.3049 30.9751C96.1617 30.5275 96.0901 30.0298 96.0901 29.4819V28.7031C96.0901 28.1553 96.1617 27.6593 96.3049 27.2153C96.4517 26.7677 96.6612 26.3846 96.9333 26.0659C97.2091 25.7472 97.5403 25.502 97.927 25.3301C98.3137 25.1582 98.7488 25.0723 99.2322 25.0723C99.823 25.0723 100.323 25.1833 100.731 25.4053C101.139 25.6273 101.456 25.9352 101.681 26.3291C101.911 26.7194 102.052 27.1724 102.106 27.688H101.074C101.024 27.3228 100.931 27.0094 100.795 26.748C100.659 26.4831 100.466 26.279 100.215 26.1357C99.9644 25.9925 99.6368 25.9209 99.2322 25.9209C98.8848 25.9209 98.5787 25.9871 98.3137 26.1196C98.0523 26.2521 97.8321 26.4401 97.6531 26.6836C97.4776 26.9271 97.3451 27.2189 97.2556 27.5591C97.1661 27.8993 97.1213 28.277 97.1213 28.6924V29.4819C97.1213 29.8651 97.1607 30.2249 97.2395 30.5615C97.3218 30.8981 97.4454 31.1935 97.6101 31.4478C97.7748 31.702 97.9843 31.9025 98.2385 32.0493C98.4927 32.1925 98.7935 32.2642 99.1409 32.2642C99.5813 32.2642 99.9322 32.1943 100.194 32.0547C100.455 31.915 100.652 31.7145 100.784 31.4531C100.92 31.1917 101.017 30.8784 101.074 30.5132ZM104.888 24.75V33H103.888V24.75H104.888ZM108.002 27.1885V33H107.003V27.1885H108.002ZM106.928 25.647C106.928 25.4858 106.976 25.3498 107.073 25.2388C107.173 25.1278 107.32 25.0723 107.514 25.0723C107.703 25.0723 107.848 25.1278 107.949 25.2388C108.052 25.3498 108.104 25.4858 108.104 25.647C108.104 25.8009 108.052 25.9334 107.949 26.0444C107.848 26.1519 107.703 26.2056 107.514 26.2056C107.32 26.2056 107.173 26.1519 107.073 26.0444C106.976 25.9334 106.928 25.8009 106.928 25.647ZM112.449 33.1074C112.045 33.1074 111.677 33.0394 111.348 32.9033C111.022 32.7637 110.741 32.5685 110.505 32.3179C110.272 32.0672 110.093 31.77 109.968 31.4263C109.842 31.0825 109.78 30.7065 109.78 30.2983V30.0728C109.78 29.6001 109.85 29.1794 109.989 28.8105C110.129 28.4382 110.319 28.123 110.559 27.8652C110.798 27.6074 111.071 27.4123 111.375 27.2798C111.679 27.1473 111.994 27.0811 112.32 27.0811C112.736 27.0811 113.094 27.1527 113.394 27.2959C113.699 27.4391 113.948 27.6396 114.141 27.8975C114.334 28.1517 114.478 28.4525 114.571 28.7998C114.664 29.1436 114.71 29.5195 114.71 29.9277V30.3735H110.371V29.5625H113.717V29.4873C113.702 29.2295 113.649 28.9788 113.556 28.7354C113.466 28.4919 113.323 28.2913 113.126 28.1338C112.929 27.9762 112.66 27.8975 112.32 27.8975C112.095 27.8975 111.887 27.9458 111.697 28.0425C111.507 28.1356 111.344 28.2752 111.208 28.4614C111.072 28.6476 110.967 28.875 110.892 29.1436C110.816 29.4121 110.779 29.7218 110.779 30.0728V30.2983C110.779 30.5741 110.816 30.8337 110.892 31.0771C110.97 31.3171 111.083 31.5283 111.23 31.7109C111.38 31.8936 111.561 32.0368 111.772 32.1406C111.987 32.2445 112.231 32.2964 112.503 32.2964C112.854 32.2964 113.151 32.2248 113.394 32.0815C113.638 31.9383 113.851 31.7467 114.034 31.5068L114.635 31.9849C114.51 32.1746 114.351 32.3555 114.157 32.5273C113.964 32.6992 113.726 32.8389 113.443 32.9463C113.163 33.0537 112.832 33.1074 112.449 33.1074ZM117.304 28.4292V33H116.311V27.1885H117.25L117.304 28.4292ZM117.068 29.874L116.654 29.8579C116.658 29.4604 116.717 29.0934 116.832 28.7568C116.946 28.4167 117.107 28.1213 117.315 27.8706C117.523 27.62 117.77 27.4266 118.056 27.2905C118.346 27.1509 118.667 27.0811 119.018 27.0811C119.304 27.0811 119.562 27.1204 119.791 27.1992C120.02 27.2744 120.215 27.3962 120.376 27.5645C120.541 27.7327 120.666 27.9512 120.752 28.2197C120.838 28.4847 120.881 28.8088 120.881 29.1919V33H119.882V29.1812C119.882 28.8768 119.838 28.6333 119.748 28.4507C119.659 28.2645 119.528 28.1302 119.356 28.0479C119.184 27.9619 118.973 27.9189 118.722 27.9189C118.475 27.9189 118.249 27.9709 118.045 28.0747C117.845 28.1785 117.671 28.3218 117.524 28.5044C117.381 28.687 117.268 28.8965 117.186 29.1328C117.107 29.3656 117.068 29.6126 117.068 29.874ZM125.264 27.1885V27.9512H122.122V27.1885H125.264ZM123.185 25.7759H124.179V31.5605C124.179 31.7575 124.209 31.9061 124.27 32.0063C124.331 32.1066 124.41 32.1729 124.506 32.2051C124.603 32.2373 124.707 32.2534 124.818 32.2534C124.9 32.2534 124.986 32.2463 125.076 32.2319C125.169 32.214 125.239 32.1997 125.285 32.189L125.291 33C125.212 33.0251 125.108 33.0483 124.979 33.0698C124.854 33.0949 124.702 33.1074 124.522 33.1074C124.279 33.1074 124.055 33.0591 123.851 32.9624C123.647 32.8657 123.484 32.7046 123.362 32.479C123.244 32.2498 123.185 31.9419 123.185 31.5552V25.7759ZM130.253 31.4585C130.253 31.3153 130.221 31.1828 130.156 31.061C130.095 30.9357 129.968 30.8229 129.775 30.7227C129.585 30.6188 129.299 30.5293 128.916 30.4541C128.593 30.3861 128.302 30.3055 128.04 30.2124C127.782 30.1193 127.562 30.0065 127.379 29.874C127.2 29.7415 127.063 29.5858 126.966 29.4067C126.869 29.2277 126.821 29.0182 126.821 28.7783C126.821 28.5492 126.871 28.3325 126.971 28.1284C127.075 27.9243 127.22 27.7435 127.406 27.5859C127.596 27.4284 127.824 27.3049 128.088 27.2153C128.353 27.1258 128.649 27.0811 128.975 27.0811C129.44 27.0811 129.838 27.1634 130.167 27.3281C130.497 27.4928 130.749 27.7131 130.924 27.9888C131.1 28.2609 131.188 28.5635 131.188 28.8965H130.194C130.194 28.7354 130.146 28.5796 130.049 28.4292C129.956 28.2752 129.818 28.1481 129.635 28.0479C129.456 27.9476 129.236 27.8975 128.975 27.8975C128.699 27.8975 128.475 27.9404 128.303 28.0264C128.135 28.1087 128.011 28.2144 127.933 28.3433C127.858 28.4722 127.82 28.6082 127.82 28.7515C127.82 28.8589 127.838 28.9556 127.874 29.0415C127.913 29.1239 127.981 29.2008 128.078 29.2725C128.174 29.3405 128.31 29.4049 128.486 29.4658C128.661 29.5267 128.885 29.5876 129.157 29.6484C129.634 29.7559 130.026 29.8848 130.334 30.0352C130.642 30.1855 130.871 30.37 131.021 30.5884C131.171 30.8068 131.247 31.0718 131.247 31.3833C131.247 31.6375 131.193 31.8703 131.086 32.0815C130.982 32.2928 130.83 32.4754 130.629 32.6294C130.432 32.7798 130.196 32.8979 129.92 32.9839C129.648 33.0662 129.342 33.1074 129.002 33.1074C128.49 33.1074 128.056 33.0161 127.702 32.8335C127.347 32.6509 127.079 32.4146 126.896 32.1245C126.713 31.8345 126.622 31.5283 126.622 31.2061H127.621C127.636 31.4782 127.714 31.6948 127.858 31.856C128.001 32.0135 128.176 32.1263 128.384 32.1943C128.592 32.2588 128.797 32.291 129.002 32.291C129.274 32.291 129.501 32.2552 129.684 32.1836C129.87 32.112 130.011 32.0135 130.108 31.8882C130.205 31.7629 130.253 31.6196 130.253 31.4585Z" fill="#A3AED0"/>
<path d="M71.4946 47.687H72.4087C72.7642 47.687 73.0583 47.6257 73.291 47.5029C73.528 47.3802 73.7036 47.2109 73.8179 46.9951C73.9321 46.7793 73.9893 46.5317 73.9893 46.2524C73.9893 45.9604 73.9364 45.7108 73.8306 45.5034C73.729 45.2918 73.5724 45.1289 73.3608 45.0146C73.1535 44.9004 72.889 44.8433 72.5674 44.8433C72.2965 44.8433 72.0511 44.8983 71.8311 45.0083C71.6152 45.1141 71.4438 45.2664 71.3169 45.4653C71.1899 45.66 71.1265 45.8927 71.1265 46.1636H69.5903C69.5903 45.6727 69.7194 45.2368 69.9775 44.856C70.2357 44.4751 70.5869 44.1768 71.0312 43.9609C71.4798 43.7409 71.9834 43.6309 72.542 43.6309C73.1387 43.6309 73.6592 43.7303 74.1035 43.9292C74.5521 44.1239 74.9012 44.4159 75.1509 44.8052C75.4006 45.1945 75.5254 45.6769 75.5254 46.2524C75.5254 46.5148 75.464 46.7814 75.3413 47.0522C75.2186 47.3231 75.0366 47.5706 74.7954 47.7949C74.5542 48.015 74.2537 48.1948 73.894 48.3345C73.5343 48.4699 73.1175 48.5376 72.6436 48.5376H71.4946V47.687ZM71.4946 48.8804V48.0425H72.6436C73.1852 48.0425 73.6465 48.106 74.0273 48.2329C74.4124 48.3599 74.7256 48.5355 74.9668 48.7598C75.208 48.9798 75.3836 49.2316 75.4937 49.5151C75.6079 49.7987 75.665 50.0991 75.665 50.4165C75.665 50.8481 75.5868 51.2332 75.4302 51.5718C75.2778 51.9061 75.0599 52.1896 74.7764 52.4224C74.4928 52.6551 74.1606 52.8307 73.7798 52.9492C73.4032 53.0677 72.9927 53.127 72.5483 53.127C72.1506 53.127 71.7697 53.0719 71.4058 52.9619C71.0418 52.8519 70.716 52.689 70.4282 52.4731C70.1405 52.2531 69.9119 51.9801 69.7427 51.6543C69.5776 51.3242 69.4951 50.9434 69.4951 50.5117H71.0249C71.0249 50.7868 71.0884 51.0301 71.2153 51.2417C71.3465 51.4491 71.5285 51.612 71.7612 51.7305C71.9982 51.849 72.269 51.9082 72.5737 51.9082C72.8953 51.9082 73.1725 51.8511 73.4053 51.7368C73.638 51.6226 73.8158 51.4533 73.9385 51.229C74.0654 51.0047 74.1289 50.7339 74.1289 50.4165C74.1289 50.0568 74.0591 49.7648 73.9194 49.5405C73.7798 49.3162 73.5809 49.1512 73.3228 49.0454C73.0646 48.9354 72.7599 48.8804 72.4087 48.8804H71.4946ZM83.8022 51.7812V53H77.6069V51.9526L80.6157 48.6709C80.9458 48.2985 81.206 47.9769 81.3965 47.7061C81.5869 47.4352 81.7202 47.1919 81.7964 46.9761C81.8768 46.756 81.917 46.5423 81.917 46.335C81.917 46.043 81.862 45.7869 81.7519 45.5669C81.6461 45.3426 81.4896 45.167 81.2822 45.04C81.0749 44.9089 80.8231 44.8433 80.5268 44.8433C80.1841 44.8433 79.8963 44.9173 79.6636 45.0654C79.4308 45.2135 79.2552 45.4188 79.1367 45.6812C79.0182 45.9393 78.959 46.2355 78.959 46.5698H77.4292C77.4292 46.0324 77.5519 45.5415 77.7973 45.0972C78.0428 44.6486 78.3983 44.2931 78.8637 44.0308C79.3292 43.7642 79.89 43.6309 80.5459 43.6309C81.1637 43.6309 81.6885 43.7345 82.1201 43.9419C82.5517 44.1493 82.8797 44.4434 83.104 44.8242C83.3325 45.2051 83.4468 45.6558 83.4468 46.1763C83.4468 46.464 83.4002 46.7497 83.3071 47.0332C83.214 47.3167 83.0807 47.6003 82.9072 47.8838C82.7379 48.1631 82.5369 48.4445 82.3042 48.728C82.0714 49.0073 81.8154 49.2909 81.5361 49.5786L79.5366 51.7812H83.8022ZM91.8823 49.7056V50.9243H85.2172L85.1665 50.0039L89.1528 43.7578H90.3779L89.0512 46.0303L86.7597 49.7056H91.8823ZM90.727 43.7578V53H89.1972V43.7578H90.727ZM99.4799 47.9346V49.312H93.145V47.9346H99.4799ZM97.0551 45.3447V52.0732H95.5761V45.3447H97.0551Z" fill="#1D2130"/>
<path d="M133 44.5C137.833 46.1667 148.3 46.4 151.5 34C154.5 27.5 154.5 24 159.5 27.5C164.5 31 174.5 35.5 178 24" stroke="#6B7CFF" stroke-width="2"/>
</svg>
