<svg width="270" height="333" viewBox="0 0 270 333" fill="none" xmlns="http://www.w3.org/2000/svg">
<rect width="270" height="332.39" rx="24" fill="white"/>
<rect x="33.2709" y="248.41" width="188.398" height="61.4661" rx="7" fill="#E0E4FC" stroke="#CACFFA" stroke-width="2"/>
<path d="M53.6647 267.223V273.622H52.8297V267.223H53.6647ZM55.7213 267.223V267.917H50.7775V267.223H55.7213ZM55.8927 271.297V271.196C55.8927 270.853 55.9425 270.535 56.0421 270.242C56.1417 269.946 56.2853 269.69 56.4728 269.473C56.6603 269.253 56.8873 269.083 57.1539 268.963C57.4205 268.84 57.7194 268.779 58.0504 268.779C58.3844 268.779 58.6847 268.84 58.9513 268.963C59.2208 269.083 59.4493 269.253 59.6368 269.473C59.8273 269.69 59.9723 269.946 60.0719 270.242C60.1715 270.535 60.2213 270.853 60.2213 271.196V271.297C60.2213 271.64 60.1715 271.958 60.0719 272.25C59.9723 272.543 59.8273 272.8 59.6368 273.02C59.4493 273.236 59.2223 273.406 58.9557 273.529C58.692 273.649 58.3932 273.709 58.0592 273.709C57.7252 273.709 57.4249 273.649 57.1583 273.529C56.8917 273.406 56.6632 273.236 56.4728 273.02C56.2853 272.8 56.1417 272.543 56.0421 272.25C55.9425 271.958 55.8927 271.64 55.8927 271.297ZM56.7057 271.196V271.297C56.7057 271.534 56.7335 271.758 56.7892 271.969C56.8448 272.177 56.9283 272.362 57.0397 272.523C57.1539 272.684 57.296 272.812 57.4659 272.905C57.6359 272.996 57.8336 273.042 58.0592 273.042C58.2819 273.042 58.4767 272.996 58.6437 272.905C58.8136 272.812 58.9542 272.684 59.0656 272.523C59.1769 272.362 59.2604 272.177 59.316 271.969C59.3746 271.758 59.4039 271.534 59.4039 271.297V271.196C59.4039 270.961 59.3746 270.74 59.316 270.532C59.2604 270.321 59.1754 270.135 59.0612 269.974C58.9498 269.81 58.8092 269.681 58.6393 269.587C58.4723 269.494 58.276 269.447 58.0504 269.447C57.8278 269.447 57.6315 269.494 57.4615 269.587C57.2946 269.681 57.1539 269.81 57.0397 269.974C56.9283 270.135 56.8448 270.321 56.7892 270.532C56.7335 270.74 56.7057 270.961 56.7057 271.196ZM63.2316 268.867V269.491H60.6608V268.867H63.2316ZM61.5309 267.711H62.3439V272.444C62.3439 272.605 62.3688 272.727 62.4186 272.809C62.4684 272.891 62.5328 272.945 62.6119 272.971C62.691 272.998 62.776 273.011 62.8668 273.011C62.9342 273.011 63.0045 273.005 63.0778 272.993C63.1539 272.979 63.2111 272.967 63.2491 272.958L63.2535 273.622C63.1891 273.642 63.1041 273.661 62.9987 273.679C62.8961 273.699 62.7716 273.709 62.6251 273.709C62.4259 273.709 62.2428 273.67 62.0758 273.591C61.9088 273.512 61.7755 273.38 61.6759 273.195C61.5792 273.008 61.5309 272.756 61.5309 272.439V267.711ZM66.9889 272.809V270.361C66.9889 270.173 66.9508 270.011 66.8746 269.873C66.8014 269.732 66.6901 269.624 66.5406 269.548C66.3912 269.472 66.2067 269.434 65.9869 269.434C65.7819 269.434 65.6017 269.469 65.4464 269.539C65.2941 269.609 65.174 269.702 65.0861 269.816C65.0011 269.93 64.9586 270.053 64.9586 270.185H64.1456C64.1456 270.015 64.1896 269.847 64.2775 269.68C64.3654 269.513 64.4913 269.362 64.6554 269.227C64.8224 269.089 65.0216 268.981 65.2531 268.902C65.4874 268.82 65.7482 268.779 66.0353 268.779C66.381 268.779 66.6857 268.837 66.9493 268.955C67.2159 269.072 67.424 269.249 67.5734 269.486C67.7257 269.721 67.8019 270.015 67.8019 270.37V272.584C67.8019 272.743 67.8151 272.911 67.8414 273.09C67.8707 273.269 67.9132 273.422 67.9689 273.551V273.622H67.1207C67.0797 273.528 67.0475 273.403 67.024 273.248C67.0006 273.09 66.9889 272.943 66.9889 272.809ZM67.1295 270.739L67.1383 271.31H66.3165C66.0851 271.31 65.8785 271.329 65.6969 271.367C65.5153 271.402 65.3629 271.457 65.2399 271.53C65.1168 271.603 65.0231 271.695 64.9586 271.807C64.8942 271.915 64.8619 272.042 64.8619 272.189C64.8619 272.338 64.8956 272.475 64.963 272.598C65.0304 272.721 65.1315 272.819 65.2662 272.892C65.4039 272.962 65.5724 272.998 65.7716 272.998C66.0206 272.998 66.2404 272.945 66.4308 272.839C66.6212 272.734 66.7721 272.605 66.8834 272.453C66.9977 272.3 67.0592 272.152 67.068 272.009L67.4152 272.4C67.3947 272.523 67.339 272.659 67.2482 272.809C67.1573 272.958 67.0358 273.102 66.8834 273.239C66.734 273.374 66.5553 273.487 66.3473 273.578C66.1422 273.666 65.9108 273.709 65.653 273.709C65.3307 273.709 65.048 273.646 64.8048 273.521C64.5646 273.395 64.3771 273.226 64.2423 273.015C64.1105 272.801 64.0446 272.562 64.0446 272.299C64.0446 272.044 64.0944 271.82 64.194 271.626C64.2936 271.43 64.4371 271.268 64.6246 271.139C64.8121 271.007 65.0377 270.907 65.3014 270.84C65.5651 270.772 65.8595 270.739 66.1847 270.739H67.1295ZM69.964 266.872V273.622H69.1466V266.872H69.964ZM77.4874 271.587H78.3312C78.2872 271.991 78.1715 272.353 77.984 272.672C77.7965 272.992 77.5314 273.245 77.1886 273.433C76.8458 273.617 76.4181 273.709 75.9054 273.709C75.5304 273.709 75.1891 273.639 74.8815 273.499C74.5768 273.358 74.3146 273.159 74.0948 272.901C73.8751 272.64 73.7052 272.328 73.5851 271.965C73.4679 271.599 73.4093 271.191 73.4093 270.743V270.106C73.4093 269.658 73.4679 269.252 73.5851 268.889C73.7052 268.522 73.8766 268.209 74.0992 267.948C74.3248 267.688 74.5958 267.487 74.9122 267.346C75.2286 267.206 75.5846 267.135 75.9801 267.135C76.4635 267.135 76.8722 267.226 77.2062 267.408C77.5402 267.589 77.7994 267.841 77.984 268.164C78.1715 268.483 78.2872 268.854 78.3312 269.275H77.4874C77.4464 268.977 77.3702 268.72 77.2589 268.506C77.1476 268.29 76.9894 268.123 76.7843 268.005C76.5792 267.888 76.3112 267.83 75.9801 267.83C75.6959 267.83 75.4454 267.884 75.2286 267.992C75.0148 268.101 74.8346 268.254 74.6881 268.454C74.5446 268.653 74.4362 268.892 74.3629 269.17C74.2897 269.448 74.2531 269.757 74.2531 270.097V270.743C74.2531 271.057 74.2853 271.351 74.3497 271.626C74.4171 271.902 74.5182 272.144 74.653 272.352C74.7877 272.56 74.9591 272.724 75.1671 272.844C75.3751 272.961 75.6212 273.02 75.9054 273.02C76.2657 273.02 76.5529 272.962 76.7667 272.848C76.9806 272.734 77.1417 272.57 77.2501 272.356C77.3615 272.142 77.4406 271.886 77.4874 271.587ZM80.2472 266.872V273.622H79.4298V266.872H80.2472ZM82.4357 268.867V273.622H81.6183V268.867H82.4357ZM81.5568 267.605C81.5568 267.474 81.5963 267.362 81.6754 267.271C81.7574 267.181 81.8776 267.135 82.0358 267.135C82.191 267.135 82.3097 267.181 82.3917 267.271C82.4767 267.362 82.5192 267.474 82.5192 267.605C82.5192 267.731 82.4767 267.84 82.3917 267.931C82.3097 268.019 82.191 268.062 82.0358 268.062C81.8776 268.062 81.7574 268.019 81.6754 267.931C81.5963 267.84 81.5568 267.731 81.5568 267.605ZM85.714 273.709C85.3829 273.709 85.0826 273.654 84.8131 273.542C84.5465 273.428 84.3165 273.269 84.1232 273.063C83.9327 272.858 83.7863 272.615 83.6837 272.334C83.5812 272.053 83.5299 271.745 83.5299 271.411V271.227C83.5299 270.84 83.587 270.496 83.7013 270.194C83.8156 269.889 83.9708 269.631 84.1671 269.42C84.3634 269.209 84.5861 269.05 84.8351 268.941C85.0841 268.833 85.3419 268.779 85.6085 268.779C85.9484 268.779 86.2413 268.837 86.4874 268.955C86.7365 269.072 86.9401 269.236 87.0983 269.447C87.2565 269.655 87.3737 269.901 87.4498 270.185C87.526 270.466 87.5641 270.774 87.5641 271.108V271.473H84.0133V270.809H86.7511V270.748C86.7394 270.537 86.6954 270.332 86.6193 270.132C86.546 269.933 86.4288 269.769 86.2677 269.64C86.1066 269.511 85.8868 269.447 85.6085 269.447C85.424 269.447 85.254 269.486 85.0988 269.565C84.9435 269.642 84.8102 269.756 84.6989 269.908C84.5875 270.061 84.5011 270.247 84.4396 270.466C84.3781 270.686 84.3473 270.939 84.3473 271.227V271.411C84.3473 271.637 84.3781 271.849 84.4396 272.048C84.504 272.245 84.5963 272.417 84.7164 272.567C84.8395 272.716 84.9874 272.833 85.1603 272.918C85.3361 273.003 85.5353 273.046 85.7579 273.046C86.045 273.046 86.2882 272.987 86.4874 272.87C86.6866 272.753 86.861 272.596 87.0104 272.4L87.5026 272.791C87.4 272.946 87.2697 273.094 87.1115 273.235C86.9532 273.375 86.7584 273.49 86.527 273.578C86.2985 273.666 86.0275 273.709 85.714 273.709ZM89.3263 269.882V273.622H88.5133V268.867H89.2823L89.3263 269.882ZM89.1329 271.064L88.7946 271.051C88.7975 270.726 88.8458 270.425 88.9396 270.15C89.0333 269.872 89.1652 269.63 89.3351 269.425C89.505 269.22 89.7072 269.062 89.9415 268.95C90.1788 268.836 90.441 268.779 90.7281 268.779C90.9625 268.779 91.1735 268.811 91.361 268.875C91.5485 268.937 91.7081 269.037 91.84 269.174C91.9747 269.312 92.0773 269.491 92.1476 269.71C92.2179 269.927 92.2531 270.192 92.2531 270.506V273.622H91.4357V270.497C91.4357 270.248 91.399 270.049 91.3258 269.899C91.2526 269.747 91.1456 269.637 91.005 269.57C90.8644 269.5 90.6915 269.464 90.4865 269.464C90.2843 269.464 90.0997 269.507 89.9327 269.592C89.7687 269.677 89.6266 269.794 89.5065 269.943C89.3893 270.093 89.297 270.264 89.2296 270.458C89.1652 270.648 89.1329 270.85 89.1329 271.064ZM95.4786 268.867V269.491H92.9078V268.867H95.4786ZM93.778 267.711H94.5909V272.444C94.5909 272.605 94.6158 272.727 94.6656 272.809C94.7155 272.891 94.7799 272.945 94.859 272.971C94.9381 272.998 95.0231 273.011 95.1139 273.011C95.1813 273.011 95.2516 273.005 95.3248 272.993C95.401 272.979 95.4581 272.967 95.4962 272.958L95.5006 273.622C95.4362 273.642 95.3512 273.661 95.2457 273.679C95.1432 273.699 95.0187 273.709 94.8722 273.709C94.673 273.709 94.4899 273.67 94.3229 273.591C94.1559 273.512 94.0226 273.38 93.923 273.195C93.8263 273.008 93.778 272.756 93.778 272.439V267.711Z" fill="#757575"/>
<path d="M52.8619 290.611L51.6432 290.313L52.1447 285.666H57.1276V286.961H53.4142L53.1603 289.227C53.3042 289.143 53.5031 289.06 53.757 288.98C54.0109 288.895 54.3007 288.853 54.6266 288.853C55.0625 288.853 55.4518 288.925 55.7946 289.069C56.1416 289.208 56.4357 289.413 56.6769 289.684C56.9181 289.951 57.1022 290.277 57.2291 290.662C57.3561 291.043 57.4196 291.472 57.4196 291.95C57.4196 292.378 57.3561 292.778 57.2291 293.15C57.1064 293.523 56.9202 293.851 56.6705 294.134C56.4209 294.418 56.1056 294.64 55.7247 294.801C55.3481 294.957 54.9017 295.035 54.3854 295.035C54.0003 295.035 53.63 294.98 53.2745 294.87C52.9233 294.756 52.608 294.589 52.3287 294.369C52.0494 294.145 51.8252 293.87 51.6559 293.544C51.4866 293.214 51.3893 292.835 51.3639 292.407H52.8619C52.9 292.708 52.9825 292.964 53.1095 293.176C53.2407 293.383 53.4142 293.542 53.63 293.652C53.8458 293.762 54.0955 293.817 54.379 293.817C54.6372 293.817 54.8593 293.772 55.0455 293.683C55.2317 293.59 55.3862 293.459 55.5089 293.29C55.6359 293.116 55.729 292.913 55.7882 292.68C55.8517 292.448 55.8834 292.19 55.8834 291.906C55.8834 291.635 55.8475 291.388 55.7755 291.163C55.7078 290.939 55.6041 290.744 55.4645 290.579C55.3291 290.414 55.1577 290.287 54.9503 290.198C54.743 290.105 54.5039 290.059 54.233 290.059C53.8691 290.059 53.5898 290.112 53.3951 290.218C53.2047 290.323 53.027 290.455 52.8619 290.611ZM60.441 289.595H61.3551C61.7106 289.595 62.0047 289.534 62.2374 289.411C62.4744 289.289 62.65 289.119 62.7643 288.904C62.8785 288.688 62.9357 288.44 62.9357 288.161C62.9357 287.869 62.8828 287.619 62.777 287.412C62.6754 287.2 62.5188 287.037 62.3073 286.923C62.0999 286.809 61.8354 286.752 61.5138 286.752C61.243 286.752 60.9975 286.807 60.7775 286.917C60.5616 287.023 60.3903 287.175 60.2633 287.374C60.1364 287.568 60.0729 287.801 60.0729 288.072H58.5367C58.5367 287.581 58.6658 287.145 58.924 286.764C59.1821 286.384 59.5333 286.085 59.9777 285.869C60.4262 285.649 60.9298 285.539 61.4884 285.539C62.0851 285.539 62.6056 285.639 63.0499 285.838C63.4985 286.032 63.8476 286.324 64.0973 286.714C64.347 287.103 64.4718 287.585 64.4718 288.161C64.4718 288.423 64.4104 288.69 64.2877 288.961C64.165 289.232 63.983 289.479 63.7418 289.703C63.5006 289.923 63.2002 290.103 62.8405 290.243C62.4808 290.378 62.0639 290.446 61.59 290.446H60.441V289.595ZM60.441 290.789V289.951H61.59C62.1316 289.951 62.5929 290.014 62.9738 290.141C63.3588 290.268 63.672 290.444 63.9132 290.668C64.1544 290.888 64.33 291.14 64.4401 291.424C64.5543 291.707 64.6115 292.008 64.6115 292.325C64.6115 292.757 64.5332 293.142 64.3766 293.48C64.2242 293.815 64.0063 294.098 63.7228 294.331C63.4392 294.564 63.1071 294.739 62.7262 294.858C62.3496 294.976 61.9391 295.035 61.4948 295.035C61.097 295.035 60.7161 294.98 60.3522 294.87C59.9882 294.76 59.6624 294.597 59.3746 294.382C59.0869 294.162 58.8584 293.889 58.6891 293.563C58.524 293.233 58.4415 292.852 58.4415 292.42H59.9713C59.9713 292.695 60.0348 292.939 60.1617 293.15C60.2929 293.358 60.4749 293.52 60.7076 293.639C60.9446 293.757 61.2155 293.817 61.5201 293.817C61.8418 293.817 62.1189 293.76 62.3517 293.645C62.5844 293.531 62.7622 293.362 62.8849 293.137C63.0118 292.913 63.0753 292.642 63.0753 292.325C63.0753 291.965 63.0055 291.673 62.8658 291.449C62.7262 291.225 62.5273 291.06 62.2692 290.954C62.011 290.844 61.7063 290.789 61.3551 290.789H60.441ZM67.8297 289.595H68.7438C69.0992 289.595 69.3934 289.534 69.6261 289.411C69.8631 289.289 70.0387 289.119 70.153 288.904C70.2672 288.688 70.3243 288.44 70.3243 288.161C70.3243 287.869 70.2714 287.619 70.1656 287.412C70.0641 287.2 69.9075 287.037 69.6959 286.923C69.4886 286.809 69.2241 286.752 68.9025 286.752C68.6316 286.752 68.3862 286.807 68.1661 286.917C67.9503 287.023 67.7789 287.175 67.652 287.374C67.525 287.568 67.4615 287.801 67.4615 288.072H65.9254C65.9254 287.581 66.0545 287.145 66.3126 286.764C66.5708 286.384 66.922 286.085 67.3663 285.869C67.8149 285.649 68.3185 285.539 68.8771 285.539C69.4738 285.539 69.9943 285.639 70.4386 285.838C70.8872 286.032 71.2363 286.324 71.486 286.714C71.7356 287.103 71.8605 287.585 71.8605 288.161C71.8605 288.423 71.7991 288.69 71.6764 288.961C71.5537 289.232 71.3717 289.479 71.1305 289.703C70.8893 289.923 70.5888 290.103 70.2291 290.243C69.8694 290.378 69.4526 290.446 68.9786 290.446H67.8297V289.595ZM67.8297 290.789V289.951H68.9786C69.5203 289.951 69.9816 290.014 70.3624 290.141C70.7475 290.268 71.0607 290.444 71.3019 290.668C71.5431 290.888 71.7187 291.14 71.8287 291.424C71.943 291.707 72.0001 292.008 72.0001 292.325C72.0001 292.757 71.9218 293.142 71.7653 293.48C71.6129 293.815 71.395 294.098 71.1115 294.331C70.8279 294.564 70.4957 294.739 70.1149 294.858C69.7382 294.976 69.3278 295.035 68.8834 295.035C68.4856 295.035 68.1048 294.98 67.7408 294.87C67.3769 294.76 67.0511 294.597 66.7633 294.382C66.4755 294.162 66.247 293.889 66.0778 293.563C65.9127 293.233 65.8302 292.852 65.8302 292.42H67.36C67.36 292.695 67.4235 292.939 67.5504 293.15C67.6816 293.358 67.8636 293.52 68.0963 293.639C68.3333 293.757 68.6041 293.817 68.9088 293.817C69.2304 293.817 69.5076 293.76 69.7404 293.645C69.9731 293.531 70.1508 293.362 70.2736 293.137C70.4005 292.913 70.464 292.642 70.464 292.325C70.464 291.965 70.3942 291.673 70.2545 291.449C70.1149 291.225 69.916 291.06 69.6578 290.954C69.3997 290.844 69.095 290.789 68.7438 290.789H67.8297ZM79.4777 289.843V291.22H73.1427V289.843H79.4777ZM77.0529 287.253V293.982H75.5739V287.253H77.0529Z" fill="black"/>
<path d="M92.3605 290.408V291.427H86.5128V290.408H92.3605ZM89.9816 287.918V294.129H88.8976V287.918H89.9816ZM94.9445 290.924L94.0773 290.701L94.505 286.453H98.882V287.455H95.4249L95.1671 289.775C95.3234 289.685 95.5206 289.601 95.7589 289.523C96.0011 289.445 96.2784 289.406 96.5909 289.406C96.9855 289.406 97.339 289.474 97.6515 289.611C97.964 289.744 98.2296 289.935 98.4484 290.185C98.671 290.435 98.8409 290.736 98.9581 291.088C99.0753 291.439 99.1339 291.832 99.1339 292.265C99.1339 292.676 99.0773 293.052 98.964 293.396C98.8546 293.74 98.6886 294.041 98.4659 294.299C98.2433 294.552 97.962 294.75 97.6222 294.89C97.2863 295.031 96.8898 295.101 96.4327 295.101C96.089 295.101 95.7628 295.054 95.4542 294.961C95.1495 294.863 94.8761 294.717 94.6339 294.521C94.3956 294.322 94.2003 294.076 94.048 293.783C93.8995 293.486 93.8058 293.138 93.7667 292.74H94.798C94.8448 293.06 94.9386 293.33 95.0792 293.549C95.2198 293.767 95.4034 293.933 95.63 294.047C95.8605 294.156 96.1281 294.211 96.4327 294.211C96.6906 294.211 96.9191 294.166 97.1183 294.076C97.3175 293.986 97.4855 293.857 97.6222 293.689C97.7589 293.521 97.8624 293.318 97.9327 293.08C98.007 292.842 98.0441 292.574 98.0441 292.277C98.0441 292.008 98.007 291.758 97.9327 291.527C97.8585 291.297 97.7472 291.095 97.5988 290.924C97.4542 290.752 97.2765 290.619 97.0656 290.525C96.8546 290.427 96.6124 290.379 96.339 290.379C95.9757 290.379 95.7003 290.427 95.5128 290.525C95.3292 290.623 95.1398 290.756 94.9445 290.924ZM101.694 290.924L100.827 290.701L101.255 286.453H105.632V287.455H102.175L101.917 289.775C102.073 289.685 102.271 289.601 102.509 289.523C102.751 289.445 103.028 289.406 103.341 289.406C103.735 289.406 104.089 289.474 104.401 289.611C104.714 289.744 104.98 289.935 105.198 290.185C105.421 290.435 105.591 290.736 105.708 291.088C105.825 291.439 105.884 291.832 105.884 292.265C105.884 292.676 105.827 293.052 105.714 293.396C105.605 293.74 105.439 294.041 105.216 294.299C104.993 294.552 104.712 294.75 104.372 294.89C104.036 295.031 103.64 295.101 103.183 295.101C102.839 295.101 102.513 295.054 102.204 294.961C101.9 294.863 101.626 294.717 101.384 294.521C101.146 294.322 100.95 294.076 100.798 293.783C100.65 293.486 100.556 293.138 100.517 292.74H101.548C101.595 293.06 101.689 293.33 101.829 293.549C101.97 293.767 102.153 293.933 102.38 294.047C102.61 294.156 102.878 294.211 103.183 294.211C103.441 294.211 103.669 294.166 103.868 294.076C104.068 293.986 104.235 293.857 104.372 293.689C104.509 293.521 104.612 293.318 104.683 293.08C104.757 292.842 104.794 292.574 104.794 292.277C104.794 292.008 104.757 291.758 104.683 291.527C104.609 291.297 104.497 291.095 104.349 290.924C104.204 290.752 104.026 290.619 103.816 290.525C103.605 290.427 103.362 290.379 103.089 290.379C102.726 290.379 102.45 290.427 102.263 290.525C102.079 290.623 101.89 290.756 101.694 290.924ZM106.98 288.545V288.094C106.98 287.769 107.05 287.474 107.191 287.209C107.331 286.943 107.532 286.73 107.794 286.57C108.056 286.41 108.366 286.33 108.726 286.33C109.093 286.33 109.405 286.41 109.663 286.57C109.925 286.73 110.126 286.943 110.267 287.209C110.407 287.474 110.478 287.769 110.478 288.094V288.545C110.478 288.861 110.407 289.152 110.267 289.418C110.13 289.683 109.931 289.896 109.669 290.056C109.411 290.217 109.101 290.297 108.737 290.297C108.374 290.297 108.06 290.217 107.794 290.056C107.532 289.896 107.331 289.683 107.191 289.418C107.05 289.152 106.98 288.861 106.98 288.545ZM107.794 288.094V288.545C107.794 288.724 107.827 288.894 107.894 289.054C107.964 289.215 108.069 289.345 108.21 289.447C108.351 289.545 108.526 289.594 108.737 289.594C108.948 289.594 109.122 289.545 109.259 289.447C109.396 289.345 109.497 289.215 109.564 289.054C109.63 288.894 109.663 288.724 109.663 288.545V288.094C109.663 287.91 109.628 287.738 109.558 287.578C109.491 287.414 109.388 287.283 109.247 287.185C109.11 287.084 108.937 287.033 108.726 287.033C108.519 287.033 108.345 287.084 108.204 287.185C108.068 287.283 107.964 287.414 107.894 287.578C107.827 287.738 107.794 287.91 107.794 288.094ZM111.134 293.349V292.892C111.134 292.572 111.204 292.279 111.345 292.013C111.485 291.748 111.687 291.535 111.948 291.375C112.21 291.215 112.521 291.135 112.88 291.135C113.247 291.135 113.56 291.215 113.818 291.375C114.079 291.535 114.28 291.748 114.421 292.013C114.562 292.279 114.632 292.572 114.632 292.892V293.349C114.632 293.67 114.562 293.963 114.421 294.228C114.284 294.494 114.085 294.707 113.823 294.867C113.566 295.027 113.255 295.107 112.892 295.107C112.528 295.107 112.216 295.027 111.954 294.867C111.693 294.707 111.489 294.494 111.345 294.228C111.204 293.963 111.134 293.67 111.134 293.349ZM111.948 292.892V293.349C111.948 293.529 111.982 293.701 112.048 293.865C112.118 294.025 112.224 294.156 112.364 294.258C112.505 294.355 112.681 294.404 112.892 294.404C113.103 294.404 113.276 294.355 113.413 294.258C113.554 294.156 113.657 294.025 113.724 293.865C113.79 293.705 113.823 293.533 113.823 293.349V292.892C113.823 292.709 113.788 292.537 113.718 292.377C113.651 292.217 113.548 292.088 113.407 291.99C113.271 291.888 113.095 291.838 112.88 291.838C112.673 291.838 112.499 291.888 112.359 291.99C112.222 292.088 112.118 292.217 112.048 292.377C111.982 292.537 111.948 292.709 111.948 292.892ZM113.15 287.666L108.984 294.334L108.374 293.947L112.54 287.279L113.15 287.666Z" fill="black"/>
<rect x="168.885" y="264.622" width="33.3466" height="33.3466" rx="8" fill="#6B7CFF"/>
<rect x="178.566" y="274.303" width="12.9084" height="16.1355" rx="3" fill="white"/>
<path d="M188.247 278.606H192.159H192.55L188.247 273.227V278.606Z" stroke="#6B7CFF"/>
<line x1="182.868" y1="283.484" x2="188.247" y2="283.484" stroke="#6B7CFF"/>
<line x1="182.868" y1="285.635" x2="188.247" y2="285.635" stroke="#6B7CFF"/>
<path d="M68.0892 233.131V233.821H64.89V233.131H68.0892ZM65.057 227.422V233.821H64.2089V227.422H65.057ZM68.722 231.496V231.395C68.722 231.052 68.7719 230.734 68.8715 230.441C68.9711 230.146 69.1146 229.889 69.3021 229.672C69.4896 229.453 69.7167 229.283 69.9833 229.163C70.2499 229.04 70.5487 228.978 70.8798 228.978C71.2137 228.978 71.514 229.04 71.7806 229.163C72.0502 229.283 72.2787 229.453 72.4662 229.672C72.6566 229.889 72.8016 230.146 72.9012 230.441C73.0009 230.734 73.0507 231.052 73.0507 231.395V231.496C73.0507 231.839 73.0009 232.157 72.9012 232.45C72.8016 232.743 72.6566 232.999 72.4662 233.219C72.2787 233.436 72.0516 233.605 71.785 233.729C71.5214 233.849 71.2225 233.909 70.8885 233.909C70.5546 233.909 70.2543 233.849 69.9877 233.729C69.7211 233.605 69.4926 233.436 69.3021 233.219C69.1146 232.999 68.9711 232.743 68.8715 232.45C68.7719 232.157 68.722 231.839 68.722 231.496ZM69.535 231.395V231.496C69.535 231.733 69.5629 231.958 69.6185 232.168C69.6742 232.376 69.7577 232.561 69.869 232.722C69.9833 232.883 70.1254 233.011 70.2953 233.104C70.4652 233.195 70.663 233.241 70.8885 233.241C71.1112 233.241 71.306 233.195 71.473 233.104C71.6429 233.011 71.7836 232.883 71.8949 232.722C72.0062 232.561 72.0897 232.376 72.1454 232.168C72.204 231.958 72.2333 231.733 72.2333 231.496V231.395C72.2333 231.161 72.204 230.939 72.1454 230.731C72.0897 230.521 72.0048 230.334 71.8905 230.173C71.7792 230.009 71.6385 229.88 71.4686 229.787C71.3016 229.693 71.1053 229.646 70.8798 229.646C70.6571 229.646 70.4608 229.693 70.2909 229.787C70.1239 229.88 69.9833 230.009 69.869 230.173C69.7577 230.334 69.6742 230.521 69.6185 230.731C69.5629 230.939 69.535 231.161 69.535 231.395ZM76.8387 232.56C76.8387 232.442 76.8124 232.334 76.7596 232.234C76.7098 232.132 76.6058 232.04 76.4476 231.958C76.2924 231.873 76.058 231.799 75.7445 231.738C75.4808 231.682 75.2421 231.616 75.0282 231.54C74.8173 231.464 74.6371 231.372 74.4877 231.263C74.3412 231.155 74.2284 231.027 74.1493 230.881C74.0702 230.734 74.0306 230.563 74.0306 230.367C74.0306 230.179 74.0717 230.002 74.1537 229.835C74.2386 229.668 74.3573 229.52 74.5096 229.391C74.6649 229.262 74.851 229.161 75.0677 229.088C75.2845 229.015 75.5262 228.978 75.7928 228.978C76.1737 228.978 76.4989 229.045 76.7684 229.18C77.038 229.315 77.2445 229.495 77.3881 229.721C77.5316 229.943 77.6034 230.191 77.6034 230.463H76.7904C76.7904 230.332 76.7509 230.204 76.6718 230.081C76.5956 229.955 76.4828 229.851 76.3334 229.769C76.1869 229.687 76.0067 229.646 75.7928 229.646C75.5673 229.646 75.3842 229.681 75.2435 229.751C75.1058 229.819 75.0048 229.905 74.9403 230.011C74.8788 230.116 74.848 230.228 74.848 230.345C74.848 230.433 74.8627 230.512 74.892 230.582C74.9242 230.649 74.9799 230.712 75.059 230.771C75.1381 230.827 75.2494 230.879 75.3929 230.929C75.5365 230.979 75.7196 231.029 75.9423 231.079C76.3319 231.167 76.6527 231.272 76.9047 231.395C77.1566 231.518 77.3441 231.669 77.4672 231.848C77.5902 232.026 77.6517 232.243 77.6517 232.498C77.6517 232.706 77.6078 232.896 77.5199 233.069C77.4349 233.242 77.3104 233.392 77.1464 233.518C76.9852 233.641 76.7919 233.737 76.5663 233.808C76.3436 233.875 76.0931 233.909 75.8148 233.909C75.3959 233.909 75.0414 233.834 74.7513 233.685C74.4613 233.535 74.2416 233.342 74.0922 233.104C73.9427 232.867 73.868 232.617 73.868 232.353H74.6854C74.6971 232.576 74.7616 232.753 74.8788 232.885C74.996 233.014 75.1395 233.106 75.3094 233.162C75.4794 233.214 75.6478 233.241 75.8148 233.241C76.0375 233.241 76.2235 233.211 76.3729 233.153C76.5253 233.094 76.641 233.014 76.7201 232.911C76.7992 232.809 76.8387 232.691 76.8387 232.56ZM81.4882 232.56C81.4882 232.442 81.4618 232.334 81.4091 232.234C81.3593 232.132 81.2552 232.04 81.097 231.958C80.9418 231.873 80.7074 231.799 80.3939 231.738C80.1302 231.682 79.8915 231.616 79.6776 231.54C79.4667 231.464 79.2865 231.372 79.1371 231.263C78.9906 231.155 78.8778 231.027 78.7987 230.881C78.7196 230.734 78.6801 230.563 78.6801 230.367C78.6801 230.179 78.7211 230.002 78.8031 229.835C78.8881 229.668 79.0067 229.52 79.1591 229.391C79.3143 229.262 79.5004 229.161 79.7172 229.088C79.934 229.015 80.1757 228.978 80.4423 228.978C80.8231 228.978 81.1483 229.045 81.4178 229.18C81.6874 229.315 81.8939 229.495 82.0375 229.721C82.181 229.943 82.2528 230.191 82.2528 230.463H81.4398C81.4398 230.332 81.4003 230.204 81.3212 230.081C81.245 229.955 81.1322 229.851 80.9828 229.769C80.8363 229.687 80.6561 229.646 80.4423 229.646C80.2167 229.646 80.0336 229.681 79.8929 229.751C79.7552 229.819 79.6542 229.905 79.5897 230.011C79.5282 230.116 79.4974 230.228 79.4974 230.345C79.4974 230.433 79.5121 230.512 79.5414 230.582C79.5736 230.649 79.6293 230.712 79.7084 230.771C79.7875 230.827 79.8988 230.879 80.0424 230.929C80.1859 230.979 80.369 231.029 80.5917 231.079C80.9813 231.167 81.3021 231.272 81.5541 231.395C81.806 231.518 81.9935 231.669 82.1166 231.848C82.2396 232.026 82.3011 232.243 82.3011 232.498C82.3011 232.706 82.2572 232.896 82.1693 233.069C82.0844 233.242 81.9598 233.392 81.7958 233.518C81.6346 233.641 81.4413 233.737 81.2157 233.808C80.993 233.875 80.7426 233.909 80.4642 233.909C80.0453 233.909 79.6908 233.834 79.4008 233.685C79.1107 233.535 78.891 233.342 78.7416 233.104C78.5922 232.867 78.5175 232.617 78.5175 232.353H79.3348C79.3466 232.576 79.411 232.753 79.5282 232.885C79.6454 233.014 79.7889 233.106 79.9589 233.162C80.1288 233.214 80.2972 233.241 80.4642 233.241C80.6869 233.241 80.8729 233.211 81.0223 233.153C81.1747 233.094 81.2904 233.014 81.3695 232.911C81.4486 232.809 81.4882 232.691 81.4882 232.56ZM85.3422 233.909C85.0111 233.909 84.7108 233.853 84.4413 233.742C84.1747 233.627 83.9447 233.468 83.7513 233.263C83.5609 233.058 83.4144 232.814 83.3119 232.533C83.2094 232.252 83.1581 231.944 83.1581 231.61V231.426C83.1581 231.039 83.2152 230.695 83.3295 230.393C83.4437 230.088 83.599 229.831 83.7953 229.62C83.9916 229.409 84.2142 229.249 84.4633 229.141C84.7123 229.032 84.9701 228.978 85.2367 228.978C85.5765 228.978 85.8695 229.037 86.1156 229.154C86.3646 229.271 86.5682 229.435 86.7264 229.646C86.8846 229.854 87.0018 230.1 87.078 230.384C87.1542 230.666 87.1923 230.973 87.1923 231.307V231.672H83.6415V231.008H86.3793V230.947C86.3676 230.736 86.3236 230.531 86.2474 230.332C86.1742 230.132 86.057 229.968 85.8959 229.839C85.7347 229.71 85.515 229.646 85.2367 229.646C85.0521 229.646 84.8822 229.686 84.7269 229.765C84.5717 229.841 84.4384 229.955 84.327 230.107C84.2157 230.26 84.1293 230.446 84.0677 230.666C84.0062 230.885 83.9755 231.139 83.9755 231.426V231.61C83.9755 231.836 84.0062 232.048 84.0677 232.248C84.1322 232.444 84.2245 232.617 84.3446 232.766C84.4677 232.916 84.6156 233.033 84.7885 233.118C84.9642 233.203 85.1635 233.245 85.3861 233.245C85.6732 233.245 85.9164 233.187 86.1156 233.069C86.3148 232.952 86.4891 232.795 86.6385 232.599L87.1307 232.99C87.0282 233.146 86.8978 233.293 86.7396 233.434C86.5814 233.575 86.3866 233.689 86.1552 233.777C85.9266 233.865 85.6556 233.909 85.3422 233.909ZM90.91 232.56C90.91 232.442 90.8837 232.334 90.8309 232.234C90.7811 232.132 90.6771 232.04 90.5189 231.958C90.3636 231.873 90.1293 231.799 89.8158 231.738C89.5521 231.682 89.3134 231.616 89.0995 231.54C88.8885 231.464 88.7084 231.372 88.559 231.263C88.4125 231.155 88.2997 231.027 88.2206 230.881C88.1415 230.734 88.1019 230.563 88.1019 230.367C88.1019 230.179 88.1429 230.002 88.225 229.835C88.3099 229.668 88.4286 229.52 88.5809 229.391C88.7362 229.262 88.9222 229.161 89.139 229.088C89.3558 229.015 89.5975 228.978 89.8641 228.978C90.245 228.978 90.5702 229.045 90.8397 229.18C91.1093 229.315 91.3158 229.495 91.4594 229.721C91.6029 229.943 91.6747 230.191 91.6747 230.463H90.8617C90.8617 230.332 90.8221 230.204 90.743 230.081C90.6669 229.955 90.5541 229.851 90.4047 229.769C90.2582 229.687 90.078 229.646 89.8641 229.646C89.6385 229.646 89.4554 229.681 89.3148 229.751C89.1771 229.819 89.076 229.905 89.0116 230.011C88.9501 230.116 88.9193 230.228 88.9193 230.345C88.9193 230.433 88.934 230.512 88.9633 230.582C88.9955 230.649 89.0511 230.712 89.1302 230.771C89.2094 230.827 89.3207 230.879 89.4642 230.929C89.6078 230.979 89.7909 231.029 90.0135 231.079C90.4032 231.167 90.724 231.272 90.976 231.395C91.2279 231.518 91.4154 231.669 91.5385 231.848C91.6615 232.026 91.723 232.243 91.723 232.498C91.723 232.706 91.6791 232.896 91.5912 233.069C91.5062 233.242 91.3817 233.392 91.2177 233.518C91.0565 233.641 90.8632 233.737 90.6376 233.808C90.4149 233.875 90.1644 233.909 89.8861 233.909C89.4672 233.909 89.1127 233.834 88.8226 233.685C88.5326 233.535 88.3129 233.342 88.1635 233.104C88.014 232.867 87.9393 232.617 87.9393 232.353H88.7567C88.7684 232.576 88.8329 232.753 88.9501 232.885C89.0673 233.014 89.2108 233.106 89.3807 233.162C89.5507 233.214 89.7191 233.241 89.8861 233.241C90.1088 233.241 90.2948 233.211 90.4442 233.153C90.5966 233.094 90.7123 233.014 90.7914 232.911C90.8705 232.809 90.91 232.691 90.91 232.56ZM99.1278 233.153V233.821H94.9398V233.236L97.036 230.903C97.2938 230.616 97.493 230.373 97.6337 230.173C97.7772 229.971 97.8768 229.791 97.9325 229.633C97.9911 229.472 98.0204 229.308 98.0204 229.141C98.0204 228.93 97.9764 228.739 97.8885 228.569C97.8036 228.396 97.6776 228.259 97.5106 228.156C97.3436 228.054 97.1415 228.002 96.9042 228.002C96.62 228.002 96.3827 228.058 96.1923 228.169C96.0048 228.278 95.8641 228.43 95.7704 228.626C95.6766 228.823 95.6298 229.048 95.6298 229.303H94.8168C94.8168 228.943 94.8959 228.613 95.0541 228.314C95.2123 228.016 95.4467 227.778 95.7572 227.603C96.0677 227.424 96.4501 227.334 96.9042 227.334C97.3085 227.334 97.6542 227.406 97.9413 227.55C98.2284 227.69 98.4481 227.89 98.6005 228.147C98.7557 228.402 98.8334 228.701 98.8334 229.044C98.8334 229.231 98.8011 229.422 98.7367 229.615C98.6752 229.806 98.5887 229.996 98.4774 230.187C98.369 230.377 98.2416 230.564 98.0951 230.749C97.9515 230.934 97.7977 231.115 97.6337 231.294L95.9198 233.153H99.1278ZM104.015 230.112V231.087C104.015 231.612 103.968 232.054 103.874 232.415C103.78 232.775 103.645 233.065 103.47 233.285C103.294 233.504 103.081 233.664 102.832 233.764C102.586 233.86 102.308 233.909 101.997 233.909C101.751 233.909 101.524 233.878 101.316 233.816C101.108 233.755 100.921 233.657 100.754 233.522C100.59 233.384 100.449 233.206 100.332 232.986C100.215 232.766 100.125 232.5 100.064 232.186C100.002 231.873 99.9716 231.506 99.9716 231.087V230.112C99.9716 229.587 100.018 229.148 100.112 228.793C100.209 228.439 100.345 228.155 100.521 227.941C100.697 227.724 100.908 227.569 101.154 227.475C101.403 227.381 101.681 227.334 101.989 227.334C102.238 227.334 102.466 227.365 102.674 227.427C102.885 227.485 103.073 227.581 103.237 227.712C103.401 227.841 103.54 228.014 103.654 228.231C103.771 228.445 103.861 228.707 103.922 229.018C103.984 229.328 104.015 229.693 104.015 230.112ZM103.197 231.219V229.976C103.197 229.688 103.18 229.437 103.144 229.22C103.112 229 103.064 228.812 102.999 228.657C102.935 228.502 102.853 228.376 102.753 228.279C102.657 228.183 102.544 228.112 102.415 228.068C102.289 228.021 102.147 227.998 101.989 227.998C101.795 227.998 101.624 228.035 101.474 228.108C101.325 228.178 101.199 228.291 101.097 228.446C100.997 228.602 100.921 228.805 100.868 229.057C100.815 229.309 100.789 229.615 100.789 229.976V231.219C100.789 231.506 100.805 231.76 100.837 231.979C100.872 232.199 100.924 232.39 100.991 232.551C101.058 232.709 101.141 232.839 101.237 232.942C101.334 233.044 101.445 233.121 101.571 233.17C101.7 233.217 101.842 233.241 101.997 233.241C102.197 233.241 102.371 233.203 102.52 233.126C102.67 233.05 102.794 232.932 102.894 232.771C102.996 232.606 103.073 232.397 103.122 232.142C103.172 231.884 103.197 231.577 103.197 231.219ZM109.253 233.153V233.821H105.065V233.236L107.161 230.903C107.419 230.616 107.618 230.373 107.759 230.173C107.902 229.971 108.002 229.791 108.057 229.633C108.116 229.472 108.145 229.308 108.145 229.141C108.145 228.93 108.101 228.739 108.014 228.569C107.929 228.396 107.803 228.259 107.636 228.156C107.469 228.054 107.266 228.002 107.029 228.002C106.745 228.002 106.508 228.058 106.317 228.169C106.13 228.278 105.989 228.43 105.895 228.626C105.802 228.823 105.755 229.048 105.755 229.303H104.942C104.942 228.943 105.021 228.613 105.179 228.314C105.337 228.016 105.572 227.778 105.882 227.603C106.193 227.424 106.575 227.334 107.029 227.334C107.433 227.334 107.779 227.406 108.066 227.55C108.353 227.69 108.573 227.89 108.725 228.147C108.881 228.402 108.958 228.701 108.958 229.044C108.958 229.231 108.926 229.422 108.862 229.615C108.8 229.806 108.714 229.996 108.602 230.187C108.494 230.377 108.367 230.564 108.22 230.749C108.077 230.934 107.923 231.115 107.759 231.294L106.045 233.153H109.253ZM112.795 227.387V233.821H111.982V228.402L110.343 229V228.266L112.667 227.387H112.795Z" fill="#757575"/>
<path d="M169.81 231.128C169.81 230.979 169.787 230.847 169.74 230.732C169.696 230.615 169.617 230.51 169.503 230.416C169.391 230.322 169.236 230.233 169.037 230.148C168.84 230.063 168.591 229.977 168.29 229.889C167.973 229.795 167.688 229.691 167.433 229.577C167.178 229.459 166.96 229.326 166.778 229.177C166.596 229.027 166.457 228.856 166.36 228.663C166.264 228.469 166.215 228.248 166.215 227.999C166.215 227.75 166.267 227.52 166.369 227.309C166.472 227.098 166.618 226.915 166.809 226.76C167.002 226.602 167.232 226.479 167.499 226.391C167.765 226.303 168.063 226.259 168.391 226.259C168.871 226.259 169.278 226.351 169.612 226.536C169.949 226.717 170.206 226.956 170.381 227.252C170.557 227.545 170.645 227.858 170.645 228.192H169.801C169.801 227.952 169.75 227.74 169.648 227.555C169.545 227.368 169.39 227.221 169.182 227.116C168.974 227.007 168.71 226.953 168.391 226.953C168.089 226.953 167.84 226.999 167.644 227.089C167.447 227.18 167.301 227.303 167.204 227.458C167.11 227.614 167.064 227.791 167.064 227.99C167.064 228.125 167.091 228.248 167.147 228.359C167.206 228.468 167.295 228.569 167.415 228.663C167.538 228.756 167.693 228.843 167.881 228.922C168.071 229.001 168.298 229.077 168.562 229.15C168.925 229.253 169.239 229.367 169.503 229.493C169.766 229.619 169.983 229.761 170.153 229.919C170.326 230.075 170.453 230.252 170.535 230.451C170.62 230.647 170.663 230.87 170.663 231.119C170.663 231.38 170.61 231.616 170.505 231.827C170.399 232.038 170.248 232.218 170.052 232.367C169.856 232.517 169.62 232.632 169.344 232.714C169.072 232.793 168.767 232.833 168.43 232.833C168.134 232.833 167.843 232.792 167.556 232.71C167.272 232.628 167.012 232.505 166.778 232.341C166.547 232.177 166.36 231.975 166.22 231.734C166.082 231.491 166.013 231.21 166.013 230.891H166.857C166.857 231.11 166.9 231.299 166.984 231.458C167.069 231.613 167.185 231.742 167.332 231.844C167.481 231.947 167.65 232.023 167.837 232.073C168.027 232.12 168.225 232.143 168.43 232.143C168.726 232.143 168.977 232.102 169.182 232.02C169.387 231.938 169.542 231.821 169.648 231.668C169.756 231.516 169.81 231.336 169.81 231.128ZM174.424 231.932V229.484C174.424 229.297 174.386 229.134 174.31 228.997C174.237 228.856 174.126 228.748 173.976 228.671C173.827 228.595 173.642 228.557 173.422 228.557C173.217 228.557 173.037 228.592 172.882 228.663C172.73 228.733 172.609 228.825 172.522 228.939C172.437 229.054 172.394 229.177 172.394 229.309H171.581C171.581 229.139 171.625 228.97 171.713 228.803C171.801 228.636 171.927 228.485 172.091 228.351C172.258 228.213 172.457 228.104 172.689 228.025C172.923 227.943 173.184 227.902 173.471 227.902C173.817 227.902 174.121 227.961 174.385 228.078C174.651 228.195 174.859 228.373 175.009 228.61C175.161 228.844 175.237 229.139 175.237 229.493V231.708C175.237 231.866 175.251 232.035 175.277 232.213C175.306 232.392 175.349 232.546 175.404 232.675V232.745H174.556C174.515 232.651 174.483 232.527 174.46 232.372C174.436 232.213 174.424 232.067 174.424 231.932ZM174.565 229.862L174.574 230.434H173.752C173.521 230.434 173.314 230.453 173.132 230.491C172.951 230.526 172.798 230.58 172.675 230.653C172.552 230.727 172.459 230.819 172.394 230.93C172.33 231.039 172.297 231.166 172.297 231.312C172.297 231.462 172.331 231.598 172.399 231.721C172.466 231.844 172.567 231.942 172.702 232.016C172.839 232.086 173.008 232.121 173.207 232.121C173.456 232.121 173.676 232.068 173.866 231.963C174.057 231.857 174.208 231.729 174.319 231.576C174.433 231.424 174.495 231.276 174.504 231.132L174.851 231.523C174.83 231.646 174.775 231.783 174.684 231.932C174.593 232.082 174.471 232.225 174.319 232.363C174.17 232.498 173.991 232.61 173.783 232.701C173.578 232.789 173.346 232.833 173.089 232.833C172.766 232.833 172.484 232.77 172.24 232.644C172 232.518 171.813 232.35 171.678 232.139C171.546 231.925 171.48 231.686 171.48 231.422C171.48 231.167 171.53 230.943 171.63 230.75C171.729 230.554 171.873 230.391 172.06 230.262C172.248 230.13 172.473 230.031 172.737 229.963C173.001 229.896 173.295 229.862 173.62 229.862H174.565ZM177.4 225.995V232.745H176.582V225.995H177.4ZM180.678 232.833C180.347 232.833 180.047 232.777 179.777 232.666C179.51 232.552 179.28 232.392 179.087 232.187C178.897 231.982 178.75 231.739 178.648 231.458C178.545 231.176 178.494 230.869 178.494 230.535V230.35C178.494 229.963 178.551 229.619 178.665 229.317C178.779 229.013 178.935 228.755 179.131 228.544C179.327 228.333 179.55 228.173 179.799 228.065C180.048 227.957 180.306 227.902 180.572 227.902C180.912 227.902 181.205 227.961 181.451 228.078C181.7 228.195 181.904 228.359 182.062 228.57C182.22 228.778 182.338 229.024 182.414 229.309C182.49 229.59 182.528 229.897 182.528 230.231V230.596H178.977V229.933H181.715V229.871C181.703 229.66 181.659 229.455 181.583 229.256C181.51 229.057 181.393 228.893 181.232 228.764C181.07 228.635 180.851 228.57 180.572 228.57C180.388 228.57 180.218 228.61 180.063 228.689C179.907 228.765 179.774 228.879 179.663 229.032C179.551 229.184 179.465 229.37 179.403 229.59C179.342 229.81 179.311 230.063 179.311 230.35V230.535C179.311 230.76 179.342 230.973 179.403 231.172C179.468 231.368 179.56 231.541 179.68 231.69C179.803 231.84 179.951 231.957 180.124 232.042C180.3 232.127 180.499 232.169 180.722 232.169C181.009 232.169 181.252 232.111 181.451 231.994C181.651 231.876 181.825 231.72 181.974 231.523L182.466 231.915C182.364 232.07 182.234 232.218 182.075 232.358C181.917 232.499 181.722 232.613 181.491 232.701C181.262 232.789 180.991 232.833 180.678 232.833ZM186.246 231.484C186.246 231.367 186.219 231.258 186.167 231.159C186.117 231.056 186.013 230.964 185.855 230.882C185.699 230.797 185.465 230.724 185.151 230.662C184.888 230.606 184.649 230.541 184.435 230.464C184.224 230.388 184.044 230.296 183.895 230.188C183.748 230.079 183.635 229.952 183.556 229.805C183.477 229.659 183.438 229.487 183.438 229.291C183.438 229.104 183.479 228.926 183.561 228.759C183.646 228.592 183.764 228.444 183.917 228.315C184.072 228.187 184.258 228.085 184.475 228.012C184.692 227.939 184.933 227.902 185.2 227.902C185.581 227.902 185.906 227.97 186.175 228.104C186.445 228.239 186.651 228.419 186.795 228.645C186.939 228.868 187.01 229.115 187.01 229.388H186.197C186.197 229.256 186.158 229.128 186.079 229.005C186.003 228.879 185.89 228.775 185.74 228.693C185.594 228.611 185.414 228.57 185.2 228.57C184.974 228.57 184.791 228.605 184.651 228.676C184.513 228.743 184.412 228.83 184.347 228.935C184.286 229.041 184.255 229.152 184.255 229.269C184.255 229.357 184.27 229.436 184.299 229.506C184.331 229.574 184.387 229.637 184.466 229.695C184.545 229.751 184.656 229.804 184.8 229.854C184.943 229.903 185.127 229.953 185.349 230.003C185.739 230.091 186.06 230.196 186.312 230.319C186.564 230.442 186.751 230.593 186.874 230.772C186.997 230.951 187.059 231.167 187.059 231.422C187.059 231.63 187.015 231.821 186.927 231.994C186.842 232.167 186.717 232.316 186.553 232.442C186.392 232.565 186.199 232.662 185.973 232.732C185.751 232.799 185.5 232.833 185.222 232.833C184.803 232.833 184.448 232.758 184.158 232.609C183.868 232.459 183.649 232.266 183.499 232.029C183.35 231.792 183.275 231.541 183.275 231.277H184.092C184.104 231.5 184.169 231.677 184.286 231.809C184.403 231.938 184.547 232.03 184.716 232.086C184.886 232.139 185.055 232.165 185.222 232.165C185.444 232.165 185.63 232.136 185.78 232.077C185.932 232.019 186.048 231.938 186.127 231.835C186.206 231.733 186.246 231.616 186.246 231.484ZM194.464 232.077V232.745H190.276V232.161L192.372 229.827C192.63 229.54 192.829 229.297 192.969 229.098C193.113 228.896 193.213 228.715 193.268 228.557C193.327 228.396 193.356 228.232 193.356 228.065C193.356 227.854 193.312 227.664 193.224 227.494C193.139 227.321 193.013 227.183 192.846 227.081C192.679 226.978 192.477 226.927 192.24 226.927C191.956 226.927 191.718 226.982 191.528 227.094C191.34 227.202 191.2 227.354 191.106 227.551C191.012 227.747 190.965 227.973 190.965 228.228H190.152C190.152 227.867 190.232 227.538 190.39 227.239C190.548 226.94 190.782 226.703 191.093 226.527C191.403 226.348 191.786 226.259 192.24 226.259C192.644 226.259 192.99 226.331 193.277 226.474C193.564 226.615 193.784 226.814 193.936 227.072C194.091 227.327 194.169 227.625 194.169 227.968C194.169 228.156 194.137 228.346 194.072 228.54C194.011 228.73 193.924 228.92 193.813 229.111C193.705 229.301 193.577 229.489 193.431 229.673C193.287 229.858 193.133 230.04 192.969 230.218L191.255 232.077H194.464ZM199.35 229.036V230.012C199.35 230.536 199.303 230.979 199.21 231.339C199.116 231.699 198.981 231.989 198.805 232.209C198.63 232.429 198.417 232.588 198.168 232.688C197.922 232.785 197.644 232.833 197.333 232.833C197.087 232.833 196.86 232.802 196.652 232.741C196.444 232.679 196.256 232.581 196.089 232.446C195.925 232.309 195.785 232.13 195.668 231.91C195.55 231.69 195.461 231.424 195.4 231.11C195.338 230.797 195.307 230.431 195.307 230.012V229.036C195.307 228.512 195.354 228.072 195.448 227.718C195.545 227.363 195.681 227.079 195.857 226.865C196.032 226.648 196.243 226.493 196.489 226.399C196.738 226.306 197.017 226.259 197.324 226.259C197.573 226.259 197.802 226.29 198.01 226.351C198.221 226.41 198.408 226.505 198.572 226.637C198.736 226.766 198.876 226.938 198.99 227.155C199.107 227.369 199.196 227.631 199.258 227.942C199.319 228.252 199.35 228.617 199.35 229.036ZM198.533 230.144V228.9C198.533 228.613 198.515 228.361 198.48 228.144C198.448 227.924 198.4 227.737 198.335 227.582C198.271 227.426 198.189 227.3 198.089 227.204C197.992 227.107 197.88 227.037 197.751 226.993C197.625 226.946 197.483 226.922 197.324 226.922C197.131 226.922 196.96 226.959 196.81 227.032C196.661 227.103 196.535 227.215 196.432 227.371C196.333 227.526 196.256 227.729 196.204 227.981C196.151 228.233 196.125 228.54 196.125 228.9V230.144C196.125 230.431 196.141 230.684 196.173 230.904C196.208 231.124 196.259 231.314 196.327 231.475C196.394 231.633 196.476 231.764 196.573 231.866C196.67 231.969 196.781 232.045 196.907 232.095C197.036 232.142 197.178 232.165 197.333 232.165C197.532 232.165 197.707 232.127 197.856 232.051C198.005 231.975 198.13 231.856 198.23 231.695C198.332 231.531 198.408 231.321 198.458 231.066C198.508 230.809 198.533 230.501 198.533 230.144ZM204.589 232.077V232.745H200.401V232.161L202.497 229.827C202.755 229.54 202.954 229.297 203.094 229.098C203.238 228.896 203.338 228.715 203.393 228.557C203.452 228.396 203.481 228.232 203.481 228.065C203.481 227.854 203.437 227.664 203.349 227.494C203.264 227.321 203.138 227.183 202.971 227.081C202.804 226.978 202.602 226.927 202.365 226.927C202.081 226.927 201.843 226.982 201.653 227.094C201.465 227.202 201.325 227.354 201.231 227.551C201.137 227.747 201.09 227.973 201.09 228.228H200.277C200.277 227.867 200.357 227.538 200.515 227.239C200.673 226.94 200.907 226.703 201.218 226.527C201.528 226.348 201.911 226.259 202.365 226.259C202.769 226.259 203.115 226.331 203.402 226.474C203.689 226.615 203.909 226.814 204.061 227.072C204.216 227.327 204.294 227.625 204.294 227.968C204.294 228.156 204.262 228.346 204.197 228.54C204.136 228.73 204.049 228.92 203.938 229.111C203.83 229.301 203.702 229.489 203.556 229.673C203.412 229.858 203.258 230.04 203.094 230.218L201.38 232.077H204.589ZM208.13 226.312V232.745H207.318V227.327L205.678 227.924V227.19L208.003 226.312H208.13Z" fill="#757575"/>
<path d="M67.9409 204.848H69.769C70.48 204.848 71.0682 204.725 71.5337 204.48C72.0076 204.235 72.3589 203.896 72.5874 203.464C72.8159 203.033 72.9302 202.538 72.9302 201.979C72.9302 201.395 72.8244 200.896 72.6128 200.481C72.4097 200.058 72.0965 199.732 71.6733 199.503C71.2586 199.275 70.7297 199.161 70.0864 199.161C69.5448 199.161 69.0539 199.271 68.6138 199.491C68.1821 199.702 67.8394 200.007 67.5854 200.405C67.3315 200.794 67.2046 201.26 67.2046 201.801H64.1323C64.1323 200.819 64.3905 199.948 64.9067 199.186C65.423 198.424 66.1255 197.828 67.0142 197.396C67.9113 196.956 68.9185 196.736 70.0356 196.736C71.229 196.736 72.27 196.935 73.1587 197.333C74.0558 197.722 74.7541 198.306 75.2534 199.084C75.7528 199.863 76.0024 200.828 76.0024 201.979C76.0024 202.504 75.8797 203.037 75.6343 203.579C75.3888 204.12 75.0249 204.615 74.5425 205.064C74.0601 205.504 73.4591 205.864 72.7397 206.143C72.0203 206.414 71.1867 206.549 70.2388 206.549H67.9409V204.848ZM67.9409 207.235V205.559H70.2388C71.3221 205.559 72.2446 205.686 73.0063 205.94C73.7765 206.194 74.4028 206.545 74.8853 206.994C75.3677 207.434 75.7189 207.937 75.939 208.504C76.1675 209.071 76.2817 209.672 76.2817 210.307C76.2817 211.17 76.1252 211.941 75.812 212.618C75.5073 213.286 75.0715 213.853 74.5044 214.319C73.9373 214.784 73.2729 215.136 72.5112 215.373C71.758 215.61 70.937 215.728 70.0483 215.728C69.2528 215.728 68.491 215.618 67.7632 215.398C67.0353 215.178 66.3836 214.852 65.8081 214.42C65.2326 213.98 64.7756 213.434 64.437 212.783C64.1069 212.123 63.9419 211.361 63.9419 210.498H67.0015C67.0015 211.048 67.1284 211.534 67.3823 211.958C67.6447 212.372 68.0086 212.698 68.4741 212.935C68.9481 213.172 69.4897 213.291 70.0991 213.291C70.7424 213.291 71.2967 213.176 71.7622 212.948C72.2277 212.719 72.5832 212.381 72.8286 211.932C73.0825 211.484 73.2095 210.942 73.2095 210.307C73.2095 209.588 73.0698 209.004 72.7905 208.555C72.5112 208.107 72.1134 207.777 71.5972 207.565C71.0809 207.345 70.4715 207.235 69.769 207.235H67.9409ZM91.1733 204.683V207.705C91.1733 209.152 91.0295 210.388 90.7417 211.412C90.4624 212.427 90.0562 213.252 89.5229 213.887C88.9897 214.522 88.3507 214.987 87.606 215.284C86.8696 215.58 86.0444 215.728 85.1304 215.728C84.4025 215.728 83.7254 215.635 83.0991 215.449C82.4813 215.263 81.9227 214.971 81.4233 214.573C80.924 214.175 80.4966 213.663 80.1411 213.037C79.7941 212.402 79.5233 211.644 79.3286 210.764C79.1424 209.884 79.0493 208.864 79.0493 207.705V204.683C79.0493 203.227 79.1932 202 79.481 201.001C79.7687 199.994 80.1792 199.178 80.7124 198.551C81.2456 197.917 81.8804 197.455 82.6167 197.167C83.3615 196.88 84.1909 196.736 85.105 196.736C85.8413 196.736 86.5184 196.829 87.1362 197.015C87.7625 197.193 88.3211 197.476 88.812 197.866C89.3114 198.255 89.7345 198.763 90.0815 199.389C90.437 200.007 90.7078 200.756 90.894 201.636C91.0802 202.508 91.1733 203.524 91.1733 204.683ZM88.1138 208.136V204.226C88.1138 203.49 88.0715 202.842 87.9868 202.284C87.9022 201.717 87.7752 201.238 87.606 200.849C87.4451 200.451 87.242 200.13 86.9966 199.884C86.7511 199.63 86.4718 199.448 86.1587 199.338C85.8455 199.22 85.4943 199.161 85.105 199.161C84.631 199.161 84.2078 199.254 83.8354 199.44C83.4631 199.618 83.1499 199.905 82.896 200.303C82.6421 200.701 82.4474 201.226 82.312 201.877C82.1851 202.521 82.1216 203.304 82.1216 204.226V208.136C82.1216 208.881 82.1639 209.537 82.2485 210.104C82.3332 210.671 82.4601 211.158 82.6294 211.564C82.7987 211.962 83.0018 212.292 83.2388 212.554C83.4842 212.808 83.7635 212.994 84.0767 213.113C84.3983 213.231 84.7495 213.291 85.1304 213.291C85.6128 213.291 86.0402 213.197 86.4126 213.011C86.785 212.825 87.0981 212.529 87.3521 212.123C87.606 211.708 87.7964 211.17 87.9233 210.51C88.0503 209.85 88.1138 209.059 88.1138 208.136ZM93.7759 201.522V200.544C93.7759 199.842 93.9282 199.203 94.2329 198.627C94.5376 198.052 94.9819 197.591 95.5659 197.244C96.1499 196.897 96.8524 196.723 97.6733 196.723C98.5197 196.723 99.2306 196.897 99.8062 197.244C100.39 197.591 100.834 198.052 101.139 198.627C101.444 199.203 101.596 199.842 101.596 200.544V201.522C101.596 202.208 101.444 202.838 101.139 203.414C100.843 203.989 100.403 204.45 99.8188 204.797C99.2433 205.144 98.5366 205.318 97.6987 205.318C96.8693 205.318 96.1584 205.144 95.5659 204.797C94.9819 204.45 94.5376 203.989 94.2329 203.414C93.9282 202.838 93.7759 202.208 93.7759 201.522ZM95.896 200.544V201.522C95.896 201.861 95.9595 202.182 96.0864 202.487C96.2218 202.792 96.425 203.037 96.6958 203.223C96.9666 203.409 97.3009 203.502 97.6987 203.502C98.105 203.502 98.4351 203.409 98.689 203.223C98.9513 203.037 99.146 202.792 99.2729 202.487C99.3999 202.182 99.4634 201.861 99.4634 201.522V200.544C99.4634 200.197 99.3957 199.872 99.2603 199.567C99.1333 199.254 98.9386 199.004 98.6763 198.818C98.4139 198.632 98.0796 198.539 97.6733 198.539C97.284 198.539 96.9539 198.632 96.6831 198.818C96.4207 199.004 96.2218 199.254 96.0864 199.567C95.9595 199.872 95.896 200.197 95.896 200.544ZM102.688 211.932V210.942C102.688 210.248 102.84 209.613 103.145 209.038C103.458 208.462 103.907 208.001 104.491 207.654C105.075 207.307 105.777 207.133 106.598 207.133C107.444 207.133 108.155 207.307 108.731 207.654C109.315 208.001 109.755 208.462 110.051 209.038C110.356 209.613 110.508 210.248 110.508 210.942V211.932C110.508 212.626 110.356 213.261 110.051 213.836C109.755 214.412 109.319 214.873 108.744 215.22C108.168 215.567 107.466 215.741 106.636 215.741C105.798 215.741 105.083 215.567 104.491 215.22C103.907 214.873 103.458 214.412 103.145 213.836C102.84 213.261 102.688 212.626 102.688 211.932ZM104.821 210.942V211.932C104.821 212.271 104.889 212.592 105.024 212.897C105.168 213.202 105.375 213.451 105.646 213.646C105.917 213.832 106.243 213.925 106.624 213.925C107.055 213.925 107.402 213.832 107.665 213.646C107.927 213.451 108.113 213.206 108.223 212.91C108.342 212.605 108.401 212.279 108.401 211.932V210.942C108.401 210.595 108.333 210.269 108.198 209.964C108.071 209.66 107.872 209.414 107.601 209.228C107.339 209.042 107.004 208.949 106.598 208.949C106.2 208.949 105.87 209.042 105.608 209.228C105.346 209.414 105.147 209.66 105.011 209.964C104.884 210.269 104.821 210.595 104.821 210.942ZM107.36 199.63L98.3335 214.078L96.772 213.176L105.798 198.729L107.36 199.63Z" fill="#333333"/>
<path d="M111.429 104.417H111.683C112.851 104.417 113.824 104.264 114.603 103.959C115.39 103.646 116.016 103.215 116.482 102.665C116.947 102.114 117.282 101.467 117.485 100.722C117.688 99.9774 117.789 99.1691 117.789 98.2974V95.1108C117.789 94.3576 117.709 93.6974 117.548 93.1304C117.396 92.5549 117.176 92.0767 116.888 91.6958C116.609 91.3065 116.283 91.0145 115.911 90.8198C115.547 90.6252 115.153 90.5278 114.73 90.5278C114.264 90.5278 113.845 90.6336 113.473 90.8452C113.109 91.0483 112.8 91.3319 112.546 91.6958C112.301 92.0513 112.11 92.4702 111.975 92.9526C111.848 93.4266 111.785 93.9344 111.785 94.4761C111.785 94.9839 111.844 95.4748 111.962 95.9487C112.089 96.4142 112.275 96.8289 112.521 97.1929C112.766 97.5568 113.075 97.8446 113.448 98.0562C113.82 98.2677 114.256 98.3735 114.755 98.3735C115.229 98.3735 115.665 98.2847 116.063 98.1069C116.461 97.9207 116.808 97.6711 117.104 97.3579C117.4 97.0448 117.633 96.6935 117.802 96.3042C117.971 95.9149 118.064 95.5171 118.081 95.1108L119.249 95.4663C119.249 96.1095 119.114 96.7443 118.843 97.3706C118.581 97.9884 118.213 98.5555 117.739 99.0718C117.273 99.5796 116.727 99.9858 116.101 100.291C115.483 100.595 114.81 100.748 114.082 100.748C113.202 100.748 112.424 100.583 111.746 100.252C111.078 99.9139 110.519 99.4569 110.071 98.8813C109.631 98.3058 109.3 97.6457 109.08 96.9009C108.86 96.1561 108.75 95.3732 108.75 94.5522C108.75 93.6636 108.886 92.8299 109.157 92.0513C109.427 91.2726 109.821 90.5871 110.337 89.9946C110.854 89.3937 111.48 88.9282 112.216 88.5981C112.961 88.2596 113.803 88.0903 114.743 88.0903C115.741 88.0903 116.617 88.285 117.37 88.6743C118.124 89.0636 118.759 89.6011 119.275 90.2866C119.791 90.9722 120.18 91.7677 120.443 92.6733C120.705 93.5789 120.836 94.5522 120.836 95.5933V96.6724C120.836 97.7642 120.739 98.8179 120.544 99.8335C120.35 100.841 120.032 101.776 119.592 102.639C119.161 103.494 118.589 104.247 117.878 104.899C117.176 105.542 116.313 106.046 115.288 106.41C114.273 106.765 113.079 106.943 111.708 106.943H111.429V104.417ZM135.829 101.789C135.829 102.94 135.563 103.909 135.03 104.696C134.496 105.483 133.769 106.08 132.846 106.486C131.932 106.884 130.899 107.083 129.748 107.083C128.597 107.083 127.561 106.884 126.638 106.486C125.716 106.08 124.988 105.483 124.454 104.696C123.921 103.909 123.655 102.94 123.655 101.789C123.655 101.027 123.803 100.337 124.099 99.7192C124.395 99.0929 124.814 98.5555 125.356 98.1069C125.906 97.6499 126.549 97.2987 127.286 97.0532C128.03 96.8078 128.843 96.6851 129.723 96.6851C130.891 96.6851 131.936 96.9009 132.859 97.3325C133.781 97.7642 134.505 98.3608 135.03 99.1226C135.563 99.8843 135.829 100.773 135.829 101.789ZM132.757 101.636C132.757 101.018 132.63 100.477 132.376 100.011C132.122 99.5457 131.767 99.186 131.31 98.9321C130.853 98.6782 130.324 98.5513 129.723 98.5513C129.114 98.5513 128.585 98.6782 128.136 98.9321C127.688 99.186 127.336 99.5457 127.082 100.011C126.837 100.477 126.714 101.018 126.714 101.636C126.714 102.263 126.837 102.804 127.082 103.261C127.328 103.71 127.679 104.053 128.136 104.29C128.593 104.527 129.131 104.645 129.748 104.645C130.366 104.645 130.899 104.527 131.348 104.29C131.797 104.053 132.144 103.71 132.389 103.261C132.634 102.804 132.757 102.263 132.757 101.636ZM135.411 93.2065C135.411 94.1291 135.165 94.95 134.674 95.6694C134.192 96.3888 133.523 96.9559 132.668 97.3706C131.814 97.7769 130.84 97.98 129.748 97.98C128.648 97.98 127.666 97.7769 126.803 97.3706C125.948 96.9559 125.275 96.3888 124.785 95.6694C124.302 94.95 124.061 94.1291 124.061 93.2065C124.061 92.1063 124.302 91.1795 124.785 90.4263C125.275 89.6646 125.948 89.0848 126.803 88.687C127.658 88.2892 128.635 88.0903 129.736 88.0903C130.836 88.0903 131.814 88.2892 132.668 88.687C133.523 89.0848 134.192 89.6646 134.674 90.4263C135.165 91.1795 135.411 92.1063 135.411 93.2065ZM132.351 93.3081C132.351 92.758 132.241 92.2756 132.021 91.8608C131.809 91.4377 131.509 91.1076 131.12 90.8706C130.73 90.6336 130.269 90.5151 129.736 90.5151C129.203 90.5151 128.741 90.6294 128.352 90.8579C127.963 91.0864 127.662 91.408 127.451 91.8228C127.239 92.2375 127.133 92.7326 127.133 93.3081C127.133 93.8752 127.239 94.3703 127.451 94.7935C127.662 95.2082 127.963 95.534 128.352 95.771C128.75 96.008 129.215 96.1265 129.748 96.1265C130.282 96.1265 130.743 96.008 131.132 95.771C131.522 95.534 131.822 95.2082 132.034 94.7935C132.245 94.3703 132.351 93.8752 132.351 93.3081ZM138.394 92.8765V91.8989C138.394 91.1965 138.546 90.5575 138.851 89.9819C139.156 89.4064 139.6 88.9451 140.184 88.5981C140.768 88.2511 141.47 88.0776 142.291 88.0776C143.138 88.0776 143.849 88.2511 144.424 88.5981C145.008 88.9451 145.453 89.4064 145.757 89.9819C146.062 90.5575 146.214 91.1965 146.214 91.8989V92.8765C146.214 93.562 146.062 94.1925 145.757 94.7681C145.461 95.3436 145.021 95.8049 144.437 96.1519C143.861 96.4989 143.155 96.6724 142.317 96.6724C141.487 96.6724 140.776 96.4989 140.184 96.1519C139.6 95.8049 139.156 95.3436 138.851 94.7681C138.546 94.1925 138.394 93.562 138.394 92.8765ZM140.514 91.8989V92.8765C140.514 93.215 140.578 93.5366 140.704 93.8413C140.84 94.146 141.043 94.3914 141.314 94.5776C141.585 94.7638 141.919 94.8569 142.317 94.8569C142.723 94.8569 143.053 94.7638 143.307 94.5776C143.569 94.3914 143.764 94.146 143.891 93.8413C144.018 93.5366 144.081 93.215 144.081 92.8765V91.8989C144.081 91.5519 144.014 91.2261 143.878 90.9214C143.751 90.6082 143.557 90.3586 143.294 90.1724C143.032 89.9862 142.698 89.8931 142.291 89.8931C141.902 89.8931 141.572 89.9862 141.301 90.1724C141.039 90.3586 140.84 90.6082 140.704 90.9214C140.578 91.2261 140.514 91.5519 140.514 91.8989ZM147.306 103.287V102.296C147.306 101.602 147.458 100.968 147.763 100.392C148.076 99.8166 148.525 99.3553 149.109 99.0083C149.693 98.6613 150.395 98.4878 151.216 98.4878C152.063 98.4878 152.773 98.6613 153.349 99.0083C153.933 99.3553 154.373 99.8166 154.669 100.392C154.974 100.968 155.126 101.602 155.126 102.296V103.287C155.126 103.981 154.974 104.615 154.669 105.191C154.373 105.766 153.937 106.228 153.362 106.575C152.786 106.922 152.084 107.095 151.254 107.095C150.416 107.095 149.701 106.922 149.109 106.575C148.525 106.228 148.076 105.766 147.763 105.191C147.458 104.615 147.306 103.981 147.306 103.287ZM149.439 102.296V103.287C149.439 103.625 149.507 103.947 149.642 104.251C149.786 104.556 149.993 104.806 150.264 105C150.535 105.187 150.861 105.28 151.242 105.28C151.673 105.28 152.02 105.187 152.283 105C152.545 104.806 152.731 104.56 152.841 104.264C152.96 103.959 153.019 103.634 153.019 103.287V102.296C153.019 101.949 152.951 101.624 152.816 101.319C152.689 101.014 152.49 100.769 152.219 100.583C151.957 100.396 151.622 100.303 151.216 100.303C150.818 100.303 150.488 100.396 150.226 100.583C149.964 100.769 149.765 101.014 149.629 101.319C149.502 101.624 149.439 101.949 149.439 102.296ZM151.978 90.9849L142.952 105.432L141.39 104.531L150.416 90.0835L151.978 90.9849Z" fill="#1D2130"/>
<path d="M173.022 196.926V215.474H169.963V200.557L165.43 202.093V199.567L172.654 196.926H173.022ZM182.658 206.879L180.22 206.283L181.223 196.99H191.189V199.58H183.762L183.255 204.112C183.542 203.943 183.94 203.778 184.448 203.617C184.956 203.447 185.535 203.363 186.187 203.363C187.059 203.363 187.838 203.507 188.523 203.794C189.217 204.074 189.805 204.484 190.288 205.026C190.77 205.559 191.138 206.211 191.392 206.981C191.646 207.743 191.773 208.602 191.773 209.558C191.773 210.413 191.646 211.213 191.392 211.958C191.147 212.702 190.774 213.358 190.275 213.925C189.776 214.492 189.145 214.937 188.383 215.258C187.63 215.571 186.737 215.728 185.705 215.728C184.935 215.728 184.194 215.618 183.483 215.398C182.781 215.169 182.15 214.835 181.591 214.395C181.033 213.946 180.584 213.396 180.246 212.745C179.907 212.084 179.713 211.327 179.662 210.472H182.658C182.734 211.073 182.899 211.585 183.153 212.008C183.415 212.423 183.762 212.74 184.194 212.96C184.626 213.181 185.125 213.291 185.692 213.291C186.208 213.291 186.653 213.202 187.025 213.024C187.397 212.838 187.706 212.575 187.952 212.237C188.206 211.89 188.392 211.484 188.51 211.018C188.637 210.553 188.701 210.036 188.701 209.469C188.701 208.928 188.629 208.432 188.485 207.984C188.35 207.535 188.142 207.146 187.863 206.816C187.592 206.486 187.249 206.232 186.835 206.054C186.42 205.868 185.942 205.775 185.4 205.775C184.672 205.775 184.114 205.881 183.724 206.092C183.343 206.304 182.988 206.566 182.658 206.879ZM206.271 204.683V207.705C206.271 209.152 206.127 210.388 205.839 211.412C205.56 212.427 205.154 213.252 204.621 213.887C204.088 214.522 203.449 214.987 202.704 215.284C201.967 215.58 201.142 215.728 200.228 215.728C199.5 215.728 198.823 215.635 198.197 215.449C197.579 215.263 197.02 214.971 196.521 214.573C196.022 214.175 195.594 213.663 195.239 213.037C194.892 212.402 194.621 211.644 194.426 210.764C194.24 209.884 194.147 208.864 194.147 207.705V204.683C194.147 203.227 194.291 202 194.579 201.001C194.866 199.994 195.277 199.178 195.81 198.551C196.343 197.917 196.978 197.455 197.714 197.167C198.459 196.88 199.289 196.736 200.203 196.736C200.939 196.736 201.616 196.829 202.234 197.015C202.86 197.193 203.419 197.476 203.91 197.866C204.409 198.255 204.832 198.763 205.179 199.389C205.535 200.007 205.806 200.756 205.992 201.636C206.178 202.508 206.271 203.524 206.271 204.683ZM203.212 208.136V204.226C203.212 203.49 203.169 202.842 203.085 202.284C203 201.717 202.873 201.238 202.704 200.849C202.543 200.451 202.34 200.13 202.094 199.884C201.849 199.63 201.57 199.448 201.256 199.338C200.943 199.22 200.592 199.161 200.203 199.161C199.729 199.161 199.306 199.254 198.933 199.44C198.561 199.618 198.248 199.905 197.994 200.303C197.74 200.701 197.545 201.226 197.41 201.877C197.283 202.521 197.219 203.304 197.219 204.226V208.136C197.219 208.881 197.262 209.537 197.346 210.104C197.431 210.671 197.558 211.158 197.727 211.564C197.896 211.962 198.1 212.292 198.337 212.554C198.582 212.808 198.861 212.994 199.174 213.113C199.496 213.231 199.847 213.291 200.228 213.291C200.711 213.291 201.138 213.197 201.51 213.011C201.883 212.825 202.196 212.529 202.45 212.123C202.704 211.708 202.894 211.17 203.021 210.51C203.148 209.85 203.212 209.059 203.212 208.136Z" fill="#333333"/>
<rect x="39.8008" y="200.29" width="16.5363" height="16.529" rx="4" fill="#E0E4FC"/>
<rect x="139.019" y="200.29" width="16.5363" height="16.529" rx="4" fill="#6B7CFF"/>
<path d="M141.47 164.71C105.088 168.059 72.8787 141.279 69.5299 104.897C66.181 68.5138 92.9603 36.3049 129.343 32.956C165.726 29.6071 197.935 56.3864 201.284 92.7692C204.633 129.152 177.853 161.361 141.47 164.71ZM131.02 51.1782C104.701 53.6008 85.3295 76.9004 87.752 103.219C90.1746 129.538 113.474 148.91 139.793 146.488C166.112 144.065 185.484 120.765 183.061 94.4465C180.639 68.1275 157.339 48.7557 131.02 51.1782Z" fill="#E0E4FC"/>
<path d="M86.3372 127.847C81.9875 130.419 80.5003 136.08 83.6473 140.034C89.1745 146.977 96.0628 152.763 103.923 157.016C114.476 162.727 126.383 165.459 138.37 164.922C150.357 164.384 161.972 160.597 171.972 153.965C181.971 147.333 189.979 138.106 195.137 127.272C200.295 116.439 202.41 104.406 201.255 92.4628C200.099 80.5196 195.717 69.1155 188.578 59.4714C181.439 49.8274 171.811 42.3067 160.726 37.7144C152.469 34.294 143.636 32.5941 134.761 32.6807C129.708 32.73 126.251 37.453 126.997 42.4509V42.4509C127.742 47.4488 132.421 50.8034 137.47 51.0212C143.033 51.2613 148.535 52.4715 153.722 54.6204C161.741 57.9424 168.706 63.3828 173.87 70.3592C179.035 77.3356 182.205 85.5852 183.041 94.2249C183.876 102.864 182.347 111.569 178.615 119.406C174.884 127.243 169.091 133.917 161.858 138.715C154.624 143.512 146.222 146.252 137.551 146.641C128.879 147.03 120.266 145.053 112.632 140.922C107.693 138.25 103.286 134.742 99.5923 130.575C96.2407 126.793 90.6869 125.275 86.3372 127.847V127.847Z" fill="#6B7CFF"/>
</svg>
