<svg width="177" height="59" viewBox="0 0 177 59" fill="none" xmlns="http://www.w3.org/2000/svg">
<rect x="1" y="1" width="175" height="57" rx="7" fill="#E0E4FC" stroke="#CACFFA" stroke-width="2"/>
<path d="M20.1069 18.6016V25H19.272V18.6016H20.1069ZM22.1636 18.6016V19.2959H17.2197V18.6016H22.1636ZM22.335 22.6753V22.5742C22.335 22.2314 22.3848 21.9136 22.4844 21.6206C22.584 21.3247 22.7275 21.0684 22.915 20.8516C23.1025 20.6318 23.3296 20.4619 23.5962 20.3418C23.8628 20.2188 24.1616 20.1572 24.4927 20.1572C24.8267 20.1572 25.127 20.2188 25.3936 20.3418C25.6631 20.4619 25.8916 20.6318 26.0791 20.8516C26.2695 21.0684 26.4146 21.3247 26.5142 21.6206C26.6138 21.9136 26.6636 22.2314 26.6636 22.5742V22.6753C26.6636 23.0181 26.6138 23.3359 26.5142 23.6289C26.4146 23.9219 26.2695 24.1782 26.0791 24.3979C25.8916 24.6147 25.6646 24.7847 25.3979 24.9077C25.1343 25.0278 24.8354 25.0879 24.5015 25.0879C24.1675 25.0879 23.8672 25.0278 23.6006 24.9077C23.334 24.7847 23.1055 24.6147 22.915 24.3979C22.7275 24.1782 22.584 23.9219 22.4844 23.6289C22.3848 23.3359 22.335 23.0181 22.335 22.6753ZM23.1479 22.5742V22.6753C23.1479 22.9126 23.1758 23.1367 23.2314 23.3477C23.2871 23.5557 23.3706 23.7402 23.4819 23.9014C23.5962 24.0625 23.7383 24.1899 23.9082 24.2837C24.0781 24.3745 24.2759 24.4199 24.5015 24.4199C24.7241 24.4199 24.9189 24.3745 25.0859 24.2837C25.2559 24.1899 25.3965 24.0625 25.5078 23.9014C25.6191 23.7402 25.7026 23.5557 25.7583 23.3477C25.8169 23.1367 25.8462 22.9126 25.8462 22.6753V22.5742C25.8462 22.3398 25.8169 22.1187 25.7583 21.9106C25.7026 21.6997 25.6177 21.5137 25.5034 21.3525C25.3921 21.1885 25.2515 21.0596 25.0815 20.9658C24.9146 20.8721 24.7183 20.8252 24.4927 20.8252C24.27 20.8252 24.0737 20.8721 23.9038 20.9658C23.7368 21.0596 23.5962 21.1885 23.4819 21.3525C23.3706 21.5137 23.2871 21.6997 23.2314 21.9106C23.1758 22.1187 23.1479 22.3398 23.1479 22.5742ZM29.6738 20.2451V20.8691H27.103V20.2451H29.6738ZM27.9731 19.0894H28.7861V23.8223C28.7861 23.9834 28.811 24.105 28.8608 24.187C28.9106 24.269 28.9751 24.3232 29.0542 24.3496C29.1333 24.376 29.2183 24.3892 29.3091 24.3892C29.3765 24.3892 29.4468 24.3833 29.52 24.3716C29.5962 24.3569 29.6533 24.3452 29.6914 24.3364L29.6958 25C29.6313 25.0205 29.5464 25.0396 29.4409 25.0571C29.3384 25.0776 29.2139 25.0879 29.0674 25.0879C28.8682 25.0879 28.6851 25.0483 28.5181 24.9692C28.3511 24.8901 28.2178 24.7583 28.1182 24.5737C28.0215 24.3862 27.9731 24.1343 27.9731 23.8179V19.0894ZM33.4312 24.187V21.7393C33.4312 21.5518 33.3931 21.3892 33.3169 21.2515C33.2437 21.1108 33.1323 21.0024 32.9829 20.9263C32.8335 20.8501 32.6489 20.812 32.4292 20.812C32.2241 20.812 32.0439 20.8472 31.8887 20.9175C31.7363 20.9878 31.6162 21.0801 31.5283 21.1943C31.4434 21.3086 31.4009 21.4316 31.4009 21.5635H30.5879C30.5879 21.3936 30.6318 21.2251 30.7197 21.0581C30.8076 20.8911 30.9336 20.7402 31.0977 20.6055C31.2646 20.4678 31.4639 20.3594 31.6953 20.2803C31.9297 20.1982 32.1904 20.1572 32.4775 20.1572C32.8232 20.1572 33.1279 20.2158 33.3916 20.333C33.6582 20.4502 33.8662 20.6274 34.0156 20.8647C34.168 21.0991 34.2441 21.3936 34.2441 21.748V23.9629C34.2441 24.1211 34.2573 24.2896 34.2837 24.4683C34.313 24.647 34.3555 24.8008 34.4111 24.9297V25H33.563C33.522 24.9062 33.4897 24.7817 33.4663 24.6265C33.4429 24.4683 33.4312 24.3218 33.4312 24.187ZM33.5718 22.1172L33.5806 22.6885H32.7588C32.5273 22.6885 32.3208 22.7075 32.1392 22.7456C31.9575 22.7808 31.8052 22.835 31.6821 22.9082C31.5591 22.9814 31.4653 23.0737 31.4009 23.1851C31.3364 23.2935 31.3042 23.4209 31.3042 23.5674C31.3042 23.7168 31.3379 23.853 31.4053 23.9761C31.4727 24.0991 31.5737 24.1973 31.7085 24.2705C31.8462 24.3408 32.0146 24.376 32.2139 24.376C32.4629 24.376 32.6826 24.3232 32.873 24.2178C33.0635 24.1123 33.2144 23.9834 33.3257 23.8311C33.4399 23.6787 33.5015 23.5308 33.5103 23.3872L33.8574 23.7783C33.8369 23.9014 33.7812 24.0376 33.6904 24.187C33.5996 24.3364 33.478 24.48 33.3257 24.6177C33.1763 24.7524 32.9976 24.8652 32.7896 24.9561C32.5845 25.0439 32.353 25.0879 32.0952 25.0879C31.7729 25.0879 31.4902 25.0249 31.2471 24.8989C31.0068 24.7729 30.8193 24.6045 30.6846 24.3936C30.5527 24.1797 30.4868 23.9409 30.4868 23.6772C30.4868 23.4224 30.5366 23.1982 30.6362 23.0049C30.7358 22.8086 30.8794 22.646 31.0669 22.5171C31.2544 22.3853 31.48 22.2856 31.7437 22.2183C32.0073 22.1509 32.3018 22.1172 32.627 22.1172H33.5718ZM36.4062 18.25V25H35.5889V18.25H36.4062ZM43.9297 22.9653H44.7734C44.7295 23.3696 44.6138 23.7314 44.4263 24.0508C44.2388 24.3701 43.9736 24.6235 43.6309 24.811C43.2881 24.9956 42.8604 25.0879 42.3477 25.0879C41.9727 25.0879 41.6313 25.0176 41.3237 24.877C41.019 24.7363 40.7568 24.5371 40.5371 24.2793C40.3174 24.0186 40.1475 23.7065 40.0273 23.3433C39.9102 22.9771 39.8516 22.5698 39.8516 22.1216V21.4844C39.8516 21.0361 39.9102 20.6304 40.0273 20.2671C40.1475 19.9009 40.3188 19.5874 40.5415 19.3267C40.7671 19.0659 41.0381 18.8652 41.3545 18.7246C41.6709 18.584 42.0269 18.5137 42.4224 18.5137C42.9058 18.5137 43.3145 18.6045 43.6484 18.7861C43.9824 18.9678 44.2417 19.2197 44.4263 19.542C44.6138 19.8613 44.7295 20.2319 44.7734 20.6538H43.9297C43.8887 20.355 43.8125 20.0986 43.7012 19.8848C43.5898 19.668 43.4316 19.501 43.2266 19.3838C43.0215 19.2666 42.7534 19.208 42.4224 19.208C42.1382 19.208 41.8877 19.2622 41.6709 19.3706C41.457 19.479 41.2769 19.6328 41.1304 19.832C40.9868 20.0312 40.8784 20.27 40.8052 20.5483C40.7319 20.8267 40.6953 21.1357 40.6953 21.4756V22.1216C40.6953 22.4351 40.7275 22.7295 40.792 23.0049C40.8594 23.2803 40.9604 23.522 41.0952 23.73C41.23 23.938 41.4014 24.1021 41.6094 24.2222C41.8174 24.3394 42.0635 24.3979 42.3477 24.3979C42.708 24.3979 42.9951 24.3408 43.209 24.2266C43.4229 24.1123 43.584 23.9482 43.6924 23.7344C43.8037 23.5205 43.8828 23.2642 43.9297 22.9653ZM46.6895 18.25V25H45.8721V18.25H46.6895ZM48.8779 20.2451V25H48.0605V20.2451H48.8779ZM47.999 18.9839C47.999 18.8521 48.0386 18.7407 48.1177 18.6499C48.1997 18.5591 48.3198 18.5137 48.478 18.5137C48.6333 18.5137 48.752 18.5591 48.834 18.6499C48.9189 18.7407 48.9614 18.8521 48.9614 18.9839C48.9614 19.1099 48.9189 19.2183 48.834 19.3091C48.752 19.397 48.6333 19.4409 48.478 19.4409C48.3198 19.4409 48.1997 19.397 48.1177 19.3091C48.0386 19.2183 47.999 19.1099 47.999 18.9839ZM52.1562 25.0879C51.8252 25.0879 51.5249 25.0322 51.2554 24.9209C50.9888 24.8066 50.7588 24.647 50.5654 24.4419C50.375 24.2368 50.2285 23.9937 50.126 23.7124C50.0234 23.4312 49.9722 23.1235 49.9722 22.7896V22.605C49.9722 22.2183 50.0293 21.874 50.1436 21.5723C50.2578 21.2676 50.4131 21.0098 50.6094 20.7988C50.8057 20.5879 51.0283 20.4282 51.2773 20.3198C51.5264 20.2114 51.7842 20.1572 52.0508 20.1572C52.3906 20.1572 52.6836 20.2158 52.9297 20.333C53.1787 20.4502 53.3823 20.6143 53.5405 20.8252C53.6987 21.0332 53.8159 21.2793 53.8921 21.5635C53.9683 21.8447 54.0063 22.1523 54.0063 22.4863V22.8511H50.4556V22.1875H53.1934V22.126C53.1816 21.915 53.1377 21.71 53.0615 21.5107C52.9883 21.3115 52.8711 21.1475 52.71 21.0186C52.5488 20.8896 52.3291 20.8252 52.0508 20.8252C51.8662 20.8252 51.6963 20.8647 51.541 20.9438C51.3857 21.02 51.2524 21.1343 51.1411 21.2866C51.0298 21.439 50.9434 21.625 50.8818 21.8447C50.8203 22.0645 50.7896 22.3179 50.7896 22.605V22.7896C50.7896 23.0151 50.8203 23.2275 50.8818 23.4268C50.9463 23.623 51.0386 23.7959 51.1587 23.9453C51.2817 24.0947 51.4297 24.2119 51.6025 24.2969C51.7783 24.3818 51.9775 24.4243 52.2002 24.4243C52.4873 24.4243 52.7305 24.3657 52.9297 24.2485C53.1289 24.1313 53.3032 23.9746 53.4526 23.7783L53.9448 24.1694C53.8423 24.3247 53.7119 24.4727 53.5537 24.6133C53.3955 24.7539 53.2007 24.8682 52.9692 24.9561C52.7407 25.0439 52.4697 25.0879 52.1562 25.0879ZM55.7686 21.2603V25H54.9556V20.2451H55.7246L55.7686 21.2603ZM55.5752 22.4424L55.2368 22.4292C55.2397 22.104 55.2881 21.8037 55.3818 21.5283C55.4756 21.25 55.6074 21.0083 55.7773 20.8032C55.9473 20.5981 56.1494 20.4399 56.3838 20.3286C56.6211 20.2144 56.8833 20.1572 57.1704 20.1572C57.4048 20.1572 57.6157 20.1895 57.8032 20.2539C57.9907 20.3154 58.1504 20.415 58.2822 20.5527C58.417 20.6904 58.5195 20.8691 58.5898 21.0889C58.6602 21.3057 58.6953 21.5708 58.6953 21.8843V25H57.8779V21.8755C57.8779 21.6265 57.8413 21.4272 57.7681 21.2778C57.6948 21.1255 57.5879 21.0156 57.4473 20.9482C57.3066 20.8779 57.1338 20.8428 56.9287 20.8428C56.7266 20.8428 56.542 20.8853 56.375 20.9702C56.2109 21.0552 56.0688 21.1724 55.9487 21.3218C55.8315 21.4712 55.7393 21.6426 55.6719 21.8359C55.6074 22.0264 55.5752 22.2285 55.5752 22.4424ZM61.9209 20.2451V20.8691H59.3501V20.2451H61.9209ZM60.2202 19.0894H61.0332V23.8223C61.0332 23.9834 61.0581 24.105 61.1079 24.187C61.1577 24.269 61.2222 24.3232 61.3013 24.3496C61.3804 24.376 61.4653 24.3892 61.5562 24.3892C61.6235 24.3892 61.6938 24.3833 61.7671 24.3716C61.8433 24.3569 61.9004 24.3452 61.9385 24.3364L61.9429 25C61.8784 25.0205 61.7935 25.0396 61.688 25.0571C61.5854 25.0776 61.4609 25.0879 61.3145 25.0879C61.1152 25.0879 60.9321 25.0483 60.7651 24.9692C60.5981 24.8901 60.4648 24.7583 60.3652 24.5737C60.2686 24.3862 60.2202 24.1343 60.2202 23.8179V19.0894Z" fill="black"/>
<path d="M19.3042 40.7026L18.0854 40.4043L18.5869 35.7578H23.5698V37.0527H19.8564L19.6025 39.3188C19.7464 39.2342 19.9453 39.1517 20.1992 39.0713C20.4531 38.9867 20.743 38.9443 21.0688 38.9443C21.5047 38.9443 21.894 39.0163 22.2368 39.1602C22.5838 39.2998 22.8779 39.505 23.1191 39.7759C23.3604 40.0425 23.5444 40.3683 23.6714 40.7534C23.7983 41.1343 23.8618 41.5638 23.8618 42.042C23.8618 42.4694 23.7983 42.8693 23.6714 43.2417C23.5487 43.6141 23.3625 43.9421 23.1128 44.2256C22.8631 44.5091 22.5479 44.7313 22.167 44.8921C21.7904 45.0487 21.3439 45.127 20.8276 45.127C20.4425 45.127 20.0723 45.0719 19.7168 44.9619C19.3656 44.8477 19.0503 44.6805 18.771 44.4604C18.4917 44.2362 18.2674 43.9611 18.0981 43.6353C17.9289 43.3052 17.8315 42.9264 17.8062 42.499H19.3042C19.3423 42.7995 19.4248 43.0555 19.5518 43.2671C19.6829 43.4744 19.8564 43.6331 20.0723 43.7432C20.2881 43.8532 20.5378 43.9082 20.8213 43.9082C21.0794 43.9082 21.3016 43.8638 21.4878 43.7749C21.674 43.6818 21.8285 43.5506 21.9512 43.3813C22.0781 43.2078 22.1712 43.0047 22.2305 42.772C22.2939 42.5392 22.3257 42.2811 22.3257 41.9976C22.3257 41.7267 22.2897 41.4792 22.2178 41.2549C22.1501 41.0306 22.0464 40.8359 21.9067 40.6709C21.7713 40.5059 21.5999 40.3789 21.3926 40.29C21.1852 40.1969 20.9461 40.1504 20.6753 40.1504C20.3114 40.1504 20.0321 40.2033 19.8374 40.3091C19.647 40.4149 19.4692 40.5461 19.3042 40.7026ZM26.8833 39.687H27.7974C28.1528 39.687 28.4469 39.6257 28.6797 39.5029C28.9167 39.3802 29.0923 39.2109 29.2065 38.9951C29.3208 38.7793 29.3779 38.5317 29.3779 38.2524C29.3779 37.9604 29.325 37.7108 29.2192 37.5034C29.1177 37.2918 28.9611 37.1289 28.7495 37.0146C28.5422 36.9004 28.2777 36.8433 27.9561 36.8433C27.6852 36.8433 27.4398 36.8983 27.2197 37.0083C27.0039 37.1141 26.8325 37.2664 26.7056 37.4653C26.5786 37.66 26.5151 37.8927 26.5151 38.1636H24.979C24.979 37.6727 25.1081 37.2368 25.3662 36.856C25.6243 36.4751 25.9756 36.1768 26.4199 35.9609C26.8685 35.7409 27.3721 35.6309 27.9307 35.6309C28.5273 35.6309 29.0479 35.7303 29.4922 35.9292C29.9408 36.1239 30.2899 36.4159 30.5396 36.8052C30.7892 37.1945 30.9141 37.6769 30.9141 38.2524C30.9141 38.5148 30.8527 38.7814 30.73 39.0522C30.6073 39.3231 30.4253 39.5706 30.1841 39.7949C29.9429 40.015 29.6424 40.1948 29.2827 40.3345C28.923 40.4699 28.5062 40.5376 28.0322 40.5376H26.8833V39.687ZM26.8833 40.8804V40.0425H28.0322C28.5739 40.0425 29.0352 40.106 29.416 40.2329C29.8011 40.3599 30.1143 40.5355 30.3555 40.7598C30.5967 40.9798 30.7723 41.2316 30.8823 41.5151C30.9966 41.7987 31.0537 42.0991 31.0537 42.4165C31.0537 42.8481 30.9754 43.2332 30.8188 43.5718C30.6665 43.9061 30.4486 44.1896 30.165 44.4224C29.8815 44.6551 29.5493 44.8307 29.1685 44.9492C28.7918 45.0677 28.3813 45.127 27.937 45.127C27.5392 45.127 27.1584 45.0719 26.7944 44.9619C26.4305 44.8519 26.1047 44.689 25.8169 44.4731C25.5291 44.2531 25.3006 43.9801 25.1313 43.6543C24.9663 43.3242 24.8838 42.9434 24.8838 42.5117H26.4136C26.4136 42.7868 26.4771 43.0301 26.604 43.2417C26.7352 43.4491 26.9172 43.612 27.1499 43.7305C27.3869 43.849 27.6577 43.9082 27.9624 43.9082C28.284 43.9082 28.5612 43.8511 28.7939 43.7368C29.0267 43.6226 29.2044 43.4533 29.3271 43.229C29.4541 43.0047 29.5176 42.7339 29.5176 42.4165C29.5176 42.0568 29.4478 41.7648 29.3081 41.5405C29.1685 41.3162 28.9696 41.1512 28.7114 41.0454C28.4533 40.9354 28.1486 40.8804 27.7974 40.8804H26.8833ZM34.272 39.687H35.186C35.5415 39.687 35.8356 39.6257 36.0684 39.5029C36.3053 39.3802 36.481 39.2109 36.5952 38.9951C36.7095 38.7793 36.7666 38.5317 36.7666 38.2524C36.7666 37.9604 36.7137 37.7108 36.6079 37.5034C36.5063 37.2918 36.3498 37.1289 36.1382 37.0146C35.9308 36.9004 35.6663 36.8433 35.3447 36.8433C35.0739 36.8433 34.8285 36.8983 34.6084 37.0083C34.3926 37.1141 34.2212 37.2664 34.0942 37.4653C33.9673 37.66 33.9038 37.8927 33.9038 38.1636H32.3677C32.3677 37.6727 32.4967 37.2368 32.7549 36.856C33.013 36.4751 33.3643 36.1768 33.8086 35.9609C34.2572 35.7409 34.7607 35.6309 35.3193 35.6309C35.916 35.6309 36.4365 35.7303 36.8809 35.9292C37.3294 36.1239 37.6785 36.4159 37.9282 36.8052C38.1779 37.1945 38.3027 37.6769 38.3027 38.2524C38.3027 38.5148 38.2414 38.7814 38.1187 39.0522C37.9959 39.3231 37.814 39.5706 37.5728 39.7949C37.3315 40.015 37.0311 40.1948 36.6714 40.3345C36.3117 40.4699 35.8949 40.5376 35.4209 40.5376H34.272V39.687ZM34.272 40.8804V40.0425H35.4209C35.9626 40.0425 36.4238 40.106 36.8047 40.2329C37.1898 40.3599 37.5029 40.5355 37.7441 40.7598C37.9854 40.9798 38.161 41.2316 38.271 41.5151C38.3853 41.7987 38.4424 42.0991 38.4424 42.4165C38.4424 42.8481 38.3641 43.2332 38.2075 43.5718C38.0552 43.9061 37.8372 44.1896 37.5537 44.4224C37.2702 44.6551 36.938 44.8307 36.5571 44.9492C36.1805 45.0677 35.77 45.127 35.3257 45.127C34.9279 45.127 34.547 45.0719 34.1831 44.9619C33.8192 44.8519 33.4933 44.689 33.2056 44.4731C32.9178 44.2531 32.6893 43.9801 32.52 43.6543C32.355 43.3242 32.2725 42.9434 32.2725 42.5117H33.8022C33.8022 42.7868 33.8657 43.0301 33.9927 43.2417C34.1239 43.4491 34.3058 43.612 34.5386 43.7305C34.7756 43.849 35.0464 43.9082 35.3511 43.9082C35.6727 43.9082 35.9499 43.8511 36.1826 43.7368C36.4154 43.6226 36.5931 43.4533 36.7158 43.229C36.8428 43.0047 36.9062 42.7339 36.9062 42.4165C36.9062 42.0568 36.8364 41.7648 36.6968 41.5405C36.5571 41.3162 36.3582 41.1512 36.1001 41.0454C35.842 40.9354 35.5373 40.8804 35.186 40.8804H34.272ZM45.9199 39.9346V41.312H39.585V39.9346H45.9199ZM43.4951 37.3447V44.0732H42.0161V37.3447H43.4951Z" fill="black"/>
<path d="M56.3047 40.4238V41.4434H50.457V40.4238H56.3047ZM53.9258 37.9336V44.1445H52.8418V37.9336H53.9258ZM58.8887 40.9395L58.0215 40.7168L58.4492 36.4688H62.8262V37.4707H59.3691L59.1113 39.791C59.2676 39.7012 59.4648 39.6172 59.7031 39.5391C59.9453 39.4609 60.2227 39.4219 60.5352 39.4219C60.9297 39.4219 61.2832 39.4902 61.5957 39.627C61.9082 39.7598 62.1738 39.9512 62.3926 40.2012C62.6152 40.4512 62.7852 40.752 62.9023 41.1035C63.0195 41.4551 63.0781 41.8477 63.0781 42.2812C63.0781 42.6914 63.0215 43.0684 62.9082 43.4121C62.7988 43.7559 62.6328 44.0566 62.4102 44.3145C62.1875 44.5684 61.9062 44.7656 61.5664 44.9062C61.2305 45.0469 60.834 45.1172 60.377 45.1172C60.0332 45.1172 59.707 45.0703 59.3984 44.9766C59.0938 44.8789 58.8203 44.7324 58.5781 44.5371C58.3398 44.3379 58.1445 44.0918 57.9922 43.7988C57.8438 43.502 57.75 43.1543 57.7109 42.7559H58.7422C58.7891 43.0762 58.8828 43.3457 59.0234 43.5645C59.1641 43.7832 59.3477 43.9492 59.5742 44.0625C59.8047 44.1719 60.0723 44.2266 60.377 44.2266C60.6348 44.2266 60.8633 44.1816 61.0625 44.0918C61.2617 44.002 61.4297 43.873 61.5664 43.7051C61.7031 43.5371 61.8066 43.334 61.877 43.0957C61.9512 42.8574 61.9883 42.5898 61.9883 42.293C61.9883 42.0234 61.9512 41.7734 61.877 41.543C61.8027 41.3125 61.6914 41.1113 61.543 40.9395C61.3984 40.7676 61.2207 40.6348 61.0098 40.541C60.7988 40.4434 60.5566 40.3945 60.2832 40.3945C59.9199 40.3945 59.6445 40.4434 59.457 40.541C59.2734 40.6387 59.084 40.7715 58.8887 40.9395ZM65.6387 40.9395L64.7715 40.7168L65.1992 36.4688H69.5762V37.4707H66.1191L65.8613 39.791C66.0176 39.7012 66.2148 39.6172 66.4531 39.5391C66.6953 39.4609 66.9727 39.4219 67.2852 39.4219C67.6797 39.4219 68.0332 39.4902 68.3457 39.627C68.6582 39.7598 68.9238 39.9512 69.1426 40.2012C69.3652 40.4512 69.5352 40.752 69.6523 41.1035C69.7695 41.4551 69.8281 41.8477 69.8281 42.2812C69.8281 42.6914 69.7715 43.0684 69.6582 43.4121C69.5488 43.7559 69.3828 44.0566 69.1602 44.3145C68.9375 44.5684 68.6562 44.7656 68.3164 44.9062C67.9805 45.0469 67.584 45.1172 67.127 45.1172C66.7832 45.1172 66.457 45.0703 66.1484 44.9766C65.8438 44.8789 65.5703 44.7324 65.3281 44.5371C65.0898 44.3379 64.8945 44.0918 64.7422 43.7988C64.5938 43.502 64.5 43.1543 64.4609 42.7559H65.4922C65.5391 43.0762 65.6328 43.3457 65.7734 43.5645C65.9141 43.7832 66.0977 43.9492 66.3242 44.0625C66.5547 44.1719 66.8223 44.2266 67.127 44.2266C67.3848 44.2266 67.6133 44.1816 67.8125 44.0918C68.0117 44.002 68.1797 43.873 68.3164 43.7051C68.4531 43.5371 68.5566 43.334 68.627 43.0957C68.7012 42.8574 68.7383 42.5898 68.7383 42.293C68.7383 42.0234 68.7012 41.7734 68.627 41.543C68.5527 41.3125 68.4414 41.1113 68.293 40.9395C68.1484 40.7676 67.9707 40.6348 67.7598 40.541C67.5488 40.4434 67.3066 40.3945 67.0332 40.3945C66.6699 40.3945 66.3945 40.4434 66.207 40.541C66.0234 40.6387 65.834 40.7715 65.6387 40.9395ZM70.9238 38.5605V38.1094C70.9238 37.7852 70.9941 37.4902 71.1348 37.2246C71.2754 36.959 71.4766 36.7461 71.7383 36.5859C72 36.4258 72.3105 36.3457 72.6699 36.3457C73.0371 36.3457 73.3496 36.4258 73.6074 36.5859C73.8691 36.7461 74.0703 36.959 74.2109 37.2246C74.3516 37.4902 74.4219 37.7852 74.4219 38.1094V38.5605C74.4219 38.877 74.3516 39.168 74.2109 39.4336C74.0742 39.6992 73.875 39.9121 73.6133 40.0723C73.3555 40.2324 73.0449 40.3125 72.6816 40.3125C72.3184 40.3125 72.0039 40.2324 71.7383 40.0723C71.4766 39.9121 71.2754 39.6992 71.1348 39.4336C70.9941 39.168 70.9238 38.877 70.9238 38.5605ZM71.7383 38.1094V38.5605C71.7383 38.7402 71.7715 38.9102 71.8379 39.0703C71.9082 39.2305 72.0137 39.3613 72.1543 39.4629C72.2949 39.5605 72.4707 39.6094 72.6816 39.6094C72.8926 39.6094 73.0664 39.5605 73.2031 39.4629C73.3398 39.3613 73.4414 39.2305 73.5078 39.0703C73.5742 38.9102 73.6074 38.7402 73.6074 38.5605V38.1094C73.6074 37.9258 73.5723 37.7539 73.502 37.5938C73.4355 37.4297 73.332 37.2988 73.1914 37.2012C73.0547 37.0996 72.8809 37.0488 72.6699 37.0488C72.4629 37.0488 72.2891 37.0996 72.1484 37.2012C72.0117 37.2988 71.9082 37.4297 71.8379 37.5938C71.7715 37.7539 71.7383 37.9258 71.7383 38.1094ZM75.0781 43.3652V42.9082C75.0781 42.5879 75.1484 42.2949 75.2891 42.0293C75.4297 41.7637 75.6309 41.5508 75.8926 41.3906C76.1543 41.2305 76.4648 41.1504 76.8242 41.1504C77.1914 41.1504 77.5039 41.2305 77.7617 41.3906C78.0234 41.5508 78.2246 41.7637 78.3652 42.0293C78.5059 42.2949 78.5762 42.5879 78.5762 42.9082V43.3652C78.5762 43.6855 78.5059 43.9785 78.3652 44.2441C78.2285 44.5098 78.0293 44.7227 77.7676 44.8828C77.5098 45.043 77.1992 45.123 76.8359 45.123C76.4727 45.123 76.1602 45.043 75.8984 44.8828C75.6367 44.7227 75.4336 44.5098 75.2891 44.2441C75.1484 43.9785 75.0781 43.6855 75.0781 43.3652ZM75.8926 42.9082V43.3652C75.8926 43.5449 75.9258 43.7168 75.9922 43.8809C76.0625 44.041 76.168 44.1719 76.3086 44.2734C76.4492 44.3711 76.625 44.4199 76.8359 44.4199C77.0469 44.4199 77.2207 44.3711 77.3574 44.2734C77.498 44.1719 77.6016 44.041 77.668 43.8809C77.7344 43.7207 77.7676 43.5488 77.7676 43.3652V42.9082C77.7676 42.7246 77.7324 42.5527 77.6621 42.3926C77.5957 42.2324 77.4922 42.1035 77.3516 42.0059C77.2148 41.9043 77.0391 41.8535 76.8242 41.8535C76.6172 41.8535 76.4434 41.9043 76.3027 42.0059C76.166 42.1035 76.0625 42.2324 75.9922 42.3926C75.9258 42.5527 75.8926 42.7246 75.8926 42.9082ZM77.0938 37.6816L72.9277 44.3496L72.3184 43.9629L76.4844 37.2949L77.0938 37.6816Z" fill="black"/>
<rect x="127" y="16" width="31" height="31" rx="8" fill="#6B7CFF"/>
<rect x="136" y="25" width="12" height="15" rx="3" fill="white"/>
<path d="M145 29H148.636H149L145 24V29Z" stroke="#6B7CFF"/>
<line x1="140" y1="33.5" x2="145" y2="33.5" stroke="#6B7CFF"/>
<line x1="140" y1="35.5" x2="145" y2="35.5" stroke="#6B7CFF"/>
</svg>
