<svg width="251" height="309" viewBox="0 0 251 309" fill="none" xmlns="http://www.w3.org/2000/svg">
<rect x="1" y="1" width="249" height="307" rx="23" fill="white" stroke="#CACFFA" stroke-width="2"/>
<rect x="31" y="231" width="175" height="57" rx="7" fill="#E0E4FC" stroke="#CACFFA" stroke-width="2"/>
<path d="M50.1069 248.602V255H49.272V248.602H50.1069ZM52.1636 248.602V249.296H47.2197V248.602H52.1636ZM52.335 252.675V252.574C52.335 252.231 52.3848 251.914 52.4844 251.621C52.584 251.325 52.7275 251.068 52.915 250.852C53.1025 250.632 53.3296 250.462 53.5962 250.342C53.8628 250.219 54.1616 250.157 54.4927 250.157C54.8267 250.157 55.127 250.219 55.3936 250.342C55.6631 250.462 55.8916 250.632 56.0791 250.852C56.2695 251.068 56.4146 251.325 56.5142 251.621C56.6138 251.914 56.6636 252.231 56.6636 252.574V252.675C56.6636 253.018 56.6138 253.336 56.5142 253.629C56.4146 253.922 56.2695 254.178 56.0791 254.398C55.8916 254.615 55.6646 254.785 55.3979 254.908C55.1343 255.028 54.8354 255.088 54.5015 255.088C54.1675 255.088 53.8672 255.028 53.6006 254.908C53.334 254.785 53.1055 254.615 52.915 254.398C52.7275 254.178 52.584 253.922 52.4844 253.629C52.3848 253.336 52.335 253.018 52.335 252.675ZM53.1479 252.574V252.675C53.1479 252.913 53.1758 253.137 53.2314 253.348C53.2871 253.556 53.3706 253.74 53.4819 253.901C53.5962 254.062 53.7383 254.19 53.9082 254.284C54.0781 254.375 54.2759 254.42 54.5015 254.42C54.7241 254.42 54.9189 254.375 55.0859 254.284C55.2559 254.19 55.3965 254.062 55.5078 253.901C55.6191 253.74 55.7026 253.556 55.7583 253.348C55.8169 253.137 55.8462 252.913 55.8462 252.675V252.574C55.8462 252.34 55.8169 252.119 55.7583 251.911C55.7026 251.7 55.6177 251.514 55.5034 251.353C55.3921 251.188 55.2515 251.06 55.0815 250.966C54.9146 250.872 54.7183 250.825 54.4927 250.825C54.27 250.825 54.0737 250.872 53.9038 250.966C53.7368 251.06 53.5962 251.188 53.4819 251.353C53.3706 251.514 53.2871 251.7 53.2314 251.911C53.1758 252.119 53.1479 252.34 53.1479 252.574ZM59.6738 250.245V250.869H57.103V250.245H59.6738ZM57.9731 249.089H58.7861V253.822C58.7861 253.983 58.811 254.105 58.8608 254.187C58.9106 254.269 58.9751 254.323 59.0542 254.35C59.1333 254.376 59.2183 254.389 59.3091 254.389C59.3765 254.389 59.4468 254.383 59.52 254.372C59.5962 254.357 59.6533 254.345 59.6914 254.336L59.6958 255C59.6313 255.021 59.5464 255.04 59.4409 255.057C59.3384 255.078 59.2139 255.088 59.0674 255.088C58.8682 255.088 58.6851 255.048 58.5181 254.969C58.3511 254.89 58.2178 254.758 58.1182 254.574C58.0215 254.386 57.9731 254.134 57.9731 253.818V249.089ZM63.4312 254.187V251.739C63.4312 251.552 63.3931 251.389 63.3169 251.251C63.2437 251.111 63.1323 251.002 62.9829 250.926C62.8335 250.85 62.6489 250.812 62.4292 250.812C62.2241 250.812 62.0439 250.847 61.8887 250.917C61.7363 250.988 61.6162 251.08 61.5283 251.194C61.4434 251.309 61.4009 251.432 61.4009 251.563H60.5879C60.5879 251.394 60.6318 251.225 60.7197 251.058C60.8076 250.891 60.9336 250.74 61.0977 250.605C61.2646 250.468 61.4639 250.359 61.6953 250.28C61.9297 250.198 62.1904 250.157 62.4775 250.157C62.8232 250.157 63.1279 250.216 63.3916 250.333C63.6582 250.45 63.8662 250.627 64.0156 250.865C64.168 251.099 64.2441 251.394 64.2441 251.748V253.963C64.2441 254.121 64.2573 254.29 64.2837 254.468C64.313 254.647 64.3555 254.801 64.4111 254.93V255H63.563C63.522 254.906 63.4897 254.782 63.4663 254.626C63.4429 254.468 63.4312 254.322 63.4312 254.187ZM63.5718 252.117L63.5806 252.688H62.7588C62.5273 252.688 62.3208 252.708 62.1392 252.746C61.9575 252.781 61.8052 252.835 61.6821 252.908C61.5591 252.981 61.4653 253.074 61.4009 253.185C61.3364 253.293 61.3042 253.421 61.3042 253.567C61.3042 253.717 61.3379 253.853 61.4053 253.976C61.4727 254.099 61.5737 254.197 61.7085 254.271C61.8462 254.341 62.0146 254.376 62.2139 254.376C62.4629 254.376 62.6826 254.323 62.873 254.218C63.0635 254.112 63.2144 253.983 63.3257 253.831C63.4399 253.679 63.5015 253.531 63.5103 253.387L63.8574 253.778C63.8369 253.901 63.7812 254.038 63.6904 254.187C63.5996 254.336 63.478 254.48 63.3257 254.618C63.1763 254.752 62.9976 254.865 62.7896 254.956C62.5845 255.044 62.353 255.088 62.0952 255.088C61.7729 255.088 61.4902 255.025 61.2471 254.899C61.0068 254.773 60.8193 254.604 60.6846 254.394C60.5527 254.18 60.4868 253.941 60.4868 253.677C60.4868 253.422 60.5366 253.198 60.6362 253.005C60.7358 252.809 60.8794 252.646 61.0669 252.517C61.2544 252.385 61.48 252.286 61.7437 252.218C62.0073 252.151 62.3018 252.117 62.627 252.117H63.5718ZM66.4062 248.25V255H65.5889V248.25H66.4062ZM73.9297 252.965H74.7734C74.7295 253.37 74.6138 253.731 74.4263 254.051C74.2388 254.37 73.9736 254.624 73.6309 254.811C73.2881 254.996 72.8604 255.088 72.3477 255.088C71.9727 255.088 71.6313 255.018 71.3237 254.877C71.019 254.736 70.7568 254.537 70.5371 254.279C70.3174 254.019 70.1475 253.707 70.0273 253.343C69.9102 252.977 69.8516 252.57 69.8516 252.122V251.484C69.8516 251.036 69.9102 250.63 70.0273 250.267C70.1475 249.901 70.3188 249.587 70.5415 249.327C70.7671 249.066 71.0381 248.865 71.3545 248.725C71.6709 248.584 72.0269 248.514 72.4224 248.514C72.9058 248.514 73.3145 248.604 73.6484 248.786C73.9824 248.968 74.2417 249.22 74.4263 249.542C74.6138 249.861 74.7295 250.232 74.7734 250.654H73.9297C73.8887 250.355 73.8125 250.099 73.7012 249.885C73.5898 249.668 73.4316 249.501 73.2266 249.384C73.0215 249.267 72.7534 249.208 72.4224 249.208C72.1382 249.208 71.8877 249.262 71.6709 249.371C71.457 249.479 71.2769 249.633 71.1304 249.832C70.9868 250.031 70.8784 250.27 70.8052 250.548C70.7319 250.827 70.6953 251.136 70.6953 251.476V252.122C70.6953 252.435 70.7275 252.729 70.792 253.005C70.8594 253.28 70.9604 253.522 71.0952 253.73C71.23 253.938 71.4014 254.102 71.6094 254.222C71.8174 254.339 72.0635 254.398 72.3477 254.398C72.708 254.398 72.9951 254.341 73.209 254.227C73.4229 254.112 73.584 253.948 73.6924 253.734C73.8037 253.521 73.8828 253.264 73.9297 252.965ZM76.6895 248.25V255H75.8721V248.25H76.6895ZM78.8779 250.245V255H78.0605V250.245H78.8779ZM77.999 248.984C77.999 248.852 78.0386 248.741 78.1177 248.65C78.1997 248.559 78.3198 248.514 78.478 248.514C78.6333 248.514 78.752 248.559 78.834 248.65C78.9189 248.741 78.9614 248.852 78.9614 248.984C78.9614 249.11 78.9189 249.218 78.834 249.309C78.752 249.397 78.6333 249.441 78.478 249.441C78.3198 249.441 78.1997 249.397 78.1177 249.309C78.0386 249.218 77.999 249.11 77.999 248.984ZM82.1562 255.088C81.8252 255.088 81.5249 255.032 81.2554 254.921C80.9888 254.807 80.7588 254.647 80.5654 254.442C80.375 254.237 80.2285 253.994 80.126 253.712C80.0234 253.431 79.9722 253.124 79.9722 252.79V252.605C79.9722 252.218 80.0293 251.874 80.1436 251.572C80.2578 251.268 80.4131 251.01 80.6094 250.799C80.8057 250.588 81.0283 250.428 81.2773 250.32C81.5264 250.211 81.7842 250.157 82.0508 250.157C82.3906 250.157 82.6836 250.216 82.9297 250.333C83.1787 250.45 83.3823 250.614 83.5405 250.825C83.6987 251.033 83.8159 251.279 83.8921 251.563C83.9683 251.845 84.0063 252.152 84.0063 252.486V252.851H80.4556V252.188H83.1934V252.126C83.1816 251.915 83.1377 251.71 83.0615 251.511C82.9883 251.312 82.8711 251.147 82.71 251.019C82.5488 250.89 82.3291 250.825 82.0508 250.825C81.8662 250.825 81.6963 250.865 81.541 250.944C81.3857 251.02 81.2524 251.134 81.1411 251.287C81.0298 251.439 80.9434 251.625 80.8818 251.845C80.8203 252.064 80.7896 252.318 80.7896 252.605V252.79C80.7896 253.015 80.8203 253.228 80.8818 253.427C80.9463 253.623 81.0386 253.796 81.1587 253.945C81.2817 254.095 81.4297 254.212 81.6025 254.297C81.7783 254.382 81.9775 254.424 82.2002 254.424C82.4873 254.424 82.7305 254.366 82.9297 254.249C83.1289 254.131 83.3032 253.975 83.4526 253.778L83.9448 254.169C83.8423 254.325 83.7119 254.473 83.5537 254.613C83.3955 254.754 83.2007 254.868 82.9692 254.956C82.7407 255.044 82.4697 255.088 82.1562 255.088ZM85.7686 251.26V255H84.9556V250.245H85.7246L85.7686 251.26ZM85.5752 252.442L85.2368 252.429C85.2397 252.104 85.2881 251.804 85.3818 251.528C85.4756 251.25 85.6074 251.008 85.7773 250.803C85.9473 250.598 86.1494 250.44 86.3838 250.329C86.6211 250.214 86.8833 250.157 87.1704 250.157C87.4048 250.157 87.6157 250.189 87.8032 250.254C87.9907 250.315 88.1504 250.415 88.2822 250.553C88.417 250.69 88.5195 250.869 88.5898 251.089C88.6602 251.306 88.6953 251.571 88.6953 251.884V255H87.8779V251.875C87.8779 251.626 87.8413 251.427 87.7681 251.278C87.6948 251.125 87.5879 251.016 87.4473 250.948C87.3066 250.878 87.1338 250.843 86.9287 250.843C86.7266 250.843 86.542 250.885 86.375 250.97C86.2109 251.055 86.0688 251.172 85.9487 251.322C85.8315 251.471 85.7393 251.643 85.6719 251.836C85.6074 252.026 85.5752 252.229 85.5752 252.442ZM91.9209 250.245V250.869H89.3501V250.245H91.9209ZM90.2202 249.089H91.0332V253.822C91.0332 253.983 91.0581 254.105 91.1079 254.187C91.1577 254.269 91.2222 254.323 91.3013 254.35C91.3804 254.376 91.4653 254.389 91.5562 254.389C91.6235 254.389 91.6938 254.383 91.7671 254.372C91.8433 254.357 91.9004 254.345 91.9385 254.336L91.9429 255C91.8784 255.021 91.7935 255.04 91.688 255.057C91.5854 255.078 91.4609 255.088 91.3145 255.088C91.1152 255.088 90.9321 255.048 90.7651 254.969C90.5981 254.89 90.4648 254.758 90.3652 254.574C90.2686 254.386 90.2202 254.134 90.2202 253.818V249.089Z" fill="#757575"/>
<path d="M49.3042 270.703L48.0854 270.404L48.5869 265.758H53.5698V267.053H49.8564L49.6025 269.319C49.7464 269.234 49.9453 269.152 50.1992 269.071C50.4531 268.987 50.743 268.944 51.0688 268.944C51.5047 268.944 51.894 269.016 52.2368 269.16C52.5838 269.3 52.8779 269.505 53.1191 269.776C53.3604 270.042 53.5444 270.368 53.6714 270.753C53.7983 271.134 53.8618 271.564 53.8618 272.042C53.8618 272.469 53.7983 272.869 53.6714 273.242C53.5487 273.614 53.3625 273.942 53.1128 274.226C52.8631 274.509 52.5479 274.731 52.167 274.892C51.7904 275.049 51.3439 275.127 50.8276 275.127C50.4425 275.127 50.0723 275.072 49.7168 274.962C49.3656 274.848 49.0503 274.681 48.771 274.46C48.4917 274.236 48.2674 273.961 48.0981 273.635C47.9289 273.305 47.8315 272.926 47.8062 272.499H49.3042C49.3423 272.799 49.4248 273.056 49.5518 273.267C49.6829 273.474 49.8564 273.633 50.0723 273.743C50.2881 273.853 50.5378 273.908 50.8213 273.908C51.0794 273.908 51.3016 273.864 51.4878 273.775C51.674 273.682 51.8285 273.551 51.9512 273.381C52.0781 273.208 52.1712 273.005 52.2305 272.772C52.2939 272.539 52.3257 272.281 52.3257 271.998C52.3257 271.727 52.2897 271.479 52.2178 271.255C52.1501 271.031 52.0464 270.836 51.9067 270.671C51.7713 270.506 51.5999 270.379 51.3926 270.29C51.1852 270.197 50.9461 270.15 50.6753 270.15C50.3114 270.15 50.0321 270.203 49.8374 270.309C49.647 270.415 49.4692 270.546 49.3042 270.703ZM56.8833 269.687H57.7974C58.1528 269.687 58.4469 269.626 58.6797 269.503C58.9167 269.38 59.0923 269.211 59.2065 268.995C59.3208 268.779 59.3779 268.532 59.3779 268.252C59.3779 267.96 59.325 267.711 59.2192 267.503C59.1177 267.292 58.9611 267.129 58.7495 267.015C58.5422 266.9 58.2777 266.843 57.9561 266.843C57.6852 266.843 57.4398 266.898 57.2197 267.008C57.0039 267.114 56.8325 267.266 56.7056 267.465C56.5786 267.66 56.5151 267.893 56.5151 268.164H54.979C54.979 267.673 55.1081 267.237 55.3662 266.856C55.6243 266.475 55.9756 266.177 56.4199 265.961C56.8685 265.741 57.3721 265.631 57.9307 265.631C58.5273 265.631 59.0479 265.73 59.4922 265.929C59.9408 266.124 60.2899 266.416 60.5396 266.805C60.7892 267.194 60.9141 267.677 60.9141 268.252C60.9141 268.515 60.8527 268.781 60.73 269.052C60.6073 269.323 60.4253 269.571 60.1841 269.795C59.9429 270.015 59.6424 270.195 59.2827 270.334C58.923 270.47 58.5062 270.538 58.0322 270.538H56.8833V269.687ZM56.8833 270.88V270.042H58.0322C58.5739 270.042 59.0352 270.106 59.416 270.233C59.8011 270.36 60.1143 270.535 60.3555 270.76C60.5967 270.98 60.7723 271.232 60.8823 271.515C60.9966 271.799 61.0537 272.099 61.0537 272.417C61.0537 272.848 60.9754 273.233 60.8188 273.572C60.6665 273.906 60.4486 274.19 60.165 274.422C59.8815 274.655 59.5493 274.831 59.1685 274.949C58.7918 275.068 58.3813 275.127 57.937 275.127C57.5392 275.127 57.1584 275.072 56.7944 274.962C56.4305 274.852 56.1047 274.689 55.8169 274.473C55.5291 274.253 55.3006 273.98 55.1313 273.654C54.9663 273.324 54.8838 272.943 54.8838 272.512H56.4136C56.4136 272.787 56.4771 273.03 56.604 273.242C56.7352 273.449 56.9172 273.612 57.1499 273.73C57.3869 273.849 57.6577 273.908 57.9624 273.908C58.284 273.908 58.5612 273.851 58.7939 273.737C59.0267 273.623 59.2044 273.453 59.3271 273.229C59.4541 273.005 59.5176 272.734 59.5176 272.417C59.5176 272.057 59.4478 271.765 59.3081 271.541C59.1685 271.316 58.9696 271.151 58.7114 271.045C58.4533 270.935 58.1486 270.88 57.7974 270.88H56.8833ZM64.272 269.687H65.186C65.5415 269.687 65.8356 269.626 66.0684 269.503C66.3053 269.38 66.481 269.211 66.5952 268.995C66.7095 268.779 66.7666 268.532 66.7666 268.252C66.7666 267.96 66.7137 267.711 66.6079 267.503C66.5063 267.292 66.3498 267.129 66.1382 267.015C65.9308 266.9 65.6663 266.843 65.3447 266.843C65.0739 266.843 64.8285 266.898 64.6084 267.008C64.3926 267.114 64.2212 267.266 64.0942 267.465C63.9673 267.66 63.9038 267.893 63.9038 268.164H62.3677C62.3677 267.673 62.4967 267.237 62.7549 266.856C63.013 266.475 63.3643 266.177 63.8086 265.961C64.2572 265.741 64.7607 265.631 65.3193 265.631C65.916 265.631 66.4365 265.73 66.8809 265.929C67.3294 266.124 67.6785 266.416 67.9282 266.805C68.1779 267.194 68.3027 267.677 68.3027 268.252C68.3027 268.515 68.2414 268.781 68.1187 269.052C67.9959 269.323 67.814 269.571 67.5728 269.795C67.3315 270.015 67.0311 270.195 66.6714 270.334C66.3117 270.47 65.8949 270.538 65.4209 270.538H64.272V269.687ZM64.272 270.88V270.042H65.4209C65.9626 270.042 66.4238 270.106 66.8047 270.233C67.1898 270.36 67.5029 270.535 67.7441 270.76C67.9854 270.98 68.161 271.232 68.271 271.515C68.3853 271.799 68.4424 272.099 68.4424 272.417C68.4424 272.848 68.3641 273.233 68.2075 273.572C68.0552 273.906 67.8372 274.19 67.5537 274.422C67.2702 274.655 66.938 274.831 66.5571 274.949C66.1805 275.068 65.77 275.127 65.3257 275.127C64.9279 275.127 64.547 275.072 64.1831 274.962C63.8192 274.852 63.4933 274.689 63.2056 274.473C62.9178 274.253 62.6893 273.98 62.52 273.654C62.355 273.324 62.2725 272.943 62.2725 272.512H63.8022C63.8022 272.787 63.8657 273.03 63.9927 273.242C64.1239 273.449 64.3058 273.612 64.5386 273.73C64.7756 273.849 65.0464 273.908 65.3511 273.908C65.6727 273.908 65.9499 273.851 66.1826 273.737C66.4154 273.623 66.5931 273.453 66.7158 273.229C66.8428 273.005 66.9062 272.734 66.9062 272.417C66.9062 272.057 66.8364 271.765 66.6968 271.541C66.5571 271.316 66.3582 271.151 66.1001 271.045C65.842 270.935 65.5373 270.88 65.186 270.88H64.272ZM75.9199 269.935V271.312H69.585V269.935H75.9199ZM73.4951 267.345V274.073H72.0161V267.345H73.4951Z" fill="black"/>
<path d="M86.3047 270.424V271.443H80.457V270.424H86.3047ZM83.9258 267.934V274.145H82.8418V267.934H83.9258ZM88.8887 270.939L88.0215 270.717L88.4492 266.469H92.8262V267.471H89.3691L89.1113 269.791C89.2676 269.701 89.4648 269.617 89.7031 269.539C89.9453 269.461 90.2227 269.422 90.5352 269.422C90.9297 269.422 91.2832 269.49 91.5957 269.627C91.9082 269.76 92.1738 269.951 92.3926 270.201C92.6152 270.451 92.7852 270.752 92.9023 271.104C93.0195 271.455 93.0781 271.848 93.0781 272.281C93.0781 272.691 93.0215 273.068 92.9082 273.412C92.7988 273.756 92.6328 274.057 92.4102 274.314C92.1875 274.568 91.9062 274.766 91.5664 274.906C91.2305 275.047 90.834 275.117 90.377 275.117C90.0332 275.117 89.707 275.07 89.3984 274.977C89.0938 274.879 88.8203 274.732 88.5781 274.537C88.3398 274.338 88.1445 274.092 87.9922 273.799C87.8438 273.502 87.75 273.154 87.7109 272.756H88.7422C88.7891 273.076 88.8828 273.346 89.0234 273.564C89.1641 273.783 89.3477 273.949 89.5742 274.062C89.8047 274.172 90.0723 274.227 90.377 274.227C90.6348 274.227 90.8633 274.182 91.0625 274.092C91.2617 274.002 91.4297 273.873 91.5664 273.705C91.7031 273.537 91.8066 273.334 91.877 273.096C91.9512 272.857 91.9883 272.59 91.9883 272.293C91.9883 272.023 91.9512 271.773 91.877 271.543C91.8027 271.312 91.6914 271.111 91.543 270.939C91.3984 270.768 91.2207 270.635 91.0098 270.541C90.7988 270.443 90.5566 270.395 90.2832 270.395C89.9199 270.395 89.6445 270.443 89.457 270.541C89.2734 270.639 89.084 270.771 88.8887 270.939ZM95.6387 270.939L94.7715 270.717L95.1992 266.469H99.5762V267.471H96.1191L95.8613 269.791C96.0176 269.701 96.2148 269.617 96.4531 269.539C96.6953 269.461 96.9727 269.422 97.2852 269.422C97.6797 269.422 98.0332 269.49 98.3457 269.627C98.6582 269.76 98.9238 269.951 99.1426 270.201C99.3652 270.451 99.5352 270.752 99.6523 271.104C99.7695 271.455 99.8281 271.848 99.8281 272.281C99.8281 272.691 99.7715 273.068 99.6582 273.412C99.5488 273.756 99.3828 274.057 99.1602 274.314C98.9375 274.568 98.6562 274.766 98.3164 274.906C97.9805 275.047 97.584 275.117 97.127 275.117C96.7832 275.117 96.457 275.07 96.1484 274.977C95.8438 274.879 95.5703 274.732 95.3281 274.537C95.0898 274.338 94.8945 274.092 94.7422 273.799C94.5938 273.502 94.5 273.154 94.4609 272.756H95.4922C95.5391 273.076 95.6328 273.346 95.7734 273.564C95.9141 273.783 96.0977 273.949 96.3242 274.062C96.5547 274.172 96.8223 274.227 97.127 274.227C97.3848 274.227 97.6133 274.182 97.8125 274.092C98.0117 274.002 98.1797 273.873 98.3164 273.705C98.4531 273.537 98.5566 273.334 98.627 273.096C98.7012 272.857 98.7383 272.59 98.7383 272.293C98.7383 272.023 98.7012 271.773 98.627 271.543C98.5527 271.312 98.4414 271.111 98.293 270.939C98.1484 270.768 97.9707 270.635 97.7598 270.541C97.5488 270.443 97.3066 270.395 97.0332 270.395C96.6699 270.395 96.3945 270.443 96.207 270.541C96.0234 270.639 95.834 270.771 95.6387 270.939ZM100.924 268.561V268.109C100.924 267.785 100.994 267.49 101.135 267.225C101.275 266.959 101.477 266.746 101.738 266.586C102 266.426 102.311 266.346 102.67 266.346C103.037 266.346 103.35 266.426 103.607 266.586C103.869 266.746 104.07 266.959 104.211 267.225C104.352 267.49 104.422 267.785 104.422 268.109V268.561C104.422 268.877 104.352 269.168 104.211 269.434C104.074 269.699 103.875 269.912 103.613 270.072C103.355 270.232 103.045 270.312 102.682 270.312C102.318 270.312 102.004 270.232 101.738 270.072C101.477 269.912 101.275 269.699 101.135 269.434C100.994 269.168 100.924 268.877 100.924 268.561ZM101.738 268.109V268.561C101.738 268.74 101.771 268.91 101.838 269.07C101.908 269.23 102.014 269.361 102.154 269.463C102.295 269.561 102.471 269.609 102.682 269.609C102.893 269.609 103.066 269.561 103.203 269.463C103.34 269.361 103.441 269.23 103.508 269.07C103.574 268.91 103.607 268.74 103.607 268.561V268.109C103.607 267.926 103.572 267.754 103.502 267.594C103.436 267.43 103.332 267.299 103.191 267.201C103.055 267.1 102.881 267.049 102.67 267.049C102.463 267.049 102.289 267.1 102.148 267.201C102.012 267.299 101.908 267.43 101.838 267.594C101.771 267.754 101.738 267.926 101.738 268.109ZM105.078 273.365V272.908C105.078 272.588 105.148 272.295 105.289 272.029C105.43 271.764 105.631 271.551 105.893 271.391C106.154 271.23 106.465 271.15 106.824 271.15C107.191 271.15 107.504 271.23 107.762 271.391C108.023 271.551 108.225 271.764 108.365 272.029C108.506 272.295 108.576 272.588 108.576 272.908V273.365C108.576 273.686 108.506 273.979 108.365 274.244C108.229 274.51 108.029 274.723 107.768 274.883C107.51 275.043 107.199 275.123 106.836 275.123C106.473 275.123 106.16 275.043 105.898 274.883C105.637 274.723 105.434 274.51 105.289 274.244C105.148 273.979 105.078 273.686 105.078 273.365ZM105.893 272.908V273.365C105.893 273.545 105.926 273.717 105.992 273.881C106.062 274.041 106.168 274.172 106.309 274.273C106.449 274.371 106.625 274.42 106.836 274.42C107.047 274.42 107.221 274.371 107.357 274.273C107.498 274.172 107.602 274.041 107.668 273.881C107.734 273.721 107.768 273.549 107.768 273.365V272.908C107.768 272.725 107.732 272.553 107.662 272.393C107.596 272.232 107.492 272.104 107.352 272.006C107.215 271.904 107.039 271.854 106.824 271.854C106.617 271.854 106.443 271.904 106.303 272.006C106.166 272.104 106.062 272.232 105.992 272.393C105.926 272.553 105.893 272.725 105.893 272.908ZM107.094 267.682L102.928 274.35L102.318 273.963L106.484 267.295L107.094 267.682Z" fill="black"/>
<rect x="157" y="246" width="31" height="31" rx="8" fill="#6B7CFF"/>
<rect x="166" y="255" width="12" height="15" rx="3" fill="white"/>
<path d="M175 259H178.636H179L175 254V259Z" stroke="#6B7CFF"/>
<line x1="170" y1="263.5" x2="175" y2="263.5" stroke="#6B7CFF"/>
<line x1="170" y1="265.5" x2="175" y2="265.5" stroke="#6B7CFF"/>
<path d="M63.623 217.31V218H60.4238V217.31H63.623ZM60.5908 211.602V218H59.7427V211.602H60.5908ZM64.2559 215.675V215.574C64.2559 215.231 64.3057 214.914 64.4053 214.621C64.5049 214.325 64.6484 214.068 64.8359 213.852C65.0234 213.632 65.2505 213.462 65.5171 213.342C65.7837 213.219 66.0825 213.157 66.4136 213.157C66.7476 213.157 67.0479 213.219 67.3145 213.342C67.584 213.462 67.8125 213.632 68 213.852C68.1904 214.068 68.3354 214.325 68.4351 214.621C68.5347 214.914 68.5845 215.231 68.5845 215.574V215.675C68.5845 216.018 68.5347 216.336 68.4351 216.629C68.3354 216.922 68.1904 217.178 68 217.398C67.8125 217.615 67.5854 217.785 67.3188 217.908C67.0552 218.028 66.7563 218.088 66.4224 218.088C66.0884 218.088 65.7881 218.028 65.5215 217.908C65.2549 217.785 65.0264 217.615 64.8359 217.398C64.6484 217.178 64.5049 216.922 64.4053 216.629C64.3057 216.336 64.2559 216.018 64.2559 215.675ZM65.0688 215.574V215.675C65.0688 215.913 65.0967 216.137 65.1523 216.348C65.208 216.556 65.2915 216.74 65.4028 216.901C65.5171 217.062 65.6592 217.19 65.8291 217.284C65.999 217.375 66.1968 217.42 66.4224 217.42C66.645 217.42 66.8398 217.375 67.0068 217.284C67.1768 217.19 67.3174 217.062 67.4287 216.901C67.54 216.74 67.6235 216.556 67.6792 216.348C67.7378 216.137 67.7671 215.913 67.7671 215.675V215.574C67.7671 215.34 67.7378 215.119 67.6792 214.911C67.6235 214.7 67.5386 214.514 67.4243 214.353C67.313 214.188 67.1724 214.06 67.0024 213.966C66.8354 213.872 66.6392 213.825 66.4136 213.825C66.1909 213.825 65.9946 213.872 65.8247 213.966C65.6577 214.06 65.5171 214.188 65.4028 214.353C65.2915 214.514 65.208 214.7 65.1523 214.911C65.0967 215.119 65.0688 215.34 65.0688 215.574ZM72.3726 216.739C72.3726 216.622 72.3462 216.513 72.2935 216.414C72.2437 216.311 72.1396 216.219 71.9814 216.137C71.8262 216.052 71.5918 215.979 71.2783 215.917C71.0146 215.861 70.7759 215.795 70.562 215.719C70.3511 215.643 70.1709 215.551 70.0215 215.442C69.875 215.334 69.7622 215.207 69.6831 215.06C69.604 214.914 69.5645 214.742 69.5645 214.546C69.5645 214.358 69.6055 214.181 69.6875 214.014C69.7725 213.847 69.8911 213.699 70.0435 213.57C70.1987 213.441 70.3848 213.34 70.6016 213.267C70.8184 213.194 71.0601 213.157 71.3267 213.157C71.7075 213.157 72.0327 213.225 72.3022 213.359C72.5718 213.494 72.7783 213.674 72.9219 213.9C73.0654 214.123 73.1372 214.37 73.1372 214.643H72.3242C72.3242 214.511 72.2847 214.383 72.2056 214.26C72.1294 214.134 72.0166 214.03 71.8672 213.948C71.7207 213.866 71.5405 213.825 71.3267 213.825C71.1011 213.825 70.918 213.86 70.7773 213.931C70.6396 213.998 70.5386 214.084 70.4741 214.19C70.4126 214.295 70.3818 214.407 70.3818 214.524C70.3818 214.612 70.3965 214.691 70.4258 214.761C70.458 214.829 70.5137 214.892 70.5928 214.95C70.6719 215.006 70.7832 215.059 70.9268 215.108C71.0703 215.158 71.2534 215.208 71.4761 215.258C71.8657 215.346 72.1865 215.451 72.4385 215.574C72.6904 215.697 72.8779 215.848 73.001 216.027C73.124 216.206 73.1855 216.422 73.1855 216.677C73.1855 216.885 73.1416 217.076 73.0537 217.249C72.9688 217.421 72.8442 217.571 72.6802 217.697C72.519 217.82 72.3257 217.917 72.1001 217.987C71.8774 218.054 71.627 218.088 71.3486 218.088C70.9297 218.088 70.5752 218.013 70.2852 217.864C69.9951 217.714 69.7754 217.521 69.626 217.284C69.4766 217.046 69.4019 216.796 69.4019 216.532H70.2192C70.231 216.755 70.2954 216.932 70.4126 217.064C70.5298 217.193 70.6733 217.285 70.8433 217.341C71.0132 217.394 71.1816 217.42 71.3486 217.42C71.5713 217.42 71.7573 217.391 71.9067 217.332C72.0591 217.273 72.1748 217.193 72.2539 217.09C72.333 216.988 72.3726 216.871 72.3726 216.739ZM77.022 216.739C77.022 216.622 76.9956 216.513 76.9429 216.414C76.8931 216.311 76.7891 216.219 76.6309 216.137C76.4756 216.052 76.2412 215.979 75.9277 215.917C75.6641 215.861 75.4253 215.795 75.2114 215.719C75.0005 215.643 74.8203 215.551 74.6709 215.442C74.5244 215.334 74.4116 215.207 74.3325 215.06C74.2534 214.914 74.2139 214.742 74.2139 214.546C74.2139 214.358 74.2549 214.181 74.3369 214.014C74.4219 213.847 74.5405 213.699 74.6929 213.57C74.8481 213.441 75.0342 213.34 75.251 213.267C75.4678 213.194 75.7095 213.157 75.9761 213.157C76.3569 213.157 76.6821 213.225 76.9517 213.359C77.2212 213.494 77.4277 213.674 77.5713 213.9C77.7148 214.123 77.7866 214.37 77.7866 214.643H76.9736C76.9736 214.511 76.9341 214.383 76.855 214.26C76.7788 214.134 76.666 214.03 76.5166 213.948C76.3701 213.866 76.1899 213.825 75.9761 213.825C75.7505 213.825 75.5674 213.86 75.4268 213.931C75.2891 213.998 75.188 214.084 75.1235 214.19C75.062 214.295 75.0312 214.407 75.0312 214.524C75.0312 214.612 75.0459 214.691 75.0752 214.761C75.1074 214.829 75.1631 214.892 75.2422 214.95C75.3213 215.006 75.4326 215.059 75.5762 215.108C75.7197 215.158 75.9028 215.208 76.1255 215.258C76.5151 215.346 76.8359 215.451 77.0879 215.574C77.3398 215.697 77.5273 215.848 77.6504 216.027C77.7734 216.206 77.835 216.422 77.835 216.677C77.835 216.885 77.791 217.076 77.7031 217.249C77.6182 217.421 77.4937 217.571 77.3296 217.697C77.1685 217.82 76.9751 217.917 76.7495 217.987C76.5269 218.054 76.2764 218.088 75.998 218.088C75.5791 218.088 75.2246 218.013 74.9346 217.864C74.6445 217.714 74.4248 217.521 74.2754 217.284C74.126 217.046 74.0513 216.796 74.0513 216.532H74.8687C74.8804 216.755 74.9448 216.932 75.062 217.064C75.1792 217.193 75.3228 217.285 75.4927 217.341C75.6626 217.394 75.8311 217.42 75.998 217.42C76.2207 217.42 76.4067 217.391 76.5562 217.332C76.7085 217.273 76.8242 217.193 76.9033 217.09C76.9824 216.988 77.022 216.871 77.022 216.739ZM80.876 218.088C80.5449 218.088 80.2446 218.032 79.9751 217.921C79.7085 217.807 79.4785 217.647 79.2852 217.442C79.0947 217.237 78.9482 216.994 78.8457 216.712C78.7432 216.431 78.6919 216.124 78.6919 215.79V215.605C78.6919 215.218 78.749 214.874 78.8633 214.572C78.9775 214.268 79.1328 214.01 79.3291 213.799C79.5254 213.588 79.748 213.428 79.9971 213.32C80.2461 213.211 80.5039 213.157 80.7705 213.157C81.1104 213.157 81.4033 213.216 81.6494 213.333C81.8984 213.45 82.1021 213.614 82.2603 213.825C82.4185 214.033 82.5356 214.279 82.6118 214.563C82.688 214.845 82.7261 215.152 82.7261 215.486V215.851H79.1753V215.188H81.9131V215.126C81.9014 214.915 81.8574 214.71 81.7812 214.511C81.708 214.312 81.5908 214.147 81.4297 214.019C81.2686 213.89 81.0488 213.825 80.7705 213.825C80.5859 213.825 80.416 213.865 80.2607 213.944C80.1055 214.02 79.9722 214.134 79.8608 214.287C79.7495 214.439 79.6631 214.625 79.6016 214.845C79.54 215.064 79.5093 215.318 79.5093 215.605V215.79C79.5093 216.015 79.54 216.228 79.6016 216.427C79.666 216.623 79.7583 216.796 79.8784 216.945C80.0015 217.095 80.1494 217.212 80.3223 217.297C80.498 217.382 80.6973 217.424 80.9199 217.424C81.207 217.424 81.4502 217.366 81.6494 217.249C81.8486 217.131 82.0229 216.975 82.1724 216.778L82.6646 217.169C82.562 217.325 82.4316 217.473 82.2734 217.613C82.1152 217.754 81.9204 217.868 81.689 217.956C81.4604 218.044 81.1895 218.088 80.876 218.088ZM86.4438 216.739C86.4438 216.622 86.4175 216.513 86.3647 216.414C86.3149 216.311 86.2109 216.219 86.0527 216.137C85.8975 216.052 85.6631 215.979 85.3496 215.917C85.0859 215.861 84.8472 215.795 84.6333 215.719C84.4224 215.643 84.2422 215.551 84.0928 215.442C83.9463 215.334 83.8335 215.207 83.7544 215.06C83.6753 214.914 83.6357 214.742 83.6357 214.546C83.6357 214.358 83.6768 214.181 83.7588 214.014C83.8438 213.847 83.9624 213.699 84.1147 213.57C84.27 213.441 84.4561 213.34 84.6729 213.267C84.8896 213.194 85.1313 213.157 85.3979 213.157C85.7788 213.157 86.104 213.225 86.3735 213.359C86.6431 213.494 86.8496 213.674 86.9932 213.9C87.1367 214.123 87.2085 214.37 87.2085 214.643H86.3955C86.3955 214.511 86.356 214.383 86.2769 214.26C86.2007 214.134 86.0879 214.03 85.9385 213.948C85.792 213.866 85.6118 213.825 85.3979 213.825C85.1724 213.825 84.9893 213.86 84.8486 213.931C84.7109 213.998 84.6099 214.084 84.5454 214.19C84.4839 214.295 84.4531 214.407 84.4531 214.524C84.4531 214.612 84.4678 214.691 84.4971 214.761C84.5293 214.829 84.585 214.892 84.6641 214.95C84.7432 215.006 84.8545 215.059 84.998 215.108C85.1416 215.158 85.3247 215.208 85.5474 215.258C85.937 215.346 86.2578 215.451 86.5098 215.574C86.7617 215.697 86.9492 215.848 87.0723 216.027C87.1953 216.206 87.2568 216.422 87.2568 216.677C87.2568 216.885 87.2129 217.076 87.125 217.249C87.04 217.421 86.9155 217.571 86.7515 217.697C86.5903 217.82 86.397 217.917 86.1714 217.987C85.9487 218.054 85.6982 218.088 85.4199 218.088C85.001 218.088 84.6465 218.013 84.3564 217.864C84.0664 217.714 83.8467 217.521 83.6973 217.284C83.5479 217.046 83.4731 216.796 83.4731 216.532H84.2905C84.3022 216.755 84.3667 216.932 84.4839 217.064C84.6011 217.193 84.7446 217.285 84.9146 217.341C85.0845 217.394 85.2529 217.42 85.4199 217.42C85.6426 217.42 85.8286 217.391 85.978 217.332C86.1304 217.273 86.2461 217.193 86.3252 217.09C86.4043 216.988 86.4438 216.871 86.4438 216.739ZM94.6616 217.332V218H90.4736V217.416L92.5698 215.082C92.8276 214.795 93.0269 214.552 93.1675 214.353C93.311 214.15 93.4106 213.97 93.4663 213.812C93.5249 213.651 93.5542 213.487 93.5542 213.32C93.5542 213.109 93.5103 212.918 93.4224 212.749C93.3374 212.576 93.2114 212.438 93.0444 212.335C92.8774 212.233 92.6753 212.182 92.438 212.182C92.1538 212.182 91.9165 212.237 91.7261 212.349C91.5386 212.457 91.3979 212.609 91.3042 212.806C91.2104 213.002 91.1636 213.228 91.1636 213.482H90.3506C90.3506 213.122 90.4297 212.792 90.5879 212.494C90.7461 212.195 90.9805 211.958 91.291 211.782C91.6016 211.603 91.9839 211.514 92.438 211.514C92.8423 211.514 93.188 211.585 93.4751 211.729C93.7622 211.87 93.9819 212.069 94.1343 212.327C94.2896 212.582 94.3672 212.88 94.3672 213.223C94.3672 213.411 94.335 213.601 94.2705 213.794C94.209 213.985 94.1226 214.175 94.0112 214.366C93.9028 214.556 93.7754 214.744 93.6289 214.928C93.4854 215.113 93.3315 215.294 93.1675 215.473L91.4536 217.332H94.6616ZM99.5483 214.291V215.267C99.5483 215.791 99.5015 216.233 99.4077 216.594C99.314 216.954 99.1792 217.244 99.0034 217.464C98.8276 217.684 98.6152 217.843 98.3662 217.943C98.1201 218.04 97.8418 218.088 97.5312 218.088C97.2852 218.088 97.0581 218.057 96.8501 217.996C96.6421 217.934 96.4546 217.836 96.2876 217.701C96.1235 217.563 95.9829 217.385 95.8657 217.165C95.7485 216.945 95.6592 216.679 95.5977 216.365C95.5361 216.052 95.5054 215.686 95.5054 215.267V214.291C95.5054 213.767 95.5522 213.327 95.646 212.973C95.7427 212.618 95.8789 212.334 96.0547 212.12C96.2305 211.903 96.4414 211.748 96.6875 211.654C96.9365 211.561 97.2148 211.514 97.5225 211.514C97.7715 211.514 98 211.544 98.208 211.606C98.4189 211.665 98.6064 211.76 98.7705 211.892C98.9346 212.021 99.0737 212.193 99.188 212.41C99.3052 212.624 99.3945 212.886 99.4561 213.197C99.5176 213.507 99.5483 213.872 99.5483 214.291ZM98.731 215.398V214.155C98.731 213.868 98.7134 213.616 98.6782 213.399C98.646 213.179 98.5977 212.992 98.5332 212.836C98.4688 212.681 98.3867 212.555 98.2871 212.458C98.1904 212.362 98.0776 212.292 97.9487 212.248C97.8228 212.201 97.6807 212.177 97.5225 212.177C97.3291 212.177 97.1577 212.214 97.0083 212.287C96.8589 212.357 96.7329 212.47 96.6304 212.625C96.5308 212.781 96.4546 212.984 96.4019 213.236C96.3491 213.488 96.3228 213.794 96.3228 214.155V215.398C96.3228 215.686 96.3389 215.939 96.3711 216.159C96.4062 216.378 96.4575 216.569 96.5249 216.73C96.5923 216.888 96.6743 217.019 96.771 217.121C96.8677 217.224 96.979 217.3 97.105 217.35C97.2339 217.396 97.376 217.42 97.5312 217.42C97.7305 217.42 97.9048 217.382 98.0542 217.306C98.2036 217.229 98.3281 217.111 98.4277 216.95C98.5303 216.786 98.6064 216.576 98.6562 216.321C98.7061 216.063 98.731 215.756 98.731 215.398ZM104.787 217.332V218H100.599V217.416L102.695 215.082C102.953 214.795 103.152 214.552 103.292 214.353C103.436 214.15 103.536 213.97 103.591 213.812C103.65 213.651 103.679 213.487 103.679 213.32C103.679 213.109 103.635 212.918 103.547 212.749C103.462 212.576 103.336 212.438 103.169 212.335C103.002 212.233 102.8 212.182 102.563 212.182C102.279 212.182 102.042 212.237 101.851 212.349C101.664 212.457 101.523 212.609 101.429 212.806C101.335 213.002 101.289 213.228 101.289 213.482H100.476C100.476 213.122 100.555 212.792 100.713 212.494C100.871 212.195 101.105 211.958 101.416 211.782C101.727 211.603 102.109 211.514 102.563 211.514C102.967 211.514 103.313 211.585 103.6 211.729C103.887 211.87 104.107 212.069 104.259 212.327C104.415 212.582 104.492 212.88 104.492 213.223C104.492 213.411 104.46 213.601 104.396 213.794C104.334 213.985 104.248 214.175 104.136 214.366C104.028 214.556 103.9 214.744 103.754 214.928C103.61 215.113 103.457 215.294 103.292 215.473L101.579 217.332H104.787ZM108.329 211.566V218H107.516V212.582L105.876 213.179V212.445L108.201 211.566H108.329Z" fill="#757575"/>
<path d="M158.153 215.383C158.153 215.233 158.129 215.102 158.083 214.987C158.039 214.87 157.959 214.765 157.845 214.671C157.734 214.577 157.579 214.488 157.379 214.403C157.183 214.318 156.934 214.231 156.632 214.144C156.316 214.05 156.03 213.946 155.775 213.832C155.521 213.714 155.302 213.581 155.121 213.432C154.939 213.282 154.8 213.111 154.703 212.917C154.606 212.724 154.558 212.503 154.558 212.254C154.558 212.005 154.609 211.775 154.712 211.564C154.814 211.353 154.961 211.17 155.151 211.015C155.345 210.856 155.575 210.733 155.841 210.646C156.108 210.558 156.405 210.514 156.733 210.514C157.214 210.514 157.621 210.606 157.955 210.791C158.292 210.972 158.548 211.211 158.724 211.507C158.9 211.8 158.988 212.113 158.988 212.447H158.144C158.144 212.207 158.093 211.995 157.99 211.81C157.888 211.623 157.732 211.476 157.524 211.371C157.316 211.262 157.053 211.208 156.733 211.208C156.432 211.208 156.183 211.253 155.986 211.344C155.79 211.435 155.644 211.558 155.547 211.713C155.453 211.869 155.406 212.046 155.406 212.245C155.406 212.38 155.434 212.503 155.49 212.614C155.548 212.723 155.638 212.824 155.758 212.917C155.881 213.011 156.036 213.098 156.224 213.177C156.414 213.256 156.641 213.332 156.905 213.405C157.268 213.508 157.582 213.622 157.845 213.748C158.109 213.874 158.326 214.016 158.496 214.174C158.668 214.33 158.796 214.507 158.878 214.706C158.963 214.902 159.005 215.125 159.005 215.374C159.005 215.635 158.953 215.871 158.847 216.082C158.742 216.292 158.591 216.473 158.395 216.622C158.198 216.771 157.962 216.887 157.687 216.969C157.415 217.048 157.11 217.088 156.773 217.088C156.477 217.088 156.186 217.047 155.898 216.965C155.614 216.883 155.355 216.76 155.121 216.596C154.889 216.432 154.703 216.229 154.562 215.989C154.425 215.746 154.356 215.465 154.356 215.146H155.2C155.2 215.365 155.242 215.554 155.327 215.712C155.412 215.868 155.528 215.997 155.674 216.099C155.824 216.202 155.992 216.278 156.18 216.328C156.37 216.375 156.568 216.398 156.773 216.398C157.069 216.398 157.319 216.357 157.524 216.275C157.729 216.193 157.885 216.076 157.99 215.923C158.099 215.771 158.153 215.591 158.153 215.383ZM162.767 216.187V213.739C162.767 213.552 162.729 213.389 162.653 213.251C162.58 213.111 162.468 213.002 162.319 212.926C162.169 212.85 161.985 212.812 161.765 212.812C161.56 212.812 161.38 212.847 161.225 212.917C161.072 212.988 160.952 213.08 160.864 213.194C160.779 213.309 160.737 213.432 160.737 213.563H159.924C159.924 213.394 159.968 213.225 160.056 213.058C160.144 212.891 160.27 212.74 160.434 212.605C160.601 212.468 160.8 212.359 161.031 212.28C161.266 212.198 161.526 212.157 161.813 212.157C162.159 212.157 162.464 212.216 162.728 212.333C162.994 212.45 163.202 212.627 163.352 212.865C163.504 213.099 163.58 213.394 163.58 213.748V215.963C163.58 216.121 163.593 216.29 163.62 216.468C163.649 216.647 163.691 216.801 163.747 216.93V217H162.899C162.858 216.906 162.826 216.782 162.802 216.626C162.779 216.468 162.767 216.322 162.767 216.187ZM162.908 214.117L162.917 214.688H162.095C161.863 214.688 161.657 214.708 161.475 214.746C161.293 214.781 161.141 214.835 161.018 214.908C160.895 214.981 160.801 215.074 160.737 215.185C160.672 215.293 160.64 215.421 160.64 215.567C160.64 215.717 160.674 215.853 160.741 215.976C160.809 216.099 160.91 216.197 161.044 216.271C161.182 216.341 161.351 216.376 161.55 216.376C161.799 216.376 162.019 216.323 162.209 216.218C162.399 216.112 162.55 215.983 162.662 215.831C162.776 215.679 162.837 215.531 162.846 215.387L163.193 215.778C163.173 215.901 163.117 216.038 163.026 216.187C162.936 216.336 162.814 216.48 162.662 216.618C162.512 216.752 162.333 216.865 162.125 216.956C161.92 217.044 161.689 217.088 161.431 217.088C161.109 217.088 160.826 217.025 160.583 216.899C160.343 216.773 160.155 216.604 160.021 216.394C159.889 216.18 159.823 215.941 159.823 215.677C159.823 215.422 159.873 215.198 159.972 215.005C160.072 214.809 160.215 214.646 160.403 214.517C160.59 214.385 160.816 214.286 161.08 214.218C161.343 214.151 161.638 214.117 161.963 214.117H162.908ZM165.742 210.25V217H164.925V210.25H165.742ZM169.021 217.088C168.689 217.088 168.389 217.032 168.12 216.921C167.853 216.807 167.623 216.647 167.43 216.442C167.239 216.237 167.093 215.994 166.99 215.712C166.888 215.431 166.836 215.124 166.836 214.79V214.605C166.836 214.218 166.894 213.874 167.008 213.572C167.122 213.268 167.277 213.01 167.474 212.799C167.67 212.588 167.893 212.428 168.142 212.32C168.391 212.211 168.648 212.157 168.915 212.157C169.255 212.157 169.548 212.216 169.794 212.333C170.043 212.45 170.247 212.614 170.405 212.825C170.563 213.033 170.68 213.279 170.756 213.563C170.833 213.845 170.871 214.152 170.871 214.486V214.851H167.32V214.188H170.058V214.126C170.046 213.915 170.002 213.71 169.926 213.511C169.853 213.312 169.735 213.147 169.574 213.019C169.413 212.89 169.193 212.825 168.915 212.825C168.73 212.825 168.561 212.865 168.405 212.944C168.25 213.02 168.117 213.134 168.005 213.287C167.894 213.439 167.808 213.625 167.746 213.845C167.685 214.064 167.654 214.318 167.654 214.605V214.79C167.654 215.015 167.685 215.228 167.746 215.427C167.811 215.623 167.903 215.796 168.023 215.945C168.146 216.095 168.294 216.212 168.467 216.297C168.643 216.382 168.842 216.424 169.064 216.424C169.352 216.424 169.595 216.366 169.794 216.249C169.993 216.131 170.167 215.975 170.317 215.778L170.809 216.169C170.707 216.325 170.576 216.473 170.418 216.613C170.26 216.754 170.065 216.868 169.833 216.956C169.605 217.044 169.334 217.088 169.021 217.088ZM174.588 215.739C174.588 215.622 174.562 215.513 174.509 215.414C174.459 215.311 174.355 215.219 174.197 215.137C174.042 215.052 173.808 214.979 173.494 214.917C173.23 214.861 172.992 214.795 172.778 214.719C172.567 214.643 172.387 214.551 172.237 214.442C172.091 214.334 171.978 214.207 171.899 214.06C171.82 213.914 171.78 213.742 171.78 213.546C171.78 213.358 171.821 213.181 171.903 213.014C171.988 212.847 172.107 212.699 172.259 212.57C172.415 212.441 172.601 212.34 172.817 212.267C173.034 212.194 173.276 212.157 173.542 212.157C173.923 212.157 174.249 212.225 174.518 212.359C174.788 212.494 174.994 212.674 175.138 212.9C175.281 213.123 175.353 213.37 175.353 213.643H174.54C174.54 213.511 174.5 213.383 174.421 213.26C174.345 213.134 174.232 213.03 174.083 212.948C173.937 212.866 173.756 212.825 173.542 212.825C173.317 212.825 173.134 212.86 172.993 212.931C172.855 212.998 172.754 213.084 172.69 213.19C172.628 213.295 172.598 213.407 172.598 213.524C172.598 213.612 172.612 213.691 172.642 213.761C172.674 213.829 172.729 213.892 172.809 213.95C172.888 214.006 172.999 214.059 173.143 214.108C173.286 214.158 173.469 214.208 173.692 214.258C174.082 214.346 174.402 214.451 174.654 214.574C174.906 214.697 175.094 214.848 175.217 215.027C175.34 215.206 175.401 215.422 175.401 215.677C175.401 215.885 175.357 216.076 175.27 216.249C175.185 216.421 175.06 216.571 174.896 216.697C174.735 216.82 174.542 216.917 174.316 216.987C174.093 217.054 173.843 217.088 173.564 217.088C173.146 217.088 172.791 217.013 172.501 216.864C172.211 216.714 171.991 216.521 171.842 216.284C171.692 216.046 171.618 215.796 171.618 215.532H172.435C172.447 215.755 172.511 215.932 172.628 216.064C172.746 216.193 172.889 216.285 173.059 216.341C173.229 216.394 173.397 216.42 173.564 216.42C173.787 216.42 173.973 216.391 174.123 216.332C174.275 216.273 174.391 216.193 174.47 216.09C174.549 215.988 174.588 215.871 174.588 215.739ZM182.806 216.332V217H178.618V216.416L180.714 214.082C180.972 213.795 181.171 213.552 181.312 213.353C181.456 213.15 181.555 212.97 181.611 212.812C181.669 212.651 181.699 212.487 181.699 212.32C181.699 212.109 181.655 211.918 181.567 211.749C181.482 211.576 181.356 211.438 181.189 211.335C181.022 211.233 180.82 211.182 180.583 211.182C180.298 211.182 180.061 211.237 179.871 211.349C179.683 211.457 179.542 211.609 179.449 211.806C179.355 212.002 179.308 212.228 179.308 212.482H178.495C178.495 212.122 178.574 211.792 178.732 211.494C178.891 211.195 179.125 210.958 179.436 210.782C179.746 210.603 180.128 210.514 180.583 210.514C180.987 210.514 181.333 210.585 181.62 210.729C181.907 210.87 182.126 211.069 182.279 211.327C182.434 211.582 182.512 211.88 182.512 212.223C182.512 212.411 182.479 212.601 182.415 212.794C182.354 212.985 182.267 213.175 182.156 213.366C182.047 213.556 181.92 213.744 181.773 213.928C181.63 214.113 181.476 214.294 181.312 214.473L179.598 216.332H182.806ZM187.693 213.291V214.267C187.693 214.791 187.646 215.233 187.552 215.594C187.458 215.954 187.324 216.244 187.148 216.464C186.972 216.684 186.76 216.843 186.511 216.943C186.265 217.04 185.986 217.088 185.676 217.088C185.43 217.088 185.203 217.057 184.995 216.996C184.787 216.934 184.599 216.836 184.432 216.701C184.268 216.563 184.127 216.385 184.01 216.165C183.893 215.945 183.804 215.679 183.742 215.365C183.681 215.052 183.65 214.686 183.65 214.267V213.291C183.65 212.767 183.697 212.327 183.791 211.973C183.887 211.618 184.023 211.334 184.199 211.12C184.375 210.903 184.586 210.748 184.832 210.654C185.081 210.561 185.359 210.514 185.667 210.514C185.916 210.514 186.145 210.544 186.353 210.606C186.563 210.665 186.751 210.76 186.915 210.892C187.079 211.021 187.218 211.193 187.333 211.41C187.45 211.624 187.539 211.886 187.601 212.197C187.662 212.507 187.693 212.872 187.693 213.291ZM186.875 214.398V213.155C186.875 212.868 186.858 212.616 186.823 212.399C186.791 212.179 186.742 211.992 186.678 211.836C186.613 211.681 186.531 211.555 186.432 211.458C186.335 211.362 186.222 211.292 186.093 211.248C185.967 211.201 185.825 211.177 185.667 211.177C185.474 211.177 185.302 211.214 185.153 211.287C185.003 211.357 184.877 211.47 184.775 211.625C184.675 211.781 184.599 211.984 184.546 212.236C184.494 212.488 184.467 212.794 184.467 213.155V214.398C184.467 214.686 184.483 214.939 184.516 215.159C184.551 215.378 184.602 215.569 184.669 215.73C184.737 215.888 184.819 216.019 184.916 216.121C185.012 216.224 185.124 216.3 185.25 216.35C185.378 216.396 185.521 216.42 185.676 216.42C185.875 216.42 186.049 216.382 186.199 216.306C186.348 216.229 186.473 216.111 186.572 215.95C186.675 215.786 186.751 215.576 186.801 215.321C186.851 215.063 186.875 214.756 186.875 214.398ZM192.931 216.332V217H188.743V216.416L190.839 214.082C191.097 213.795 191.296 213.552 191.437 213.353C191.581 213.15 191.68 212.97 191.736 212.812C191.794 212.651 191.824 212.487 191.824 212.32C191.824 212.109 191.78 211.918 191.692 211.749C191.607 211.576 191.481 211.438 191.314 211.335C191.147 211.233 190.945 211.182 190.708 211.182C190.423 211.182 190.186 211.237 189.996 211.349C189.808 211.457 189.667 211.609 189.574 211.806C189.48 212.002 189.433 212.228 189.433 212.482H188.62C188.62 212.122 188.699 211.792 188.857 211.494C189.016 211.195 189.25 210.958 189.561 210.782C189.871 210.603 190.253 210.514 190.708 210.514C191.112 210.514 191.458 210.585 191.745 210.729C192.032 210.87 192.251 211.069 192.404 211.327C192.559 211.582 192.637 211.88 192.637 212.223C192.637 212.411 192.604 212.601 192.54 212.794C192.479 212.985 192.392 213.175 192.281 213.366C192.172 213.556 192.045 213.744 191.898 213.928C191.755 214.113 191.601 214.294 191.437 214.473L189.723 216.332H192.931ZM196.473 210.566V217H195.66V211.582L194.021 212.179V211.445L196.346 210.566H196.473Z" fill="#757575"/>
<path d="M63.511 191.374H65.3391C66.05 191.374 66.6383 191.251 67.1038 191.006C67.5777 190.76 67.929 190.422 68.1575 189.99C68.386 189.559 68.5002 189.063 68.5002 188.505C68.5002 187.921 68.3944 187.422 68.1829 187.007C67.9797 186.584 67.6666 186.258 67.2434 186.029C66.8287 185.801 66.2997 185.687 65.6565 185.687C65.1148 185.687 64.6239 185.797 64.1838 186.017C63.7522 186.228 63.4094 186.533 63.1555 186.931C62.9016 187.32 62.7747 187.785 62.7747 188.327H59.7024C59.7024 187.345 59.9605 186.474 60.4768 185.712C60.9931 184.95 61.6956 184.354 62.5842 183.922C63.4814 183.482 64.4885 183.262 65.6057 183.262C66.7991 183.262 67.8401 183.461 68.7288 183.858C69.6259 184.248 70.3241 184.832 70.8235 185.61C71.3228 186.389 71.5725 187.354 71.5725 188.505C71.5725 189.03 71.4498 189.563 71.2043 190.104C70.9589 190.646 70.595 191.141 70.1125 191.59C69.6301 192.03 69.0292 192.39 68.3098 192.669C67.5904 192.94 66.7568 193.075 65.8088 193.075H63.511V191.374ZM63.511 193.761V192.085H65.8088C66.8922 192.085 67.8147 192.212 68.5764 192.466C69.3466 192.72 69.9729 193.071 70.4553 193.52C70.9377 193.96 71.289 194.463 71.509 195.03C71.7375 195.597 71.8518 196.198 71.8518 196.833C71.8518 197.696 71.6952 198.466 71.3821 199.144C71.0774 199.812 70.6415 200.379 70.0745 200.845C69.5074 201.31 68.843 201.661 68.0813 201.898C67.328 202.135 66.5071 202.254 65.6184 202.254C64.8228 202.254 64.0611 202.144 63.3333 201.924C62.6054 201.704 61.9537 201.378 61.3782 200.946C60.8027 200.506 60.3456 199.96 60.0071 199.309C59.677 198.648 59.512 197.887 59.512 197.023H62.5715C62.5715 197.574 62.6985 198.06 62.9524 198.483C63.2148 198.898 63.5787 199.224 64.0442 199.461C64.5181 199.698 65.0598 199.816 65.6692 199.816C66.3124 199.816 66.8668 199.702 67.3323 199.474C67.7978 199.245 68.1532 198.907 68.3987 198.458C68.6526 198.009 68.7795 197.468 68.7795 196.833C68.7795 196.114 68.6399 195.53 68.3606 195.081C68.0813 194.632 67.6835 194.302 67.1672 194.091C66.651 193.871 66.0416 193.761 65.3391 193.761H63.511ZM86.7434 191.209V194.23C86.7434 195.678 86.5995 196.913 86.3118 197.938C86.0325 198.953 85.6262 199.778 85.093 200.413C84.5598 201.048 83.9208 201.513 83.176 201.81C82.4397 202.106 81.6145 202.254 80.7004 202.254C79.9726 202.254 79.2955 202.161 78.6692 201.975C78.0514 201.788 77.4928 201.496 76.9934 201.099C76.4941 200.701 76.0667 200.189 75.7112 199.562C75.3642 198.928 75.0933 198.17 74.8987 197.29C74.7125 196.41 74.6194 195.39 74.6194 194.23V191.209C74.6194 189.753 74.7633 188.526 75.051 187.527C75.3388 186.52 75.7493 185.703 76.2825 185.077C76.8157 184.442 77.4504 183.981 78.1868 183.693C78.9316 183.406 79.761 183.262 80.675 183.262C81.4114 183.262 82.0885 183.355 82.7063 183.541C83.3326 183.719 83.8912 184.002 84.3821 184.392C84.8814 184.781 85.3046 185.289 85.6516 185.915C86.0071 186.533 86.2779 187.282 86.4641 188.162C86.6503 189.034 86.7434 190.049 86.7434 191.209ZM83.6838 194.662V190.752C83.6838 190.016 83.6415 189.368 83.5569 188.81C83.4722 188.243 83.3453 187.764 83.176 187.375C83.0152 186.977 82.8121 186.656 82.5667 186.41C82.3212 186.156 82.0419 185.974 81.7288 185.864C81.4156 185.746 81.0644 185.687 80.675 185.687C80.2011 185.687 79.7779 185.78 79.4055 185.966C79.0331 186.144 78.72 186.431 78.4661 186.829C78.2122 187.227 78.0175 187.752 77.8821 188.403C77.7551 189.047 77.6917 189.829 77.6917 190.752V194.662C77.6917 195.407 77.734 196.063 77.8186 196.63C77.9032 197.197 78.0302 197.684 78.1995 198.09C78.3687 198.488 78.5719 198.818 78.8088 199.08C79.0543 199.334 79.3336 199.52 79.6467 199.639C79.9683 199.757 80.3196 199.816 80.7004 199.816C81.1829 199.816 81.6103 199.723 81.9827 199.537C82.3551 199.351 82.6682 199.055 82.9221 198.648C83.176 198.234 83.3665 197.696 83.4934 197.036C83.6204 196.376 83.6838 195.585 83.6838 194.662ZM89.3459 188.048V187.07C89.3459 186.368 89.4983 185.729 89.803 185.153C90.1077 184.578 90.552 184.117 91.136 183.77C91.72 183.423 92.4224 183.249 93.2434 183.249C94.0898 183.249 94.8007 183.423 95.3762 183.77C95.9602 184.117 96.4045 184.578 96.7092 185.153C97.0139 185.729 97.1663 186.368 97.1663 187.07V188.048C97.1663 188.733 97.0139 189.364 96.7092 189.939C96.413 190.515 95.9729 190.976 95.3889 191.323C94.8134 191.67 94.1067 191.844 93.2688 191.844C92.4394 191.844 91.7284 191.67 91.136 191.323C90.552 190.976 90.1077 190.515 89.803 189.939C89.4983 189.364 89.3459 188.733 89.3459 188.048ZM91.4661 187.07V188.048C91.4661 188.386 91.5295 188.708 91.6565 189.013C91.7919 189.317 91.995 189.563 92.2659 189.749C92.5367 189.935 92.871 190.028 93.2688 190.028C93.675 190.028 94.0051 189.935 94.259 189.749C94.5214 189.563 94.7161 189.317 94.843 189.013C94.97 188.708 95.0334 188.386 95.0334 188.048V187.07C95.0334 186.723 94.9657 186.397 94.8303 186.093C94.7034 185.78 94.5087 185.53 94.2463 185.344C93.984 185.158 93.6497 185.064 93.2434 185.064C92.8541 185.064 92.524 185.158 92.2532 185.344C91.9908 185.53 91.7919 185.78 91.6565 186.093C91.5295 186.397 91.4661 186.723 91.4661 187.07ZM98.2581 198.458V197.468C98.2581 196.774 98.4104 196.139 98.7151 195.563C99.0282 194.988 99.4768 194.527 100.061 194.18C100.645 193.833 101.347 193.659 102.168 193.659C103.015 193.659 103.726 193.833 104.301 194.18C104.885 194.527 105.325 194.988 105.621 195.563C105.926 196.139 106.078 196.774 106.078 197.468V198.458C106.078 199.152 105.926 199.787 105.621 200.362C105.325 200.938 104.889 201.399 104.314 201.746C103.738 202.093 103.036 202.267 102.206 202.267C101.368 202.267 100.653 202.093 100.061 201.746C99.4768 201.399 99.0282 200.938 98.7151 200.362C98.4104 199.787 98.2581 199.152 98.2581 198.458ZM100.391 197.468V198.458C100.391 198.797 100.459 199.118 100.594 199.423C100.738 199.728 100.945 199.977 101.216 200.172C101.487 200.358 101.813 200.451 102.194 200.451C102.625 200.451 102.972 200.358 103.235 200.172C103.497 199.977 103.683 199.732 103.793 199.436C103.912 199.131 103.971 198.805 103.971 198.458V197.468C103.971 197.121 103.903 196.795 103.768 196.49C103.641 196.186 103.442 195.94 103.171 195.754C102.909 195.568 102.574 195.475 102.168 195.475C101.77 195.475 101.44 195.568 101.178 195.754C100.916 195.94 100.717 196.186 100.581 196.49C100.454 196.795 100.391 197.121 100.391 197.468ZM102.93 186.156L93.9036 200.604L92.342 199.702L101.368 185.255L102.93 186.156Z" fill="#333333"/>
<path d="M103.859 98.5879H104.113C105.281 98.5879 106.255 98.4355 107.033 98.1309C107.82 97.8177 108.447 97.3861 108.912 96.8359C109.378 96.2858 109.712 95.6383 109.915 94.8936C110.118 94.1488 110.22 93.3405 110.22 92.4688V89.2822C110.22 88.529 110.139 87.8688 109.979 87.3018C109.826 86.7262 109.606 86.248 109.318 85.8672C109.039 85.4779 108.713 85.1859 108.341 84.9912C107.977 84.7965 107.583 84.6992 107.16 84.6992C106.695 84.6992 106.276 84.805 105.903 85.0166C105.539 85.2197 105.23 85.5033 104.977 85.8672C104.731 86.2227 104.541 86.6416 104.405 87.124C104.278 87.598 104.215 88.1058 104.215 88.6475C104.215 89.1553 104.274 89.6462 104.393 90.1201C104.52 90.5856 104.706 91.0003 104.951 91.3643C105.197 91.7282 105.506 92.016 105.878 92.2275C106.25 92.4391 106.686 92.5449 107.186 92.5449C107.66 92.5449 108.095 92.4561 108.493 92.2783C108.891 92.0921 109.238 91.8424 109.534 91.5293C109.83 91.2161 110.063 90.8649 110.232 90.4756C110.402 90.0863 110.495 89.6885 110.512 89.2822L111.68 89.6377C111.68 90.2809 111.544 90.9157 111.273 91.542C111.011 92.1598 110.643 92.7269 110.169 93.2432C109.703 93.751 109.158 94.1572 108.531 94.4619C107.913 94.7666 107.241 94.9189 106.513 94.9189C105.632 94.9189 104.854 94.7539 104.177 94.4238C103.508 94.0853 102.95 93.6283 102.501 93.0527C102.061 92.4772 101.731 91.8171 101.511 91.0723C101.291 90.3275 101.181 89.5446 101.181 88.7236C101.181 87.835 101.316 87.0013 101.587 86.2227C101.858 85.444 102.251 84.7585 102.768 84.166C103.284 83.5651 103.91 83.0996 104.646 82.7695C105.391 82.431 106.233 82.2617 107.173 82.2617C108.172 82.2617 109.048 82.4564 109.801 82.8457C110.554 83.235 111.189 83.7725 111.705 84.458C112.221 85.1436 112.611 85.9391 112.873 86.8447C113.135 87.7503 113.267 88.7236 113.267 89.7646V90.8438C113.267 91.9355 113.169 92.9893 112.975 94.0049C112.78 95.012 112.463 95.9473 112.022 96.8105C111.591 97.6654 111.02 98.4186 110.309 99.0703C109.606 99.7135 108.743 100.217 107.719 100.581C106.703 100.937 105.51 101.114 104.139 101.114H103.859V98.5879ZM128.26 95.96C128.26 97.111 127.993 98.0801 127.46 98.8672C126.927 99.6543 126.199 100.251 125.276 100.657C124.362 101.055 123.33 101.254 122.179 101.254C121.028 101.254 119.991 101.055 119.068 100.657C118.146 100.251 117.418 99.6543 116.885 98.8672C116.352 98.0801 116.085 97.111 116.085 95.96C116.085 95.1982 116.233 94.5085 116.529 93.8906C116.826 93.2643 117.244 92.7269 117.786 92.2783C118.336 91.8213 118.979 91.4701 119.716 91.2246C120.461 90.9792 121.273 90.8564 122.153 90.8564C123.321 90.8564 124.367 91.0723 125.289 91.5039C126.212 91.9355 126.935 92.5322 127.46 93.2939C127.993 94.0557 128.26 94.9443 128.26 95.96ZM125.188 95.8076C125.188 95.1898 125.061 94.6481 124.807 94.1826C124.553 93.7171 124.197 93.3574 123.74 93.1035C123.283 92.8496 122.754 92.7227 122.153 92.7227C121.544 92.7227 121.015 92.8496 120.566 93.1035C120.118 93.3574 119.767 93.7171 119.513 94.1826C119.267 94.6481 119.145 95.1898 119.145 95.8076C119.145 96.4339 119.267 96.9756 119.513 97.4326C119.758 97.8812 120.109 98.224 120.566 98.4609C121.023 98.6979 121.561 98.8164 122.179 98.8164C122.797 98.8164 123.33 98.6979 123.778 98.4609C124.227 98.224 124.574 97.8812 124.819 97.4326C125.065 96.9756 125.188 96.4339 125.188 95.8076ZM127.841 87.3779C127.841 88.3005 127.595 89.1214 127.104 89.8408C126.622 90.5602 125.953 91.1273 125.099 91.542C124.244 91.9482 123.271 92.1514 122.179 92.1514C121.078 92.1514 120.097 91.9482 119.233 91.542C118.379 91.1273 117.706 90.5602 117.215 89.8408C116.732 89.1214 116.491 88.3005 116.491 87.3779C116.491 86.2777 116.732 85.3509 117.215 84.5977C117.706 83.8359 118.379 83.2562 119.233 82.8584C120.088 82.4606 121.066 82.2617 122.166 82.2617C123.266 82.2617 124.244 82.4606 125.099 82.8584C125.953 83.2562 126.622 83.8359 127.104 84.5977C127.595 85.3509 127.841 86.2777 127.841 87.3779ZM124.781 87.4795C124.781 86.9294 124.671 86.4469 124.451 86.0322C124.24 85.609 123.939 85.279 123.55 85.042C123.16 84.805 122.699 84.6865 122.166 84.6865C121.633 84.6865 121.172 84.8008 120.782 85.0293C120.393 85.2578 120.092 85.5794 119.881 85.9941C119.669 86.4089 119.563 86.904 119.563 87.4795C119.563 88.0465 119.669 88.5417 119.881 88.9648C120.092 89.3796 120.393 89.7054 120.782 89.9424C121.18 90.1794 121.646 90.2979 122.179 90.2979C122.712 90.2979 123.173 90.1794 123.562 89.9424C123.952 89.7054 124.252 89.3796 124.464 88.9648C124.675 88.5417 124.781 88.0465 124.781 87.4795ZM130.824 87.0479V86.0703C130.824 85.3678 130.977 84.7288 131.281 84.1533C131.586 83.5778 132.03 83.1165 132.614 82.7695C133.198 82.4225 133.901 82.249 134.722 82.249C135.568 82.249 136.279 82.4225 136.854 82.7695C137.438 83.1165 137.883 83.5778 138.188 84.1533C138.492 84.7288 138.645 85.3678 138.645 86.0703V87.0479C138.645 87.7334 138.492 88.3639 138.188 88.9395C137.891 89.515 137.451 89.9762 136.867 90.3232C136.292 90.6702 135.585 90.8438 134.747 90.8438C133.918 90.8438 133.207 90.6702 132.614 90.3232C132.03 89.9762 131.586 89.515 131.281 88.9395C130.977 88.3639 130.824 87.7334 130.824 87.0479ZM132.944 86.0703V87.0479C132.944 87.3864 133.008 87.708 133.135 88.0127C133.27 88.3174 133.473 88.5628 133.744 88.749C134.015 88.9352 134.349 89.0283 134.747 89.0283C135.153 89.0283 135.483 88.9352 135.737 88.749C136 88.5628 136.194 88.3174 136.321 88.0127C136.448 87.708 136.512 87.3864 136.512 87.0479V86.0703C136.512 85.7233 136.444 85.3975 136.309 85.0928C136.182 84.7796 135.987 84.5299 135.725 84.3438C135.462 84.1576 135.128 84.0645 134.722 84.0645C134.332 84.0645 134.002 84.1576 133.731 84.3438C133.469 84.5299 133.27 84.7796 133.135 85.0928C133.008 85.3975 132.944 85.7233 132.944 86.0703ZM139.736 97.458V96.4678C139.736 95.7738 139.889 95.139 140.193 94.5635C140.507 93.988 140.955 93.5267 141.539 93.1797C142.123 92.8327 142.826 92.6592 143.646 92.6592C144.493 92.6592 145.204 92.8327 145.779 93.1797C146.363 93.5267 146.803 93.988 147.1 94.5635C147.404 95.139 147.557 95.7738 147.557 96.4678V97.458C147.557 98.152 147.404 98.7868 147.1 99.3623C146.803 99.9378 146.368 100.399 145.792 100.746C145.216 101.093 144.514 101.267 143.685 101.267C142.847 101.267 142.132 101.093 141.539 100.746C140.955 100.399 140.507 99.9378 140.193 99.3623C139.889 98.7868 139.736 98.152 139.736 97.458ZM141.869 96.4678V97.458C141.869 97.7965 141.937 98.1182 142.072 98.4229C142.216 98.7275 142.424 98.9772 142.694 99.1719C142.965 99.3581 143.291 99.4512 143.672 99.4512C144.104 99.4512 144.451 99.3581 144.713 99.1719C144.975 98.9772 145.161 98.7318 145.271 98.4355C145.39 98.1309 145.449 97.805 145.449 97.458V96.4678C145.449 96.1208 145.382 95.7949 145.246 95.4902C145.119 95.1855 144.92 94.9401 144.649 94.7539C144.387 94.5677 144.053 94.4746 143.646 94.4746C143.249 94.4746 142.919 94.5677 142.656 94.7539C142.394 94.9401 142.195 95.1855 142.06 95.4902C141.933 95.7949 141.869 96.1208 141.869 96.4678ZM144.408 85.1562L135.382 99.6035L133.82 98.7021L142.847 84.2549L144.408 85.1562Z" fill="#1D2130"/>
<path d="M161.533 183.452V202H158.473V187.083L153.941 188.619V186.093L161.165 183.452H161.533ZM171.168 193.405L168.731 192.809L169.734 183.516H179.7V186.105H172.273L171.765 190.638C172.053 190.468 172.451 190.303 172.958 190.143C173.466 189.973 174.046 189.889 174.698 189.889C175.569 189.889 176.348 190.033 177.034 190.32C177.728 190.6 178.316 191.01 178.798 191.552C179.281 192.085 179.649 192.737 179.903 193.507C180.157 194.269 180.284 195.128 180.284 196.084C180.284 196.939 180.157 197.739 179.903 198.483C179.657 199.228 179.285 199.884 178.786 200.451C178.286 201.018 177.656 201.463 176.894 201.784C176.141 202.097 175.248 202.254 174.215 202.254C173.445 202.254 172.705 202.144 171.994 201.924C171.291 201.695 170.661 201.361 170.102 200.921C169.543 200.472 169.095 199.922 168.756 199.271C168.418 198.61 168.223 197.853 168.172 196.998H171.168C171.245 197.599 171.41 198.111 171.664 198.534C171.926 198.949 172.273 199.266 172.705 199.486C173.136 199.706 173.636 199.816 174.203 199.816C174.719 199.816 175.163 199.728 175.536 199.55C175.908 199.364 176.217 199.101 176.462 198.763C176.716 198.416 176.903 198.009 177.021 197.544C177.148 197.078 177.211 196.562 177.211 195.995C177.211 195.453 177.139 194.958 176.996 194.51C176.86 194.061 176.653 193.672 176.374 193.342C176.103 193.012 175.76 192.758 175.345 192.58C174.931 192.394 174.452 192.301 173.911 192.301C173.183 192.301 172.624 192.407 172.235 192.618C171.854 192.83 171.499 193.092 171.168 193.405ZM194.782 191.209V194.23C194.782 195.678 194.638 196.913 194.35 197.938C194.071 198.953 193.665 199.778 193.131 200.413C192.598 201.048 191.959 201.513 191.214 201.81C190.478 202.106 189.653 202.254 188.739 202.254C188.011 202.254 187.334 202.161 186.708 201.975C186.09 201.788 185.531 201.496 185.032 201.099C184.532 200.701 184.105 200.189 183.75 199.562C183.403 198.928 183.132 198.17 182.937 197.29C182.751 196.41 182.658 195.39 182.658 194.23V191.209C182.658 189.753 182.802 188.526 183.089 187.527C183.377 186.52 183.788 185.703 184.321 185.077C184.854 184.442 185.489 183.981 186.225 183.693C186.97 183.406 187.799 183.262 188.713 183.262C189.45 183.262 190.127 183.355 190.745 183.541C191.371 183.719 191.93 184.002 192.42 184.392C192.92 184.781 193.343 185.289 193.69 185.915C194.045 186.533 194.316 187.282 194.502 188.162C194.689 189.034 194.782 190.049 194.782 191.209ZM191.722 194.662V190.752C191.722 190.016 191.68 189.368 191.595 188.81C191.511 188.243 191.384 187.764 191.214 187.375C191.054 186.977 190.85 186.656 190.605 186.41C190.36 186.156 190.08 185.974 189.767 185.864C189.454 185.746 189.103 185.687 188.713 185.687C188.239 185.687 187.816 185.78 187.444 185.966C187.071 186.144 186.758 186.431 186.504 186.829C186.25 187.227 186.056 187.752 185.92 188.403C185.793 189.047 185.73 189.829 185.73 190.752V194.662C185.73 195.407 185.772 196.063 185.857 196.63C185.942 197.197 186.069 197.684 186.238 198.09C186.407 198.488 186.61 198.818 186.847 199.08C187.093 199.334 187.372 199.52 187.685 199.639C188.007 199.757 188.358 199.816 188.739 199.816C189.221 199.816 189.649 199.723 190.021 199.537C190.393 199.351 190.707 199.055 190.96 198.648C191.214 198.234 191.405 197.696 191.532 197.036C191.659 196.376 191.722 195.585 191.722 194.662Z" fill="#333333"/>
<rect x="37" y="186.195" width="15.3727" height="15.3659" rx="4" fill="#E0E4FC"/>
<rect x="129.236" y="186.195" width="15.3727" height="15.3659" rx="4" fill="#6B7CFF"/>
<path d="M131.515 153.119C97.6925 156.232 67.7501 131.338 64.6369 97.5151C61.5237 63.6925 86.4185 33.7502 120.241 30.637C154.064 27.5238 184.006 52.4186 187.119 86.2411C190.232 120.064 165.338 150.006 131.515 153.119ZM121.8 47.5769C97.3334 49.8289 79.3247 71.4889 81.5768 95.9558C83.8289 120.423 105.489 138.431 129.956 136.179C154.423 133.927 172.431 112.267 170.179 87.8004C167.927 63.3335 146.267 45.3248 121.8 47.5769Z" fill="#E0E4FC"/>
<path d="M80.2616 118.851C76.218 121.242 74.8353 126.504 77.761 130.18C82.8991 136.634 89.3027 142.013 96.6097 145.967C106.42 151.276 117.49 153.816 128.633 153.316C139.776 152.817 150.574 149.296 159.87 143.13C169.166 136.965 176.61 128.387 181.405 118.316C186.201 108.245 188.166 97.059 187.092 85.9563C186.018 74.8535 181.945 64.2519 175.308 55.2865C168.671 46.3211 159.721 39.3296 149.415 35.0605C141.74 31.8808 133.528 30.3005 125.278 30.381C120.58 30.4268 117.367 34.8175 118.06 39.4637C118.753 44.1099 123.103 47.2284 127.796 47.431C132.967 47.6541 138.082 48.7791 142.905 50.7768C150.36 53.865 156.834 58.9226 161.635 65.4081C166.436 71.8936 169.383 79.5627 170.16 87.5943C170.937 95.6259 169.515 103.718 166.046 111.003C162.577 118.289 157.192 124.494 150.468 128.953C143.743 133.413 135.932 135.96 127.871 136.322C119.81 136.683 111.802 134.846 104.706 131.006C100.115 128.521 96.0172 125.26 92.5839 121.386C89.4681 117.871 84.3052 116.46 80.2616 118.851Z" fill="#6B7CFF"/>
</svg>
