<svg width="109" height="92" viewBox="0 0 109 92" fill="none" xmlns="http://www.w3.org/2000/svg">
<rect x="1" y="1" width="107" height="90" rx="7" fill="#E0E4FC" stroke="#CACFFA" stroke-width="2"/>
<path d="M29.0195 18.1797V26H27.9829V18.1797H29.0195ZM31.7427 21.3433V26H30.7437V20.1885H31.689L31.7427 21.3433ZM31.5386 22.874L31.0767 22.8579C31.0802 22.4604 31.1322 22.0934 31.2324 21.7568C31.3327 21.4167 31.4813 21.1213 31.6782 20.8706C31.8752 20.62 32.1204 20.4266 32.4141 20.2905C32.7077 20.1509 33.0479 20.0811 33.4346 20.0811C33.7067 20.0811 33.9574 20.1204 34.1865 20.1992C34.4157 20.2744 34.6144 20.3944 34.7827 20.5591C34.951 20.7238 35.0817 20.9351 35.1748 21.1929C35.2679 21.4507 35.3145 21.7622 35.3145 22.1274V26H34.3208V22.1758C34.3208 21.8714 34.2689 21.6279 34.165 21.4453C34.0648 21.2627 33.9215 21.1302 33.7354 21.0479C33.5492 20.9619 33.3307 20.9189 33.0801 20.9189C32.7865 20.9189 32.5412 20.9709 32.3442 21.0747C32.1473 21.1785 31.9897 21.3218 31.8716 21.5044C31.7534 21.687 31.6675 21.8965 31.6138 22.1328C31.5636 22.3656 31.5386 22.6126 31.5386 22.874ZM35.3037 22.3262L34.6377 22.5303C34.6413 22.2116 34.6932 21.9054 34.7935 21.6118C34.8973 21.3182 35.0459 21.0568 35.2393 20.8276C35.4362 20.5985 35.6779 20.4176 35.9644 20.2852C36.2508 20.1491 36.5785 20.0811 36.9473 20.0811C37.2588 20.0811 37.5345 20.1222 37.7744 20.2046C38.0179 20.2869 38.222 20.4141 38.3867 20.5859C38.555 20.7542 38.6821 20.9709 38.7681 21.2358C38.854 21.5008 38.897 21.8159 38.897 22.1812V26H37.8979V22.1704C37.8979 21.8446 37.846 21.5921 37.7422 21.4131C37.6419 21.2305 37.4987 21.1034 37.3125 21.0317C37.1299 20.9565 36.9115 20.9189 36.6572 20.9189C36.4388 20.9189 36.2454 20.9565 36.0771 21.0317C35.9089 21.1069 35.7674 21.2108 35.6528 21.3433C35.5382 21.4722 35.4505 21.6208 35.3896 21.7891C35.3324 21.9574 35.3037 22.1364 35.3037 22.3262ZM41.3945 21.3057V28.2344H40.3955V20.1885H41.3086L41.3945 21.3057ZM45.3101 23.0459V23.1587C45.3101 23.5812 45.2599 23.9733 45.1597 24.335C45.0594 24.693 44.9126 25.0046 44.7192 25.2695C44.5295 25.5345 44.2949 25.7404 44.0156 25.8872C43.7363 26.034 43.4159 26.1074 43.0542 26.1074C42.6854 26.1074 42.3595 26.0465 42.0767 25.9248C41.7938 25.8031 41.5539 25.6258 41.3569 25.3931C41.16 25.1603 41.0024 24.881 40.8843 24.5552C40.7697 24.2293 40.6909 23.8623 40.6479 23.4541V22.8525C40.6909 22.4229 40.7715 22.0379 40.8896 21.6978C41.0078 21.3576 41.1636 21.0675 41.3569 20.8276C41.5539 20.5841 41.792 20.3997 42.0713 20.2744C42.3506 20.1455 42.6729 20.0811 43.0381 20.0811C43.4033 20.0811 43.7274 20.1527 44.0103 20.2959C44.2931 20.4355 44.5312 20.6361 44.7246 20.8975C44.918 21.1589 45.063 21.4722 45.1597 21.8374C45.2599 22.1991 45.3101 22.6019 45.3101 23.0459ZM44.311 23.1587V23.0459C44.311 22.7559 44.2806 22.4837 44.2197 22.2295C44.1589 21.9717 44.064 21.7461 43.9351 21.5527C43.8097 21.3558 43.6486 21.2018 43.4517 21.0908C43.2547 20.9762 43.0202 20.9189 42.748 20.9189C42.4974 20.9189 42.279 20.9619 42.0928 21.0479C41.9102 21.1338 41.7544 21.2502 41.6255 21.397C41.4966 21.5402 41.391 21.7049 41.3086 21.8911C41.2298 22.0737 41.1707 22.2635 41.1313 22.4604V23.8516C41.203 24.1022 41.3032 24.3385 41.4321 24.5605C41.561 24.779 41.7329 24.9562 41.9478 25.0923C42.1626 25.2248 42.4329 25.291 42.7588 25.291C43.0273 25.291 43.2583 25.2355 43.4517 25.1245C43.6486 25.0099 43.8097 24.8542 43.9351 24.6572C44.064 24.4603 44.1589 24.2347 44.2197 23.9805C44.2806 23.7227 44.311 23.4487 44.311 23.1587ZM47.5713 21.1016V26H46.5776V20.1885H47.5444L47.5713 21.1016ZM49.3867 20.1562L49.3813 21.0801C49.299 21.0622 49.2202 21.0514 49.145 21.0479C49.0734 21.0407 48.991 21.0371 48.8979 21.0371C48.6688 21.0371 48.4665 21.0729 48.291 21.1445C48.1156 21.2161 47.967 21.3164 47.8452 21.4453C47.7235 21.5742 47.6268 21.7282 47.5552 21.9072C47.4871 22.0827 47.4424 22.276 47.4209 22.4873L47.1416 22.6484C47.1416 22.2975 47.1756 21.9681 47.2437 21.6602C47.3153 21.3522 47.4245 21.0801 47.5713 20.8438C47.7181 20.6038 47.9043 20.4176 48.1299 20.2852C48.359 20.1491 48.6312 20.0811 48.9463 20.0811C49.0179 20.0811 49.1003 20.09 49.1934 20.1079C49.2865 20.1222 49.3509 20.1383 49.3867 20.1562ZM52.6094 26.1074C52.2048 26.1074 51.8377 26.0394 51.5083 25.9033C51.1825 25.7637 50.9014 25.5685 50.665 25.3179C50.4323 25.0672 50.2533 24.77 50.1279 24.4263C50.0026 24.0825 49.9399 23.7065 49.9399 23.2983V23.0728C49.9399 22.6001 50.0098 22.1794 50.1494 21.8105C50.2891 21.4382 50.4788 21.123 50.7188 20.8652C50.9587 20.6074 51.2308 20.4123 51.5352 20.2798C51.8395 20.1473 52.1546 20.0811 52.4805 20.0811C52.8958 20.0811 53.2539 20.1527 53.5547 20.2959C53.859 20.4391 54.1079 20.6396 54.3013 20.8975C54.4946 21.1517 54.6379 21.4525 54.731 21.7998C54.8241 22.1436 54.8706 22.5195 54.8706 22.9277V23.3735H50.5308V22.5625H53.877V22.4873C53.8626 22.2295 53.8089 21.9788 53.7158 21.7354C53.6263 21.4919 53.4831 21.2913 53.2861 21.1338C53.0892 20.9762 52.8206 20.8975 52.4805 20.8975C52.2549 20.8975 52.0472 20.9458 51.8574 21.0425C51.6676 21.1356 51.5047 21.2752 51.3687 21.4614C51.2326 21.6476 51.127 21.875 51.0518 22.1436C50.9766 22.4121 50.939 22.7218 50.939 23.0728V23.2983C50.939 23.5741 50.9766 23.8337 51.0518 24.0771C51.1305 24.3171 51.2433 24.5283 51.3901 24.7109C51.5405 24.8936 51.7214 25.0368 51.9326 25.1406C52.1475 25.2445 52.391 25.2964 52.6631 25.2964C53.014 25.2964 53.3112 25.2248 53.5547 25.0815C53.7982 24.9383 54.0112 24.7467 54.1938 24.5068L54.7954 24.9849C54.6701 25.1746 54.5107 25.3555 54.3174 25.5273C54.124 25.6992 53.8859 25.8389 53.603 25.9463C53.3237 26.0537 52.9925 26.1074 52.6094 26.1074ZM59.4146 24.4585C59.4146 24.3153 59.3823 24.1828 59.3179 24.061C59.257 23.9357 59.1299 23.8229 58.9365 23.7227C58.7467 23.6188 58.4603 23.5293 58.0771 23.4541C57.7549 23.3861 57.4631 23.3055 57.2017 23.2124C56.9438 23.1193 56.7236 23.0065 56.541 22.874C56.362 22.7415 56.2241 22.5858 56.1274 22.4067C56.0308 22.2277 55.9824 22.0182 55.9824 21.7783C55.9824 21.5492 56.0326 21.3325 56.1328 21.1284C56.2367 20.9243 56.3817 20.7435 56.5679 20.5859C56.7576 20.4284 56.985 20.3049 57.25 20.2153C57.515 20.1258 57.8104 20.0811 58.1362 20.0811C58.6017 20.0811 58.9992 20.1634 59.3286 20.3281C59.658 20.4928 59.9105 20.7131 60.0859 20.9888C60.2614 21.2609 60.3491 21.5635 60.3491 21.8965H59.3555C59.3555 21.7354 59.3071 21.5796 59.2104 21.4292C59.1174 21.2752 58.9795 21.1481 58.7969 21.0479C58.6178 20.9476 58.3976 20.8975 58.1362 20.8975C57.8605 20.8975 57.6367 20.9404 57.4648 21.0264C57.2965 21.1087 57.173 21.2144 57.0942 21.3433C57.019 21.4722 56.9814 21.6082 56.9814 21.7515C56.9814 21.8589 56.9993 21.9556 57.0352 22.0415C57.0745 22.1239 57.1426 22.2008 57.2393 22.2725C57.3359 22.3405 57.472 22.4049 57.6475 22.4658C57.8229 22.5267 58.0467 22.5876 58.3188 22.6484C58.7951 22.7559 59.1872 22.8848 59.4951 23.0352C59.8031 23.1855 60.0322 23.37 60.1826 23.5884C60.333 23.8068 60.4082 24.0718 60.4082 24.3833C60.4082 24.6375 60.3545 24.8703 60.2471 25.0815C60.1432 25.2928 59.991 25.4754 59.7905 25.6294C59.5936 25.7798 59.3573 25.8979 59.0815 25.9839C58.8094 26.0662 58.5033 26.1074 58.1631 26.1074C57.651 26.1074 57.2178 26.0161 56.8633 25.8335C56.5088 25.6509 56.2402 25.4146 56.0576 25.1245C55.875 24.8345 55.7837 24.5283 55.7837 24.2061H56.7827C56.797 24.4782 56.8758 24.6948 57.019 24.856C57.1623 25.0135 57.3377 25.1263 57.5454 25.1943C57.7531 25.2588 57.959 25.291 58.1631 25.291C58.4352 25.291 58.6626 25.2552 58.8452 25.1836C59.0314 25.112 59.1729 25.0135 59.2695 24.8882C59.3662 24.7629 59.4146 24.6196 59.4146 24.4585ZM65.0972 24.4585C65.0972 24.3153 65.0649 24.1828 65.0005 24.061C64.9396 23.9357 64.8125 23.8229 64.6191 23.7227C64.4294 23.6188 64.1429 23.5293 63.7598 23.4541C63.4375 23.3861 63.1457 23.3055 62.8843 23.2124C62.6265 23.1193 62.4062 23.0065 62.2236 22.874C62.0446 22.7415 61.9067 22.5858 61.8101 22.4067C61.7134 22.2277 61.665 22.0182 61.665 21.7783C61.665 21.5492 61.7152 21.3325 61.8154 21.1284C61.9193 20.9243 62.0643 20.7435 62.2505 20.5859C62.4403 20.4284 62.6676 20.3049 62.9326 20.2153C63.1976 20.1258 63.493 20.0811 63.8188 20.0811C64.2843 20.0811 64.6818 20.1634 65.0112 20.3281C65.3407 20.4928 65.5931 20.7131 65.7686 20.9888C65.944 21.2609 66.0317 21.5635 66.0317 21.8965H65.0381C65.0381 21.7354 64.9897 21.5796 64.8931 21.4292C64.8 21.2752 64.6621 21.1481 64.4795 21.0479C64.3005 20.9476 64.0802 20.8975 63.8188 20.8975C63.5431 20.8975 63.3193 20.9404 63.1475 21.0264C62.9792 21.1087 62.8556 21.2144 62.7769 21.3433C62.7017 21.4722 62.6641 21.6082 62.6641 21.7515C62.6641 21.8589 62.682 21.9556 62.7178 22.0415C62.7572 22.1239 62.8252 22.2008 62.9219 22.2725C63.0186 22.3405 63.1546 22.4049 63.3301 22.4658C63.5055 22.5267 63.7293 22.5876 64.0015 22.6484C64.4777 22.7559 64.8698 22.8848 65.1777 23.0352C65.4857 23.1855 65.7148 23.37 65.8652 23.5884C66.0156 23.8068 66.0908 24.0718 66.0908 24.3833C66.0908 24.6375 66.0371 24.8703 65.9297 25.0815C65.8258 25.2928 65.6737 25.4754 65.4731 25.6294C65.2762 25.7798 65.0399 25.8979 64.7642 25.9839C64.492 26.0662 64.1859 26.1074 63.8457 26.1074C63.3337 26.1074 62.9004 26.0161 62.5459 25.8335C62.1914 25.6509 61.9229 25.4146 61.7402 25.1245C61.5576 24.8345 61.4663 24.5283 61.4663 24.2061H62.4653C62.4797 24.4782 62.5584 24.6948 62.7017 24.856C62.8449 25.0135 63.0203 25.1263 63.228 25.1943C63.4357 25.2588 63.6416 25.291 63.8457 25.291C64.1178 25.291 64.3452 25.2552 64.5278 25.1836C64.714 25.112 64.8555 25.0135 64.9521 24.8882C65.0488 24.7629 65.0972 24.6196 65.0972 24.4585ZM68.4756 20.1885V26H67.4766V20.1885H68.4756ZM67.4014 18.647C67.4014 18.4858 67.4497 18.3498 67.5464 18.2388C67.6466 18.1278 67.7935 18.0723 67.9868 18.0723C68.1766 18.0723 68.3216 18.1278 68.4219 18.2388C68.5257 18.3498 68.5776 18.4858 68.5776 18.647C68.5776 18.8009 68.5257 18.9334 68.4219 19.0444C68.3216 19.1519 68.1766 19.2056 67.9868 19.2056C67.7935 19.2056 67.6466 19.1519 67.5464 19.0444C67.4497 18.9334 67.4014 18.8009 67.4014 18.647ZM69.8076 23.1587V23.0352C69.8076 22.6162 69.8685 22.2277 69.9902 21.8696C70.112 21.508 70.2874 21.1947 70.5166 20.9297C70.7458 20.6611 71.0233 20.4535 71.3491 20.3066C71.675 20.1562 72.0402 20.0811 72.4448 20.0811C72.853 20.0811 73.2201 20.1562 73.5459 20.3066C73.8753 20.4535 74.1546 20.6611 74.3838 20.9297C74.6165 21.1947 74.7938 21.508 74.9155 21.8696C75.0373 22.2277 75.0981 22.6162 75.0981 23.0352V23.1587C75.0981 23.5776 75.0373 23.9661 74.9155 24.3242C74.7938 24.6823 74.6165 24.9956 74.3838 25.2642C74.1546 25.5291 73.8771 25.7368 73.5513 25.8872C73.229 26.034 72.8638 26.1074 72.4556 26.1074C72.0474 26.1074 71.6803 26.034 71.3545 25.8872C71.0286 25.7368 70.7493 25.5291 70.5166 25.2642C70.2874 24.9956 70.112 24.6823 69.9902 24.3242C69.8685 23.9661 69.8076 23.5776 69.8076 23.1587ZM70.8013 23.0352V23.1587C70.8013 23.4487 70.8353 23.7227 70.9033 23.9805C70.9714 24.2347 71.0734 24.4603 71.2095 24.6572C71.3491 24.8542 71.5228 25.0099 71.7305 25.1245C71.9382 25.2355 72.1799 25.291 72.4556 25.291C72.7277 25.291 72.9658 25.2355 73.1699 25.1245C73.3776 25.0099 73.5495 24.8542 73.6855 24.6572C73.8216 24.4603 73.9237 24.2347 73.9917 23.9805C74.0633 23.7227 74.0991 23.4487 74.0991 23.1587V23.0352C74.0991 22.7487 74.0633 22.4784 73.9917 22.2241C73.9237 21.9663 73.8198 21.7389 73.6802 21.542C73.5441 21.3415 73.3722 21.1839 73.1646 21.0693C72.9604 20.9548 72.7205 20.8975 72.4448 20.8975C72.1727 20.8975 71.9328 20.9548 71.7251 21.0693C71.521 21.1839 71.3491 21.3415 71.2095 21.542C71.0734 21.7389 70.9714 21.9663 70.9033 22.2241C70.8353 22.4784 70.8013 22.7487 70.8013 23.0352ZM77.3379 21.4292V26H76.3442V20.1885H77.2842L77.3379 21.4292ZM77.1016 22.874L76.688 22.8579C76.6916 22.4604 76.7507 22.0934 76.8652 21.7568C76.9798 21.4167 77.141 21.1213 77.3486 20.8706C77.5563 20.62 77.8034 20.4266 78.0898 20.2905C78.3799 20.1509 78.7004 20.0811 79.0513 20.0811C79.3377 20.0811 79.5955 20.1204 79.8247 20.1992C80.0539 20.2744 80.249 20.3962 80.4102 20.5645C80.5749 20.7327 80.7002 20.9512 80.7861 21.2197C80.8721 21.4847 80.915 21.8088 80.915 22.1919V26H79.916V22.1812C79.916 21.8768 79.8713 21.6333 79.7817 21.4507C79.6922 21.2645 79.5615 21.1302 79.3896 21.0479C79.2178 20.9619 79.0065 20.9189 78.7559 20.9189C78.5088 20.9189 78.2832 20.9709 78.0791 21.0747C77.8786 21.1785 77.7049 21.3218 77.5581 21.5044C77.4149 21.687 77.3021 21.8965 77.2197 22.1328C77.141 22.3656 77.1016 22.6126 77.1016 22.874Z" fill="black"/>
<path d="M56.9893 61.374H58.8174C59.5283 61.374 60.1165 61.2513 60.582 61.0059C61.056 60.7604 61.4072 60.4219 61.6357 59.9902C61.8643 59.5586 61.9785 59.0635 61.9785 58.5049C61.9785 57.9209 61.8727 57.4215 61.6611 57.0068C61.458 56.5837 61.1449 56.2578 60.7217 56.0293C60.307 55.8008 59.778 55.6865 59.1348 55.6865C58.5931 55.6865 58.1022 55.7965 57.6621 56.0166C57.2305 56.2282 56.8877 56.5329 56.6338 56.9307C56.3799 57.32 56.2529 57.7855 56.2529 58.3271H53.1807C53.1807 57.3454 53.4388 56.4736 53.9551 55.7119C54.4714 54.9502 55.1738 54.3535 56.0625 53.9219C56.9596 53.4818 57.9668 53.2617 59.084 53.2617C60.2773 53.2617 61.3184 53.4606 62.207 53.8584C63.1042 54.2477 63.8024 54.8317 64.3018 55.6104C64.8011 56.389 65.0508 57.3538 65.0508 58.5049C65.0508 59.0296 64.9281 59.5628 64.6826 60.1045C64.4372 60.6462 64.0732 61.1413 63.5908 61.5898C63.1084 62.0299 62.5075 62.3896 61.7881 62.6689C61.0687 62.9398 60.235 63.0752 59.2871 63.0752H56.9893V61.374ZM56.9893 63.7607V62.085H59.2871C60.3704 62.085 61.293 62.2119 62.0547 62.4658C62.8249 62.7197 63.4512 63.071 63.9336 63.5195C64.416 63.9596 64.7673 64.4632 64.9873 65.0303C65.2158 65.5973 65.3301 66.1982 65.3301 66.833C65.3301 67.6963 65.1735 68.4665 64.8604 69.1436C64.5557 69.8122 64.1198 70.3792 63.5527 70.8447C62.9857 71.3102 62.3213 71.6615 61.5596 71.8984C60.8063 72.1354 59.9854 72.2539 59.0967 72.2539C58.3011 72.2539 57.5394 72.1439 56.8115 71.9238C56.0837 71.7038 55.432 71.3779 54.8564 70.9463C54.2809 70.5062 53.8239 69.9603 53.4854 69.3086C53.1553 68.6484 52.9902 67.8867 52.9902 67.0234H56.0498C56.0498 67.5736 56.1768 68.0602 56.4307 68.4834C56.693 68.8981 57.057 69.224 57.5225 69.4609C57.9964 69.6979 58.5381 69.8164 59.1475 69.8164C59.7907 69.8164 60.3451 69.7021 60.8105 69.4736C61.276 69.2451 61.6315 68.9066 61.877 68.458C62.1309 68.0094 62.2578 67.4678 62.2578 66.833C62.2578 66.1136 62.1182 65.5296 61.8389 65.0811C61.5596 64.6325 61.1618 64.3024 60.6455 64.0908C60.1292 63.8708 59.5199 63.7607 58.8174 63.7607H56.9893ZM80.5645 69.5625V72H68.1738V69.9053L74.1914 63.3418C74.8516 62.597 75.3721 61.9538 75.7529 61.4121C76.1338 60.8704 76.4004 60.3838 76.5527 59.9521C76.7135 59.512 76.7939 59.0846 76.7939 58.6699C76.7939 58.0859 76.6839 57.5739 76.4639 57.1338C76.2523 56.6852 75.9391 56.334 75.5244 56.0801C75.1097 55.8177 74.6061 55.6865 74.0137 55.6865C73.3281 55.6865 72.7526 55.8346 72.2871 56.1309C71.8216 56.4271 71.4704 56.8376 71.2334 57.3623C70.9964 57.8786 70.8779 58.471 70.8779 59.1396H67.8184C67.8184 58.0648 68.0638 57.083 68.5547 56.1943C69.0456 55.2972 69.7565 54.5863 70.6875 54.0615C71.6185 53.5283 72.7399 53.2617 74.0518 53.2617C75.2874 53.2617 76.3369 53.4691 77.2002 53.8838C78.0635 54.2985 78.7194 54.8867 79.168 55.6484C79.625 56.4102 79.8535 57.3115 79.8535 58.3525C79.8535 58.9281 79.7604 59.4993 79.5742 60.0664C79.388 60.6335 79.1214 61.2005 78.7744 61.7676C78.4359 62.3262 78.0339 62.889 77.5684 63.4561C77.1029 64.0146 76.5908 64.5817 76.0322 65.1572L72.0332 69.5625H80.5645ZM86.6201 53.5156V72H83.4336V53.5156H86.6201ZM97.7285 53.5156L90.2383 62.415L85.9727 66.9346L85.4141 63.7734L88.4609 60.0156L93.8438 53.5156H97.7285ZM94.3008 72L88.2197 63.2402L90.416 61.0693L98.084 72H94.3008Z" fill="black"/>
<path d="M12 63C12 59.6377 12.997 56.3509 14.865 53.5553C16.733 50.7597 19.388 48.5807 22.4944 47.294C25.6007 46.0074 29.0189 45.6707 32.3165 46.3266C35.6142 46.9826 38.6433 48.6017 41.0208 50.9792C43.3983 53.3567 45.0174 56.3858 45.6734 59.6835C46.3293 62.9811 45.9926 66.3993 44.706 69.5056C43.4193 72.612 41.2403 75.267 38.4447 77.135C35.6491 79.003 32.3623 80 29 80L29 63L12 63Z" fill="#6B7CFF"/>
<path d="M46 63C46 66.3623 45.003 69.6491 43.135 72.4447C41.267 75.2403 38.612 77.4193 35.5056 78.706C32.3993 79.9926 28.9811 80.3293 25.6835 79.6734C22.3858 79.0174 19.3567 77.3983 16.9792 75.0208C14.6017 72.6433 12.9826 69.6142 12.3266 66.3165C11.6707 63.0189 12.0074 59.6007 13.294 56.4944C14.5807 53.388 16.7597 50.733 19.5553 48.865C22.3509 46.997 25.6377 46 29 46L29 63L46 63Z" fill="#C1EBC3"/>
</svg>
